<svg width="114" height="56" viewBox="0 0 114 56" fill="none" xmlns="http://www.w3.org/2000/svg">
<path fill-rule="evenodd" clip-rule="evenodd" d="M65.2293 0.0077711L64.6927 0C64.405 0.0261391 64.2309 0.0420346 64.0999 0.12575C63.8991 0.253974 63.7999 0.541681 63.5486 1.2704L63.444 1.57965C63.3905 1.73702 63.3366 1.8942 63.2824 2.05139L63.1304 2.49028C62.147 5.34669 61.1256 8.19021 60.0598 11.0168L59.9317 11.3564C59.883 11.4864 59.8348 11.6171 59.7869 11.7485C59.7295 11.9058 59.6725 12.0639 59.6154 12.2225L59.6117 12.2326C59.0203 13.8737 58.4134 15.5577 57.2138 16.8315C57.0017 17.0452 56.7899 17.2594 56.58 17.4753C55.7159 18.364 54.8455 19.2446 53.9113 20.06C53.7714 20.1782 53.6321 20.2969 53.493 20.4161C53.3988 20.497 53.3048 20.5779 53.2109 20.6591C51.4263 22.3592 49.6863 23.397 47.247 23.9145C45.783 24.0296 44.5028 24.054 43.271 23.1911C42.1864 22.0727 41.7383 20.7628 41.7528 19.2278L41.7687 18.7375C41.7801 17.6734 41.8291 16.6452 42.0059 15.5952C42.9987 15.9899 43.8805 16.2027 44.9505 16.204L45.4058 16.1943C49.2548 16.1446 52.5426 14.9311 55.5604 12.5206C56.6349 11.3734 57.6215 10.0768 57.7941 8.48533L57.7969 8.41062C57.8386 7.32761 57.8746 6.3919 57.1156 5.54927L56.8255 5.28646C56.6088 5.08459 56.3863 4.88873 56.159 4.69869C54.745 3.70204 53.1966 3.47598 51.5188 3.76262C47.4824 4.5687 44.3037 7.077 42.0285 10.4634C41.8812 10.7057 41.8134 10.8174 41.7364 10.9225C41.704 10.9666 41.6701 11.0095 41.6279 11.0606C41.5844 11.1134 41.532 11.1747 41.4637 11.2547H40.9215C40.1995 10.9357 39.5606 10.8145 38.7821 10.7326L38.3349 10.6895L37.4447 10.5977L36.7648 10.5312L36.7484 10.4608C36.3274 8.64552 35.8894 6.75785 34.6639 5.29847C33.6636 4.3693 32.4712 3.81066 31.1058 3.7379C29.5827 3.79989 28.0784 4.42546 26.9759 5.48569L26.6441 5.82903C25.0057 7.42899 23.8621 9.086 23.0056 11.2229C22.64 12.202 22.2121 12.997 21.5916 13.8417L21.2223 14.3292C18.9762 17.3589 16.4918 20.0653 13.2273 22.0282C11.078 23.1416 8.65234 23.7615 6.2538 23.1487C5.12092 22.7497 4.57037 22.1669 3.97425 21.1225C3.22907 19.5201 3.267 17.669 3.86765 16.0155L4.06461 15.5387C4.18058 15.2557 4.29705 14.9731 4.41477 14.6909L4.8214 14.8378L5.49913 15.0526C6.21684 15.2886 6.92223 15.4698 7.66785 15.5952C11.4762 15.8981 15.2701 15.1672 18.4112 12.912C19.6837 11.8334 20.8792 10.3573 21.0967 8.65276C21.1357 7.34104 20.7582 6.5475 19.8902 5.58247C18.6933 4.37901 17.3267 3.99823 15.68 3.96626L15.2471 3.96397C14.8389 3.96096 14.4338 3.96573 14.0259 3.98339C10.315 4.33292 6.94659 6.98675 4.62797 9.72941L4.41477 9.98868C4.39276 9.37212 4.39261 8.77586 4.45077 8.16177C4.61748 7.23259 4.98846 6.81631 5.72433 6.24443C6.12176 5.95036 6.45881 5.67767 6.76421 5.28646C6.8454 4.71776 6.86548 4.37424 6.57219 3.87354C6.03307 3.54291 5.58454 3.49964 4.95695 3.47792C4.428 3.73666 4.05247 4.02137 3.62832 4.43094L3.21745 4.89085C2.77805 5.37477 2.43506 5.81402 2.11968 6.38784C1.47651 7.82779 1.23537 9.53937 1.70387 11.0738C1.88753 11.4341 2.06842 11.7956 2.24605 12.1589C2.27393 12.5438 2.28655 12.7179 2.24701 12.8792C2.21435 13.0123 2.14613 13.1369 2.02155 13.3642C1.49106 14.3269 1.01939 15.231 0.843299 16.3221C0.627129 19.0279 0.684314 21.5056 2.42677 23.7336C4.00895 25.3135 5.77449 26.1068 8.018 26.1413C13.0965 25.9993 16.7008 23.3832 20.0797 19.8276L20.3187 19.574C20.1961 21.5065 20.11 23.4242 20.138 25.3613C20.4777 25.3649 20.8173 25.368 21.157 25.3702L21.5725 25.3726C22.0597 25.3781 22.5423 25.3746 23.0296 25.3613C23.0637 25.3272 23.0913 25.2995 23.114 25.2748L23.1325 25.2538C23.1509 25.232 23.1655 25.2117 23.1775 25.19C23.2181 25.1165 23.2291 25.0266 23.2554 24.8103L23.288 24.3214L23.3271 23.7774C23.5178 21.0757 23.8396 18.4809 24.6293 15.8813L24.8369 15.2335C25.3024 13.7439 25.8171 12.3043 26.5247 10.9104L26.7345 10.5086C27.5091 9.012 28.5421 7.5226 30.0779 6.7333C30.8336 6.57011 31.4444 6.57417 32.1111 6.98198C33.1481 8.53849 33.5127 9.9334 33.6925 11.7972C33.5514 11.7972 33.458 11.7972 33.3669 11.8117C33.1891 11.8398 33.0201 11.923 32.5223 12.1681L32.5186 12.1697L32.5178 12.1702C29.6738 13.6342 27.4422 15.9309 26.3999 19.0109C25.9646 21.1021 26.2674 22.9904 27.367 24.8188C27.997 25.5719 28.6789 26.0355 29.6614 26.2211C31.3893 26.4057 32.7354 26.3502 34.1556 25.2596C35.01 24.4735 35.5651 23.9627 35.9481 23.3449C36.6583 22.1994 36.7764 20.6863 37.1135 16.3668L37.2025 15.189C37.2308 14.7813 37.2635 14.3739 37.307 13.9675C37.388 13.8689 37.4337 13.8135 37.4923 13.784C37.568 13.7458 37.6653 13.751 37.888 13.7626L38.3801 13.764L38.4951 13.7635C38.9349 13.7608 39.2397 13.7589 39.6565 13.9675C39.6861 14.3688 39.6983 14.5335 39.6586 14.6847C39.631 14.79 39.5781 14.8887 39.4884 15.0561C38.9613 16.0321 38.9122 17.0996 38.9001 18.1838L38.8997 18.5906C38.897 20.9246 39.3247 22.9431 40.9568 24.7043C42.605 26.2811 43.985 26.7255 46.2206 26.6879C50.1486 26.5517 53.2791 24.7373 55.9437 21.935L56.2833 21.5634L56.464 21.7442L56.3681 22.0037C55.9782 23.0544 55.614 24.036 55.7411 25.1805C55.8043 25.2437 55.8454 25.2849 55.894 25.3129C55.9845 25.365 56.101 25.3719 56.4344 25.3917L57.074 25.3952L57.3637 25.3986L57.4963 25.3993C57.5852 25.3993 57.6571 25.3984 57.7291 25.3959C57.7594 25.3951 57.7896 25.3938 57.8212 25.3922L57.9233 25.3862L58.0418 25.3783L58.2713 25.3613C58.53 25.1888 58.6653 25.0985 58.7655 24.9788C58.8752 24.8477 58.9428 24.6814 59.0846 24.3327C59.1723 24.0719 59.2632 23.8121 59.3557 23.5528C59.6422 22.8993 59.9157 22.2589 60.1308 21.5782C60.5544 20.2211 61.017 18.8949 61.5861 17.5911L61.7955 17.1211C62.7663 14.9122 64.1603 12.6581 66.0722 11.143L66.404 10.893C66.7914 10.5779 67.1773 10.2865 67.5964 10.0148C68.347 9.657 69.0317 9.62804 69.8378 9.80783C70.1386 9.95177 70.2901 10.0242 70.4028 10.1358C70.5171 10.249 70.5915 10.4027 70.7414 10.7121C71.0462 12.3718 70.4377 13.8688 69.8074 15.3769C68.6644 18.0607 67.5939 20.5821 68.0305 23.5528C68.3668 24.456 68.902 25.0837 69.6797 25.6439C70.6517 26.1227 71.9008 26.0312 72.9405 25.8269C74.3156 25.3956 75.8698 24.2091 76.5776 22.9594L76.7054 22.6485H77.0669C77.0669 22.8052 77.0669 22.894 77.0852 22.9788C77.1093 23.0899 77.165 23.1941 77.2935 23.4348C78.2788 24.9325 79.6682 26.1296 81.4043 26.6273C83.5746 26.8928 85.7386 26.7388 87.6132 25.5429C90.1644 23.6084 92.0025 20.3744 92.4862 17.2073C92.5489 16.6992 92.612 16.1914 92.688 15.6851C92.8609 14.8059 93.1334 14.4269 93.8631 13.9223C94.5803 13.4912 95.1823 13.0706 95.7722 12.4829L96.0431 12.2042C96.3173 11.9226 96.5899 11.64 96.8605 11.3552L97.1275 11.0738C98.6345 9.51659 100.131 7.86417 101.154 5.93641L101.284 5.64817C101.472 5.72553 101.57 5.76545 101.646 5.82956C101.728 5.89809 101.787 5.99416 101.908 6.19286C103.144 8.03496 104.704 9.68155 106.469 11.0286C107.9 12.0971 109.342 13.2033 110.147 14.8357C110.552 16.1863 110.618 17.8601 110.062 19.1755L109.778 19.7548C109.11 21.1411 108.161 22.0833 106.751 22.7276C105.423 23.2063 104.02 23.2365 102.73 22.6485C103.768 22.3195 104.484 21.8686 105.226 21.066C106.29 19.7909 106.836 18.8578 106.763 17.1642C106.626 16.0049 106.255 15.1671 105.375 14.3871L105.079 14.1483C104.404 13.6015 104.037 13.4466 103.169 13.362C101.715 13.3294 100.703 13.3624 99.5765 14.3589C98.0205 16.0708 97.7845 17.3114 97.8314 19.5803L97.8504 20.1165L97.3746 19.9187L96.7435 19.6644C95.9286 19.3317 95.2999 19.1404 94.4166 19.2123C94.2532 19.2995 94.1686 19.3447 94.102 19.4087C94.0309 19.4767 93.9804 19.5666 93.8765 19.7511L93.8753 19.7532L93.8744 19.7548C93.8624 19.8375 93.8503 19.9147 93.8389 19.9878C93.7686 20.4357 93.7221 20.7315 93.8744 21.2017C94.6058 21.9918 95.2565 22.2403 96.2948 22.4715C96.436 22.5001 96.5765 22.527 96.7162 22.5537C97.5581 22.7146 98.3678 22.8695 99.0929 23.3663C100.469 24.6831 102.289 25.5545 104.181 25.7916C106.383 25.8378 108.61 25.1633 110.234 23.6347L110.501 23.3719L110.502 23.3709C110.725 23.1757 110.84 23.0743 110.949 22.9662C111.065 22.8511 111.174 22.7287 111.396 22.4777L111.404 22.4692L111.405 22.4677C112.914 20.3045 113.383 18.3663 113.212 15.776C112.872 13.1842 111.019 11.3626 109.078 9.81913C106.694 7.9546 104.826 5.90656 103.272 3.29706C103.08 2.88714 102.891 2.49081 102.656 2.10385C102.501 1.9675 102.398 1.87637 102.279 1.81826C102.04 1.70116 101.735 1.71688 100.819 1.76404L100.817 1.76457C100.595 1.80802 100.46 1.83469 100.345 1.89809C100.169 1.99558 100.041 2.17997 99.717 2.64712C98.6979 4.16531 97.602 5.61285 96.471 7.04909L96.3844 7.15842C96.1267 7.4841 95.8691 7.80978 95.6134 8.13704C94.7562 9.23453 93.8797 10.2033 92.7901 11.0738L92.7964 10.5786L92.8014 9.93217C92.8188 8.17201 92.0353 6.53214 90.956 5.15153C89.3471 3.47651 87.5131 2.69922 85.1939 2.53479C82.8274 2.50547 80.871 3.08477 79.0789 4.68315C77.7042 6.18703 77.0722 8.04291 76.9991 10.0452C77.0324 11.8439 77.6337 13.3829 78.8741 14.6909C80.8413 16.5655 83.2899 17.2121 85.9411 17.2729L86.3969 17.2794C87.4948 17.3043 88.3866 17.1773 89.4215 16.797L89.7177 16.6803C89.2143 18.4436 88.4154 20.1255 87.4304 21.6715C86.5135 22.8385 85.1794 23.6044 83.7121 23.8191C82.5063 23.8536 81.6344 23.7359 80.723 22.8965C79.3811 21.497 78.9864 20.0443 78.9624 18.1317L78.9666 16.8643L78.9588 16.2515L78.9613 15.698C78.9382 15.575 78.9212 15.4846 78.9024 15.412C78.8858 15.3481 78.8677 15.2979 78.8427 15.2515C78.7889 15.1515 78.703 15.0689 78.5304 14.903C78.316 14.7831 78.1795 14.7068 78.0333 14.6639C77.7783 14.5888 77.4935 14.616 76.7134 14.6904H76.7088L76.7054 14.6909C76.3356 14.9648 76.1864 15.1271 76.088 15.5796L76.0771 15.9668L76.0602 16.3942L76.0565 16.5613C76.022 18.1686 75.9923 19.5471 74.9405 20.8838C73.9116 22.0823 73.1007 22.8792 71.4643 23.0102L71.1029 22.4677C70.7195 20.6453 71.2368 19.1955 72.051 17.5609L72.1551 17.358L72.2757 17.1236C73.1558 15.4152 74.0603 13.6595 74.229 11.7223C74.2684 10.1835 73.9836 8.95354 72.9101 7.81843C71.7158 6.78646 70.668 6.62115 69.1156 6.67749C66.8622 6.90921 64.729 8.76898 63.3514 10.4528L63.1509 10.7121C63.3553 9.94135 63.593 9.2227 63.9115 8.48957C64.4847 7.17272 64.977 5.83344 65.4385 4.4735L65.6585 3.81702L65.7354 3.59025C66.1123 2.48004 66.479 1.3995 66.5847 0.222536C66.415 0.137584 66.3249 0.0925467 66.2298 0.0655245C66.1223 0.0349699 66.0084 0.0273755 65.7658 0.0113034L65.2293 0.0077711ZM90.1498 9.53937C89.668 7.90691 88.7384 6.69851 87.2779 5.81773C85.1965 4.87831 82.4241 5.31684 80.8282 6.95937L80.5007 7.45672C80.2781 7.78734 80.0883 8.11285 79.9147 8.47191C79.6205 9.39914 79.5667 10.5577 79.9387 11.4673C80.6843 12.6943 81.6005 13.4247 82.9221 13.9632C84.7276 14.5438 87.1953 14.6888 88.9539 13.9329L89.424 13.6849C89.7034 13.5394 89.9823 13.393 90.2599 13.2441C90.3128 12.0025 90.3644 10.7677 90.1498 9.53937ZM54.8375 6.91416C55.0092 7.086 55.0994 7.17625 55.1552 7.28434C55.2168 7.40356 55.2365 7.5445 55.278 7.84104C55.1304 9.14905 54.3388 10.0199 53.3917 10.893L53.1749 11.1445C50.9619 13.1236 47.6285 13.6948 44.7761 13.6665C44.2284 13.6111 43.911 13.5341 43.4517 13.2441C43.601 12.4113 44.102 11.8258 44.6291 11.2098C44.7184 11.1054 44.8084 11.0003 44.8975 10.893L45.2604 10.4422C47.2564 8.07629 51.6786 4.8066 54.8375 6.91416ZM18.4528 8.66407C18.4707 8.15541 18.3971 7.75079 18.1387 7.30978C14.5543 5.11126 10.3539 7.72836 7.66361 10.1971L7.30639 10.5312C6.67815 11.1063 6.29808 11.5221 6.0413 12.3398C6.54313 12.6943 6.88497 12.8753 7.50057 12.9468L8.11472 12.9417L8.78785 12.9389L9.4864 12.9276C11.0279 12.9212 12.255 12.903 13.6936 12.3352L14.0498 12.1929C14.7528 11.9194 15.4389 11.6323 16.1027 11.2723C17.068 10.6634 18.1228 9.79988 18.4528 8.66407ZM34.0539 14.6909C34.1558 17.4957 34.059 20.6188 32.4161 23.0102C31.9577 23.4837 31.6535 23.717 30.9929 23.8015C30.7024 23.7658 30.5643 23.7488 30.4399 23.6983C30.3274 23.6527 30.226 23.5794 30.0328 23.4397C29.2888 22.4295 29.2153 21.3315 29.355 20.1165C29.8762 17.9858 31.2316 16.2324 33.0147 14.9735C33.2694 14.8287 33.3936 14.758 33.5271 14.7236C33.6541 14.6909 33.7896 14.6909 34.0539 14.6909ZM103.504 16.3412C103.413 16.2734 103.306 16.2282 103.091 16.1377L102.973 16.125C102.431 16.0659 102.004 16.0196 101.521 16.3412L101.284 16.6803C100.8 17.2985 100.572 17.6686 100.484 18.4585L100.505 19.1784C100.506 19.2797 100.502 19.3884 100.497 19.5C100.481 19.9187 100.462 20.3792 100.742 20.6591H101.205C101.582 20.5496 101.827 20.4783 102.048 20.3613C102.461 20.1427 102.79 19.7649 103.735 18.681C104.103 17.8979 104.033 17.5157 103.814 16.6803C103.668 16.4995 103.594 16.409 103.504 16.3412Z" fill="#1E293B" fill-opacity="0.7"/>
<path d="M43.9939 30.787C59.1088 30.787 59.1088 30.787 63.5131 34.9113C64.5578 36.0611 65.3347 37.4674 65.8618 38.9254C65.9159 39.0739 65.9699 39.2224 66.0256 39.3754C67.0692 42.7938 66.4019 46.2734 64.7725 49.3684C63.2831 51.8298 60.7723 53.6551 58.0115 54.4111C57.8184 54.4663 57.8184 54.4663 57.6215 54.5227C57.2365 54.6319 56.8504 54.7364 56.464 54.8406C56.2346 54.9054 56.0051 54.9702 55.7687 55.037C52.0912 55.8471 47.2554 55.3832 43.9939 55.3832C43.9939 47.2664 43.9939 39.1497 43.9939 30.787ZM47.0662 32.0529C47.0486 32.3197 47.0434 32.5872 47.0433 32.8545C47.0428 33.0277 47.0423 33.2009 47.0417 33.3793C47.0421 33.5708 47.0425 33.7624 47.0429 33.9597C47.0425 34.1603 47.0422 34.3609 47.0419 34.5675C47.0411 35.2348 47.0416 35.9021 47.0422 36.5694C47.0421 37.0319 47.0419 37.4945 47.0417 37.9571C47.0414 38.9291 47.0418 39.9011 47.0427 40.8731C47.0437 41.9944 47.0433 43.1157 47.0424 44.237C47.0414 45.3167 47.0415 46.3964 47.0421 47.476C47.0422 47.9347 47.042 48.3934 47.0416 48.852C47.0412 49.4949 47.0419 50.1378 47.0429 50.7806C47.0425 50.9696 47.0421 51.1586 47.0417 51.3533C47.0446 52.3521 47.0991 53.3101 47.247 54.2981C48.0673 54.3025 48.8876 54.3058 49.7079 54.308C49.9872 54.3089 50.2664 54.3101 50.5457 54.3117C50.9463 54.3139 51.3469 54.3149 51.7475 54.3157C51.9358 54.3171 51.9358 54.3171 52.128 54.3185C52.4288 54.3186 52.7296 54.3093 53.0302 54.2981C53.0899 54.2384 53.1495 54.1787 53.2109 54.1172C53.5218 54.0606 53.833 54.0049 54.1449 53.9545C57.0167 53.485 59.4522 52.3565 61.2363 49.9809C62.6412 47.8506 63.0353 45.6502 63.038 43.1416C63.0446 42.8186 63.0446 42.8186 63.0514 42.4892C63.0605 39.7036 62.1397 37.1987 60.2141 35.1614C57.4604 32.5832 53.9553 31.7649 50.2749 31.8212C49.8935 31.827 49.5123 31.8287 49.1308 31.8297C48.0131 31.7258 48.0131 31.7258 47.0662 32.0529Z" fill="#1E293B" fill-opacity="0.7"/>
<path fill-rule="evenodd" clip-rule="evenodd" d="M7.43699 33.64C7.0309 33.6436 6.62488 33.6468 6.21877 33.6471H6.01475C4.92344 33.6462 3.86814 33.6453 2.78823 33.8615V54.1172C2.9478 54.1317 3.10737 54.1467 3.26695 54.1617C3.97499 54.2282 4.6833 54.2946 5.39372 54.3216L6.48641 54.3228L7.06919 54.3207C8.3089 54.3251 9.51505 54.3184 10.7402 54.1172C12.8524 53.6333 14.6251 52.5431 15.8916 50.7651C17.4996 48.1141 18.008 44.1199 17.343 41.0722L17.2464 40.734C16.7835 38.9187 16.1655 37.1245 14.7049 35.8622L14.174 35.4892C12.1563 33.9749 9.89264 33.6302 7.43699 33.64ZM11.3977 36.7349C10.4357 36.2126 9.19069 36.2126 5.49912 36.2126V51.7661C5.88529 51.7661 6.2493 51.7705 6.59554 51.7748C8.85215 51.8022 10.3535 51.8203 12.3103 50.5454C13.6721 49.2193 14.4462 47.7483 14.5678 45.8299L14.5805 45.4438C14.6669 42.8582 14.7612 40.0394 12.9315 38.0063C12.3034 37.4014 11.8872 37.0005 11.3977 36.7349Z" fill="#1E293B" fill-opacity="0.7"/>
<path d="M102.167 30.2444C102.765 30.5276 102.895 31.0611 103.125 31.646C103.235 31.9093 103.344 32.1726 103.453 32.4358C103.511 32.5778 103.568 32.7197 103.628 32.8659C103.962 33.6771 104.314 34.4806 104.662 35.2857C105.12 36.3496 105.564 37.4174 105.991 38.494C106.252 39.146 106.523 39.7932 106.796 40.4401C106.856 40.582 106.916 40.7239 106.977 40.87C107.366 41.7909 107.759 42.7097 108.154 43.6276C108.201 43.7376 108.249 43.8475 108.297 43.9608C108.531 44.505 108.766 45.049 109.001 45.5926C109.522 46.8016 110.011 48.0179 110.478 49.2486C110.737 49.9201 111.02 50.5782 111.315 51.2348C111.422 51.4787 111.53 51.7227 111.637 51.9667C111.689 52.0846 111.741 52.2024 111.795 52.3239C112.026 52.8488 112.253 53.3749 112.478 53.9024C112.55 54.0715 112.623 54.2405 112.698 54.4146C112.851 54.8406 112.851 54.8406 112.851 55.3832C111.837 55.3832 110.823 55.3832 109.778 55.3832C109.172 54.2635 108.735 53.1036 108.306 51.9074C107.981 51.0383 107.604 50.1924 107.23 49.3436C106.547 47.7929 105.893 46.23 105.238 44.6676C105.112 44.368 104.986 44.0685 104.86 43.7689C104.343 42.539 103.827 41.3088 103.317 40.0762C102.913 39.1037 102.487 38.1415 102.051 37.1829C101.813 36.6473 101.646 36.2634 101.646 35.67C101.526 35.67 101.407 35.67 101.284 35.67C101.237 35.8214 101.19 35.9727 101.142 36.1287C100.904 36.8074 100.615 37.4501 100.306 38.0982C100.246 38.2258 100.185 38.3535 100.123 38.485C99.9309 38.8921 99.7379 39.2987 99.5447 39.7054C99.4192 39.9706 99.2938 40.2359 99.1684 40.5012C98.9167 41.0338 98.6646 41.5663 98.4123 42.0987C98.0293 42.9074 97.6485 43.7171 97.268 44.527C96.7532 45.6226 96.2364 46.7172 95.7156 47.8099C95.6418 47.9647 95.5681 48.1196 95.4921 48.2791C95.2542 48.7784 95.0161 49.2775 94.7781 49.7767C94.6914 49.9586 94.6047 50.1406 94.5154 50.328C94.2492 50.8866 93.9828 51.445 93.7163 52.0035C93.6346 52.175 93.5528 52.3465 93.4686 52.5232C93.011 53.4815 92.5449 54.4347 92.0672 55.3832C91.7093 55.3832 91.3515 55.3832 90.9828 55.3832C91.3485 54.1806 91.8227 53.0648 92.3721 51.9356C92.4526 51.7684 92.533 51.6011 92.6158 51.4288C93.0747 50.4775 93.5441 49.5321 94.0213 48.5898C94.689 47.2707 95.3102 45.9306 95.9302 44.5884C95.9808 44.4789 96.0314 44.3694 96.0835 44.2566C96.134 44.1473 96.1845 44.0379 96.2366 43.9252C99.3049 37.2835 99.3049 37.2835 100.603 34.9C100.827 34.3924 100.696 34.0282 100.561 33.4998C100.464 33.2872 100.367 33.0745 100.268 32.8555C100.019 32.2338 100.019 32.2338 100.008 31.7365C100.287 31.1442 100.698 31.0449 101.284 30.787C101.381 30.6825 101.478 30.5781 101.578 30.4705C101.826 30.2444 101.826 30.2444 102.167 30.2444Z" fill="#1E293B" fill-opacity="0.7"/>
<path d="M96.0544 30.7757C96.3172 30.7813 96.3172 30.7813 96.5853 30.787C96.3926 31.4137 96.1677 32.0109 95.8963 32.6068C95.5976 33.2651 95.3355 33.9302 95.083 34.6075C94.7696 35.4333 94.4259 36.2303 94.0439 37.0264C93.3869 38.3989 92.8057 39.8026 92.2253 41.2087C92.1344 41.4284 92.0436 41.6482 91.9499 41.8746C91.516 42.9302 91.0932 43.9881 90.6905 45.0561C90.4026 45.812 90.0907 46.5332 89.717 47.2499C89.3497 47.9774 89.042 48.7328 88.7237 49.4828C88.6555 49.6423 88.5872 49.8017 88.5169 49.966C88.1175 50.9028 87.7327 51.8443 87.357 52.7907C87.1143 53.3955 86.8581 53.9936 86.6002 54.592C86.5061 54.8106 86.4119 55.0293 86.315 55.2546C86.2451 55.4164 86.1752 55.5782 86.1032 55.7449C85.8646 55.7449 85.6261 55.7449 85.3803 55.7449C85.2559 55.4372 85.2559 55.4372 85.129 55.1232C85.017 54.8481 84.905 54.5731 84.7929 54.2981C84.7386 54.1635 84.6844 54.029 84.6284 53.8904C84.3017 53.0905 83.9443 52.3181 83.5521 51.5484C83.3426 51.1225 83.1796 50.6869 83.0195 50.2401C82.499 48.8544 81.8956 47.5074 81.2888 46.1575C80.7725 44.9997 80.2905 43.833 79.8244 42.6541C79.0191 40.6203 78.153 38.6143 77.2815 36.6082C77.1272 36.2521 76.9729 35.8959 76.8187 35.5397C76.5377 34.8907 76.2564 34.2419 75.9749 33.5932C75.9148 33.454 75.8548 33.3148 75.7929 33.1715C75.6816 32.9157 75.5687 32.6606 75.4538 32.4064C75.2235 31.8913 75.0789 31.5396 75.0789 30.9678C76.0927 30.9678 77.1066 30.9678 78.1512 30.9678C78.8188 32.2573 79.4013 33.5326 79.9069 34.8929C80.2249 35.7091 80.5976 36.4959 80.9694 37.2885C81.4135 38.2526 81.7924 39.2392 82.166 40.2324C82.281 40.5366 82.281 40.5366 82.3983 40.847C82.4673 41.0321 82.5362 41.2172 82.6073 41.4079C82.7872 41.8465 82.9747 42.2572 83.189 42.6782C83.6287 43.5427 84.0075 44.4305 84.3863 45.3232C84.4545 45.4826 84.5228 45.6421 84.5931 45.8064C84.9318 46.6006 85.2624 47.3972 85.5808 48.1999C85.8436 48.862 86.121 49.514 86.4195 50.161C86.4968 50.3293 86.5742 50.4977 86.6538 50.6711C86.7107 50.7937 86.7675 50.9163 86.8261 51.0427C86.909 50.8375 86.992 50.6324 87.0774 50.421C87.1894 50.1459 87.3014 49.8709 87.4135 49.5958C87.4677 49.4613 87.522 49.3268 87.5779 49.1882C87.8421 48.5413 88.1153 47.9096 88.4385 47.2899C88.8466 46.4904 89.1521 45.6581 89.4685 44.8188C89.9163 43.6534 90.407 42.5058 90.8924 41.3557C91.0442 40.9951 91.1959 40.6346 91.3475 40.274C91.4462 40.0395 91.545 39.805 91.6439 39.5705C92.0267 38.662 92.4042 37.7514 92.7791 36.8396C92.9492 36.4438 93.1322 36.0626 93.3322 35.6813C93.7494 34.8734 94.0539 34.0254 94.3742 33.1755C95.2913 30.7912 95.2913 30.7912 96.0544 30.7757Z" fill="#1E293B" fill-opacity="0.7"/>
<path d="M70.0185 30.787C71.0324 30.787 72.0463 30.787 73.0909 30.787C73.0909 38.9037 73.0909 47.0205 73.0909 55.3832C72.077 55.3832 71.0631 55.3832 70.0185 55.3832C70.0185 47.2664 70.0185 39.1497 70.0185 30.787Z" fill="#1E293B" fill-opacity="0.7"/>
<path fill-rule="evenodd" clip-rule="evenodd" d="M33.6925 32.5955L33.5117 32.4146C28.9738 31.0748 24.6572 31.1593 21.4002 34.9848C20.238 36.6195 19.9009 38.3945 20.138 40.3722C20.26 40.673 20.3805 40.9745 20.4994 41.2765C20.5715 41.9279 20.5449 42.2716 20.2481 42.8597C19.7698 43.5826 19.3331 44.3028 18.9894 45.0999C18.2222 47.3503 18.2289 49.5413 19.2739 51.6728C20.3968 53.7331 22.1679 54.9807 24.378 55.711C27.5017 56.4588 30.478 55.6806 33.2548 54.2366C34.5228 53.4492 36.2158 52.1553 36.5841 50.681L34.7768 49.0533L34.0539 49.7767C31.7034 52.07 29.2487 52.916 25.9954 52.9056C24.7143 52.7926 23.5326 52.2837 22.6343 51.3592L22.3067 50.8618C22.0751 50.5466 21.8913 50.2445 21.7222 49.8911C21.3297 48.5406 21.3691 46.8502 21.9001 45.5492C22.1777 44.978 22.4452 44.7751 23.0296 44.5319C23.319 44.7744 23.4359 44.8724 23.5574 44.9644C23.6398 45.0268 23.7243 45.0865 23.8662 45.1868C25.6514 46.2256 27.7808 46.4489 29.7843 46.024C31.1504 45.5526 32.2051 44.8795 32.9357 43.5937C33.2814 42.483 33.2747 41.5353 32.9583 40.4175C32.3775 39.4425 31.6568 38.8224 30.5975 38.4055C27.8984 37.6324 25.6911 38.613 23.3784 39.894L22.8489 40.1914L22.8821 39.7357L22.9279 39.1402L22.9724 38.5489C23.107 37.3067 23.8576 36.3995 24.7917 35.6135C27.1992 34.3625 29.9696 34.5805 32.5763 35.0483L32.9696 35.1275C33.3699 34.2739 33.6162 33.5489 33.6925 32.5955ZM30.4394 42.5425C30.5843 41.9623 30.4945 41.7354 30.2022 41.22C29.15 40.5588 27.5583 40.814 26.4331 41.2461L26.0681 41.4235C25.4785 41.6999 25.2645 41.9379 25.0176 42.5425C25.8597 43.1043 26.5241 43.318 27.5464 43.3521L27.9318 43.3563C28.9618 43.3835 29.6295 43.2188 30.4394 42.5425Z" fill="#1E293B" fill-opacity="0.7"/>
</svg>
