<svg width="222" height="20" viewBox="0 0 222 20" fill="none" xmlns="http://www.w3.org/2000/svg">
<path d="M106.875 0.00875671C107.365 0.0122254 107.365 0.0122254 107.865 0.0157641C108.897 0.0248266 109.928 0.0453195 110.96 0.0662122C111.664 0.0744199 112.369 0.0818749 113.073 0.088556C114.79 0.106461 116.506 0.133722 118.222 0.168355C118.191 0.56014 118.156 0.951645 118.12 1.343C118.101 1.56104 118.083 1.77909 118.063 2.00374C117.951 2.61979 117.951 2.61979 117.408 3.43693C116.635 3.51219 115.918 3.53738 115.146 3.52844C114.683 3.53184 114.221 3.5354 113.759 3.53908C113.03 3.54015 112.301 3.53908 111.571 3.53509C110.868 3.53275 110.165 3.53866 109.461 3.54546C109.136 3.54001 109.136 3.54001 108.804 3.53445C107.642 3.54985 107.22 3.60413 106.284 4.36633C104.142 7.10779 103.079 12.0332 103.216 15.4664C103.24 15.9704 103.24 15.9704 103.562 16.2389C104.293 16.3034 105.018 16.3538 105.751 16.3921C106.059 16.4097 106.059 16.4097 106.375 16.4277C106.885 16.4567 107.395 16.4841 107.906 16.5112C107.943 16.2272 107.981 15.9431 108.02 15.6505C108.466 12.6808 109.442 9.83076 110.349 6.97789C112.499 6.97789 114.649 6.97789 116.865 6.97789C116.254 9.73667 116.254 9.73667 115.941 10.8242C115.873 11.0621 115.805 11.3 115.735 11.5451C115.665 11.7851 115.596 12.025 115.524 12.2723C115.456 12.5112 115.387 12.7502 115.317 12.9964C115.111 13.7145 114.902 14.4319 114.693 15.1493C114.591 15.5054 114.591 15.5054 114.488 15.8687C114.421 16.1008 114.354 16.3328 114.284 16.5719C114.226 16.7766 114.167 16.9813 114.107 17.1923C113.809 18.0796 113.439 18.9226 113.064 19.7798C111.074 19.8114 109.085 19.8356 107.095 19.8504C106.171 19.8575 105.247 19.8671 104.323 19.8826C103.26 19.9003 102.197 19.9068 101.133 19.9128C100.803 19.9198 100.473 19.9269 100.133 19.9341C97.5711 19.935 97.5711 19.935 96.5777 19.121C94.739 17.0282 94.6506 14.8161 94.7531 12.117C95.0088 8.4688 96.7265 4.73035 99.4502 2.26007C101.768 0.438546 103.987 -0.06987 106.875 0.00875671Z" fill="#1E293B" fill-opacity="0.7"/>
<path d="M136.486 0.088483C136.833 0.0896392 137.181 0.0907954 137.538 0.0919866C138.457 0.0957771 139.375 0.103106 140.294 0.112173C141.233 0.120565 142.172 0.124271 143.111 0.128383C144.951 0.137381 146.79 0.151048 148.629 0.168282C148.486 1.39043 148.277 2.27577 147.815 3.43686C144.231 3.43686 140.647 3.43686 136.955 3.43686C138.004 4.48943 139.061 5.52038 140.145 6.5352C140.312 6.69184 140.478 6.84848 140.65 7.00987C141.571 7.86649 142.502 8.65616 143.522 9.3952C144.569 10.1977 145.063 10.8272 145.371 12.1531C145.359 13.5485 145.193 14.892 144.828 16.2388C144.649 16.2388 144.47 16.2388 144.285 16.2388C144.224 16.4354 144.162 16.632 144.099 16.8346C143.668 17.7591 143.136 18.2806 142.385 18.9626C142.224 19.1089 142.064 19.2551 141.898 19.4058C141.116 19.8935 140.598 19.8783 139.68 19.8725C139.354 19.8725 139.028 19.8724 138.692 19.8723C138.341 19.8681 137.991 19.8639 137.629 19.8595C137.266 19.858 136.902 19.8569 136.538 19.856C135.583 19.8529 134.628 19.8449 133.673 19.8359C132.698 19.8275 131.722 19.8238 130.747 19.8196C128.834 19.8109 126.922 19.797 125.009 19.7797C125.14 18.6538 125.278 17.6128 125.552 16.5112C129.315 16.5112 133.078 16.5112 136.955 16.5112C136.955 16.3314 136.955 16.1516 136.955 15.9664C136.804 15.9022 136.653 15.8379 136.498 15.7717C135.716 15.3364 135.146 14.7938 134.495 14.1789C133.457 13.2106 132.407 12.3119 131.288 11.4381C129.92 10.3193 128.779 9.27214 128.422 7.48215C128.305 5.50621 129.092 3.69383 130.168 2.07495C130.347 2.07495 130.526 2.07495 130.711 2.07495C130.795 1.83058 130.795 1.83058 130.88 1.58126C132.078 -0.32969 134.523 0.0638383 136.486 0.088483Z" fill="#1E293B" fill-opacity="0.7"/>
<path d="M215.144 0.168403C216.093 2.32642 216.893 4.5174 217.66 6.74532C218.217 8.36205 218.793 9.97037 219.386 11.5744C219.464 11.7878 219.543 12.0012 219.624 12.2211C219.985 13.2043 220.35 14.1858 220.723 15.1643C220.848 15.4964 220.972 15.8286 221.1 16.1708C221.209 16.4559 221.318 16.741 221.43 17.0348C221.689 17.9806 221.675 18.803 221.66 19.7799C220.437 19.8135 219.215 19.8383 217.993 19.8547C217.577 19.8615 217.161 19.8708 216.745 19.8826C216.148 19.8991 215.55 19.9069 214.952 19.9129C214.766 19.9199 214.58 19.9269 214.389 19.9342C213.862 19.9345 213.862 19.9345 212.972 19.7799C212.474 19.1691 212.474 19.1691 212.158 18.418C212.065 18.2128 211.972 18.0076 211.876 17.7963C211.209 16.099 210.62 14.3859 210.071 12.6469C209.987 12.3893 209.904 12.1318 209.818 11.8664C209.386 10.5064 209.047 9.21567 208.9 7.79508C207.568 8.90528 206.393 10.0557 205.275 11.3807C204.649 12.0807 203.918 12.6411 203.198 13.2427C202.706 13.7982 202.23 14.3634 201.763 14.9398C201.277 15.4432 200.85 15.694 200.212 15.9665C200.212 16.1463 200.212 16.3261 200.212 16.5113C203.169 16.5113 206.125 16.5113 209.171 16.5113C208.628 19.5075 208.628 19.5075 208.357 19.7799C207.932 19.8053 207.506 19.8119 207.08 19.8108C206.808 19.8108 206.536 19.8107 206.256 19.8107C205.961 19.8093 205.665 19.8079 205.361 19.8065C205.06 19.8061 204.759 19.8057 204.449 19.8053C203.484 19.8038 202.518 19.8003 201.553 19.7969C200.9 19.7955 200.247 19.7943 199.594 19.7932C197.99 19.7902 196.386 19.7856 194.782 19.7799C195.19 18.6863 195.601 18.0465 196.44 17.2295C196.662 17.0102 196.885 16.7909 197.114 16.565C197.463 16.2266 197.463 16.2266 197.82 15.8814C199.236 14.4978 200.616 13.1159 201.902 11.6093C203.023 10.3411 204.255 9.17643 205.459 7.98873C207.24 6.22062 208.876 4.36326 210.458 2.41555C210.8 2.07507 210.8 2.07507 211.343 2.07507C211.41 1.91216 211.478 1.74924 211.547 1.58138C212.444 0.00633485 213.485 0.0851734 215.144 0.168403Z" fill="#1E293B" fill-opacity="0.7"/>
<path d="M188.269 0.0354152C188.596 0.0373423 188.924 0.0392693 189.261 0.0412547C190.299 0.048825 191.336 0.0659074 192.373 0.0832948C193.08 0.0901322 193.787 0.0963451 194.494 0.101915C196.219 0.11686 197.944 0.139597 199.669 0.168414C199.638 0.560199 199.603 0.951704 199.567 1.34306C199.548 1.5611 199.53 1.77915 199.51 2.0038C199.398 2.61985 199.398 2.61985 198.855 3.43699C198.101 3.51227 197.405 3.53746 196.652 3.52849C196.202 3.5319 195.752 3.53546 195.302 3.53913C194.593 3.5402 193.883 3.53914 193.174 3.53514C192.489 3.53281 191.805 3.53872 191.12 3.54552C190.909 3.54188 190.698 3.53825 190.481 3.5345C189.382 3.54946 188.876 3.65586 188.008 4.35295C187.418 5.11507 187.145 5.71539 186.875 6.63747C186.788 6.92398 186.702 7.2105 186.612 7.50569C186.531 7.78096 186.45 8.05624 186.366 8.33986C186.221 8.77173 186.074 9.20308 185.925 9.63367C185.799 10.019 185.674 10.4049 185.552 10.7913C185.495 10.9661 185.439 11.141 185.381 11.3212C184.94 12.8505 184.889 14.3815 185.009 15.9665C185.553 16.5127 186.638 16.3086 187.385 16.3251C187.596 16.3308 187.806 16.3364 188.023 16.3423C188.698 16.3601 189.373 16.3761 190.048 16.3921C190.505 16.4039 190.961 16.4158 191.418 16.4278C192.539 16.457 193.661 16.4846 194.782 16.5113C194.751 16.9541 194.717 17.3967 194.68 17.8392C194.662 18.0856 194.643 18.3321 194.623 18.5861C194.511 19.2351 194.511 19.2351 193.968 19.7799C193.357 19.8546 193.357 19.8546 192.586 19.8633C192.298 19.8677 192.01 19.872 191.713 19.8765C191.4 19.878 191.087 19.8795 190.765 19.881C190.444 19.8834 190.124 19.8859 189.793 19.8884C189.113 19.8924 188.433 19.8948 187.753 19.8958C186.713 19.899 185.675 19.9124 184.635 19.9262C183.975 19.9288 183.315 19.9307 182.654 19.932C182.344 19.9373 182.033 19.9427 181.713 19.9482C179.302 19.9345 179.302 19.9345 178.308 19.1211C176.536 17.1429 176.409 15.0656 176.504 12.4884C176.715 9.07897 177.927 6.03146 180.122 3.43699C180.264 3.2681 180.407 3.09922 180.553 2.92521C182.756 0.518237 185.097 -0.0359078 188.269 0.0354152Z" fill="#1E293B" fill-opacity="0.7"/>
<path d="M31.0379 0.137521C31.3777 0.138947 31.7175 0.140374 32.0676 0.141843C32.3382 0.142421 32.3382 0.142421 32.6142 0.143011C33.1924 0.14454 33.7705 0.14796 34.3487 0.151419C34.7399 0.152785 35.131 0.154028 35.5222 0.155143C36.4828 0.158152 37.4435 0.162857 38.4041 0.168443C38.2251 1.51284 37.9604 2.72601 37.5387 4.01583C37.417 4.39872 37.2958 4.78176 37.175 5.16494C37.1106 5.36859 37.0463 5.57224 36.98 5.78205C35.338 10.7686 35.338 10.7686 34.8747 15.9666C35.3939 16.4874 36.3235 16.3055 37.0138 16.3251C37.2002 16.3308 37.3866 16.3365 37.5787 16.3423C38.1762 16.3601 38.7737 16.3762 39.3713 16.3922C39.7755 16.4039 40.1797 16.4158 40.584 16.4278C41.5767 16.457 42.5696 16.4846 43.5624 16.5113C43.6185 17.4676 43.5996 18.2783 43.3527 19.2062C42.3016 20.2033 40.9757 19.979 39.5876 19.9704C39.2739 19.9723 38.9602 19.9743 38.637 19.9763C37.9724 19.9784 37.3078 19.977 36.6433 19.9724C35.6288 19.9672 34.6154 19.9779 33.6011 19.99C32.9552 19.9901 32.3094 19.9893 31.6635 19.9874C31.2099 19.9936 31.2099 19.9936 30.7472 20C29.0386 19.9744 28.0273 19.7916 26.7846 18.5756C25.7849 17.2572 26.0744 15.3428 26.1871 13.7875C26.7888 10.4307 27.9383 7.15628 28.9466 3.90544C29.2467 2.92552 29.5324 1.94154 29.816 0.956727C30.0889 0.137764 30.1345 0.173406 31.0379 0.137521Z" fill="#1E293B" fill-opacity="0.7"/>
<path d="M56.5939 0.168376C59.2817 0.168376 61.9694 0.168376 64.7386 0.168376C64.1491 4.01263 64.1491 4.01263 63.3966 5.74688C62.8597 7.03122 62.4848 8.36757 62.0916 9.70173C61.963 10.1167 61.963 10.1167 61.8318 10.5402C61.2451 12.5276 60.8109 14.4949 61.4808 16.5113C64.3477 16.5113 67.2146 16.5113 70.1684 16.5113C69.863 18.6563 69.863 18.6563 69.354 19.7798C67.296 19.8144 65.238 19.8382 63.1798 19.8547C62.4799 19.8615 61.7799 19.8708 61.08 19.8826C60.0731 19.8991 59.0665 19.9068 58.0596 19.9128C57.7473 19.9199 57.435 19.9269 57.1133 19.9341C54.6863 19.935 54.6863 19.935 53.6917 19.1229C52.3598 17.6257 52.4222 16.4659 52.4527 14.4918C52.5467 13.1589 52.8969 12.0433 53.3361 10.7913C53.5093 10.1964 53.6786 9.6005 53.8451 9.00375C54.2664 7.52183 54.6891 6.04033 55.1177 4.56053C55.1714 4.37283 55.2251 4.18514 55.2804 3.99176C55.6611 2.68327 56.1139 1.45281 56.5939 0.168376Z" fill="#1E293B" fill-opacity="0.7"/>
<path d="M149.986 0.168351C150.784 0.0700852 150.784 0.0700852 151.818 0.0755839C152.006 0.0754645 152.194 0.0753452 152.388 0.0752223C153.01 0.0757925 153.633 0.0821541 154.256 0.0885513C154.687 0.090075 155.119 0.0912383 155.55 0.0920549C156.687 0.0951775 157.823 0.103207 158.959 0.112242C160.118 0.120595 161.278 0.124332 162.437 0.128451C164.712 0.137219 166.987 0.151169 169.262 0.168351C169.179 0.662266 169.094 1.15591 169.008 1.64942C168.96 1.92435 168.913 2.19927 168.865 2.48253C168.719 3.16455 168.719 3.16455 168.448 3.43693C167.984 3.46066 167.52 3.46607 167.055 3.46353C166.634 3.46221 166.634 3.46221 166.204 3.46087C165.909 3.45859 165.613 3.4563 165.309 3.45395C164.864 3.45211 164.864 3.45211 164.41 3.45023C163.674 3.44701 162.939 3.44252 162.204 3.43693C162.217 3.66234 162.231 3.88776 162.245 4.12001C162.196 5.23336 161.899 6.17303 161.542 7.21622C160.964 8.96462 160.433 10.7214 159.941 12.4957C159.887 12.6914 159.833 12.887 159.777 13.0886C159.558 13.8823 159.34 14.6762 159.124 15.4708C158.971 16.0336 158.816 16.5959 158.661 17.1581C158.572 17.4861 158.483 17.814 158.391 18.1519C158.131 18.9627 158.131 18.9627 157.588 19.7798C156.854 19.8726 156.854 19.8726 155.932 19.8596C155.603 19.857 155.274 19.8543 154.935 19.8516C154.417 19.8414 154.417 19.8414 153.889 19.8309C153.542 19.8272 153.195 19.8235 152.837 19.8197C151.977 19.8101 151.118 19.7966 150.258 19.7798C150.426 18.439 150.686 17.172 151.038 15.8643C151.127 15.5308 151.216 15.1972 151.308 14.8535C151.515 14.1102 151.749 13.3804 151.998 12.65C152.634 10.7667 153.128 8.84122 153.647 6.92309C153.727 6.63044 153.807 6.33778 153.89 6.03626C153.962 5.77228 154.033 5.50831 154.107 5.23633C154.33 4.52645 154.33 4.52645 154.873 3.43693C152.992 3.43693 151.11 3.43693 149.172 3.43693C149.443 0.985495 149.443 0.985495 149.986 0.168351Z" fill="#1E293B" fill-opacity="0.7"/>
<path d="M121.209 0.168376C123.628 0.168376 126.046 0.168376 128.539 0.168376C128.237 2.8942 128.237 2.8942 127.69 4.39029C127.025 6.28051 126.476 8.19584 125.943 10.1273C125.861 10.423 125.779 10.7186 125.695 11.0232C125.355 12.2527 125.018 13.4829 124.685 14.7142C124.596 15.0376 124.507 15.3609 124.416 15.6941C124.344 15.9582 124.273 16.2222 124.2 16.4942C123.827 17.6197 123.318 18.6958 122.837 19.7798C120.418 19.7798 118 19.7798 115.507 19.7798C115.684 18.541 115.848 17.515 116.192 16.3432C116.274 16.0654 116.355 15.7877 116.438 15.5015C116.523 15.2168 116.608 14.932 116.695 14.6386C116.778 14.356 116.86 14.0733 116.945 13.7821C117.376 12.3163 117.828 10.8606 118.317 9.41299C118.553 8.70742 118.77 7.99666 118.986 7.28434C119.71 4.907 120.461 2.53833 121.209 0.168376Z" fill="#1E293B" fill-opacity="0.7"/>
<path d="M170.62 0.168376C173.128 0.168376 175.637 0.168376 178.221 0.168376C178.02 1.18095 177.803 2.1791 177.56 3.1816C177.493 3.46003 177.426 3.73847 177.357 4.02534C177.135 4.79886 177.135 4.79886 176.871 5.30851C176.545 5.98738 176.39 6.67435 176.217 7.40524C175.866 8.79358 175.422 10.1561 174.997 11.5233C174.905 11.8216 174.813 12.1198 174.719 12.4271C174.533 13.0291 174.347 13.6309 174.16 14.2326C173.966 14.8632 173.774 15.4947 173.585 16.1268C173.49 16.4408 173.396 16.7548 173.299 17.0784C173.214 17.3617 173.13 17.6449 173.043 17.9368C172.792 18.6903 172.792 18.6903 172.249 19.7798C169.919 19.7798 167.59 19.7798 165.19 19.7798C165.495 17.0219 165.495 17.0219 165.925 15.6047C166.063 15.1429 166.063 15.1429 166.204 14.6716C166.301 14.3574 166.397 14.0431 166.496 13.7194C166.59 13.4093 166.683 13.0993 166.779 12.7799C167.154 11.5379 167.533 10.2976 167.916 9.05821C168.576 6.92102 169.196 4.77544 169.798 2.62141C169.866 2.38107 169.934 2.14073 170.004 1.8931C170.063 1.67886 170.123 1.46461 170.185 1.24387C170.348 0.713139 170.348 0.713139 170.62 0.168376Z" fill="#1E293B" fill-opacity="0.7"/>
<path fill-rule="evenodd" clip-rule="evenodd" d="M83.4049 0.0598494L82.6209 0.0672974L82.3957 0.0683614C81.2664 0.0734153 80.2206 0.0784693 79.1285 0.430916L78.5846 0.713139C77.541 1.22385 76.6567 1.85294 75.7965 2.63577C72.8362 5.71708 71.5514 9.18622 71.4653 13.4135L71.458 14.0428L71.4557 14.208C71.4425 15.1278 71.43 15.9926 71.7708 16.8688L72.0688 17.3284C72.3114 17.7396 72.4343 17.9482 72.5678 18.1495C72.7051 18.3568 72.8536 18.5568 73.1548 18.9627C74.2063 19.8251 75.0996 19.8767 76.4041 19.8862L77.1412 19.8788C77.6614 19.8791 78.1816 19.8788 78.7018 19.8783C79.518 19.8713 80.334 19.865 81.1503 19.8658C81.6845 19.8668 82.2186 19.8668 82.7528 19.8652L83.5213 19.8618C85.384 19.8636 86.8818 19.7865 88.53 18.8127L89.2066 18.3328C89.9409 17.8221 90.5138 17.3473 91.0975 16.6666L91.6161 15.9665C93.6923 13.1844 94.894 10.1398 95.0183 6.6651L95.0267 6.02458C95.0602 4.36209 94.8451 2.86692 93.788 1.53028C92.5838 0.346595 91.5553 0.0117039 89.8858 0L89.1366 0.0162258C88.6046 0.0175558 88.0726 0.0194178 87.5406 0.0220778C86.7081 0.0356437 85.8762 0.0492095 85.0437 0.0524015C84.4975 0.0534655 83.9512 0.0558595 83.4049 0.0598494ZM85.4752 3.33587L84.8798 3.33481C83.467 3.28613 82.6558 3.2582 82.0676 3.60772C81.2744 4.07934 80.8868 5.23802 79.9765 7.95891C79.8652 8.30657 79.738 8.67657 79.6052 9.06307C78.7982 11.4121 77.7848 14.3617 78.8561 16.5113C79.3485 16.5373 79.841 16.5618 80.3339 16.5778L80.9432 16.5964C81.7169 16.6416 82.4369 16.6624 83.1999 16.5113C85.1884 15.115 85.991 12.4309 86.6132 10.1757L86.8141 9.41232C87.3388 7.55752 87.6871 5.91685 87.5438 3.98172C87.3014 3.7386 87.1538 3.5907 86.9772 3.4992C86.7024 3.35662 86.3573 3.35077 85.4752 3.33587Z" fill="#1E293B" fill-opacity="0.7"/>
<path fill-rule="evenodd" clip-rule="evenodd" d="M12.7026 0.112039C10.5005 0.124009 8.29874 0.14316 6.09679 0.16843L5.29697 2.84969C4.90803 4.15493 4.51922 5.45965 4.11232 6.75932C3.48039 8.76201 2.86198 10.769 2.25497 12.7794L1.95657 13.7705L1.66559 14.7198L1.39238 15.6335C0.975799 17.0109 0.797037 18.3526 0.666992 19.7799C2.71695 19.7857 4.76691 19.7903 6.81688 19.7932C7.86141 19.7948 8.90594 19.7959 9.95054 19.7988C10.9744 19.8017 11.9983 19.8044 13.0221 19.8054L14.1885 19.8065L15.3317 19.8108L16.3857 19.811C18.3673 19.8147 19.4654 19.0668 21.0287 17.8732C23.8426 15.3603 25.9927 11.5013 26.2496 7.68233L26.238 6.80773C26.2297 5.44183 26.1581 4.13844 25.7088 2.83905L25.4574 2.31343C25.2167 1.78357 25.2167 1.78357 24.8296 1.25796C24.3685 0.815336 24.0693 0.528325 23.7167 0.34452C23.0657 0.00510766 22.2325 0.0176096 19.8609 0.0532532C19.4849 0.0593712 19.1088 0.0630951 18.7328 0.0652231C18.1179 0.0668191 17.5031 0.0700111 16.8883 0.075065C16.5155 0.077991 16.1429 0.081715 15.7702 0.0862369C14.7477 0.0987388 13.7252 0.106453 12.7026 0.112039ZM15.022 3.40296C14.2188 3.41174 13.4158 3.42238 12.6125 3.43701L11.0218 8.83676C10.8298 9.48898 10.6361 10.1404 10.4406 10.7913L9.8425 12.6692C9.40823 14.0046 9.26413 15.0592 9.08318 16.5113H13.6985V15.9666L14.513 15.6942C15.4895 14.5174 16.0717 13.1294 16.5423 11.6872L16.7358 11.0637L16.8995 10.5641C17.4201 8.97853 17.9504 7.36366 18.1145 5.70331L18.1102 5.10534C18.1125 4.77497 18.1136 4.62336 18.1026 4.47254C18.0933 4.34459 18.0754 4.21718 18.0423 3.98177C17.7221 3.66045 17.5907 3.52878 17.4322 3.46201C17.3219 3.41546 17.1984 3.40057 16.9891 3.3753L16.3774 3.38381L15.7145 3.38913L15.022 3.40296Z" fill="#1E293B" fill-opacity="0.7"/>
<path d="M206.185 7.25029C206.364 7.51995 206.543 7.78961 206.728 8.06744C207.265 7.79778 207.803 7.52812 208.357 7.25029C208.536 7.43007 208.715 7.60986 208.9 7.79508C208.765 7.90744 208.63 8.01977 208.491 8.13553C207.309 9.14419 206.277 10.1933 205.275 11.3807C204.649 12.0807 203.918 12.6411 203.198 13.2427C202.688 13.8065 202.196 14.3816 201.71 14.9664C201.298 15.4217 201.298 15.4217 200.755 15.6941C200.576 15.6042 200.397 15.5143 200.212 15.4217C200.212 15.242 200.212 15.0622 200.212 14.877C199.854 14.7871 199.495 14.6972 199.126 14.6046C201.437 12.1091 203.761 9.63633 206.185 7.25029Z" fill="#1E293B" fill-opacity="0.7"/>
<path d="M198.855 14.877C198.855 15.6941 198.855 15.6941 198.498 16.0931C198.193 16.3602 197.888 16.6269 197.582 16.8932C197.111 17.3749 197.111 17.3749 197.226 18.4179C197.047 18.7775 196.867 19.137 196.683 19.5075C200.535 19.5075 204.388 19.5075 208.357 19.5075C208.357 19.5973 208.357 19.6873 208.357 19.7799C203.877 19.7799 199.398 19.7799 194.782 19.7799C195.393 18.2477 195.393 18.2477 196.15 17.5104C196.308 17.355 196.465 17.1996 196.628 17.0395C196.791 16.8821 196.955 16.7246 197.124 16.5623C197.29 16.3996 197.456 16.2369 197.627 16.0692C198.034 15.6699 198.444 15.2732 198.855 14.877ZM197.226 17.6008C197.405 17.6008 197.584 17.6008 197.769 17.6008C197.679 17.8704 197.59 18.1401 197.497 18.4179C197.408 18.1483 197.318 17.8786 197.226 17.6008Z" fill="#1E293B" fill-opacity="0.7"/>
<path d="M56.5939 0.168376C59.2817 0.168376 61.9694 0.168376 64.7386 0.168376C64.1957 3.70934 64.1956 3.70934 63.6527 4.2541C63.8318 3.17547 64.011 2.09684 64.1956 0.985521C61.5975 1.07541 58.9993 1.16529 56.3224 1.2579C56.412 0.898359 56.5016 0.538815 56.5939 0.168376Z" fill="#1E293B" fill-opacity="0.7"/>
<path d="M30.2594 0.168376C32.9471 0.168376 35.6349 0.168443 38.4041 0.168443C38.4041 0.527986 38.4041 0.887463 38.4041 1.2579C35.6828 1.31312 32.9747 1.14361 30.2594 0.985521C30.2594 0.715863 30.2594 0.446206 30.2594 0.168376Z" fill="#1E293B" fill-opacity="0.7"/>
<path d="M202.113 11.336C202.292 11.6057 202.471 11.8753 202.656 12.1532C202.462 12.3301 202.462 12.3301 202.265 12.5107C201.777 12.9766 201.777 12.9766 201.57 13.7874C201.838 13.7874 202.107 13.7874 202.384 13.7874C202.384 13.4279 202.384 13.0684 202.384 12.6979C202.653 12.6979 202.922 12.6979 203.198 12.6979C202.818 14.1393 201.88 14.8156 200.755 15.6941C200.576 15.6042 200.397 15.5143 200.212 15.4217C200.212 15.242 200.212 15.0622 200.212 14.877C199.854 14.7871 199.495 14.6972 199.126 14.6046C200.112 13.526 201.097 12.4473 202.113 11.336Z" fill="#1E293B" fill-opacity="0.7"/>
<path d="M141.299 18.4179C141.893 18.5031 141.893 18.5031 142.385 18.6903C141.806 19.3862 141.485 19.7459 140.581 19.9109C140.172 19.9072 140.172 19.9072 139.755 19.9035C139.445 19.9034 139.135 19.9034 138.816 19.9033C138.483 19.8977 138.151 19.892 137.808 19.8862C137.466 19.8847 137.124 19.8832 136.771 19.8816C135.864 19.8765 134.958 19.8667 134.051 19.8547C133.124 19.8435 132.198 19.8385 131.272 19.833C129.456 19.821 127.64 19.8028 125.824 19.7798C125.824 19.69 125.824 19.6001 125.824 19.5075C126.006 19.5059 126.188 19.5043 126.375 19.5026C128.264 19.4852 130.154 19.4622 132.043 19.436C132.748 19.4269 133.454 19.4193 134.159 19.4131C135.172 19.404 136.185 19.3897 137.198 19.3745C137.514 19.3727 137.831 19.371 138.157 19.3692C138.597 19.3611 138.597 19.3611 139.046 19.3528C139.305 19.3498 139.563 19.3468 139.83 19.3437C140.598 19.2162 140.792 18.9842 141.299 18.4179Z" fill="#1E293B" fill-opacity="0.7"/>
<path d="M133.546 0.102941C133.963 0.104756 133.963 0.104756 134.39 0.106607C134.863 0.106669 134.863 0.106669 135.345 0.106732C135.687 0.109543 136.028 0.112355 136.38 0.115252C136.729 0.116023 137.078 0.116793 137.437 0.117588C138.364 0.119668 139.292 0.125021 140.219 0.131045C141.166 0.136616 142.112 0.139106 143.058 0.141851C144.915 0.147695 146.772 0.156825 148.629 0.168282C148.539 0.797483 148.45 1.42685 148.358 2.07512C147.815 1.05369 147.815 1.05369 147.815 0.440833C140.154 0.575662 140.154 0.575662 132.34 0.713214C132.883 0.168451 132.883 0.168451 133.546 0.102941Z" fill="#1E293B" fill-opacity="0.7"/>
<path d="M121.209 0.168376C123.628 0.168376 126.046 0.168376 128.539 0.168376C128.539 0.617806 128.539 1.06724 128.539 1.53028C128.429 1.3971 128.32 1.26392 128.207 1.1267C127.598 0.605213 127.307 0.617377 126.516 0.63334C126.286 0.635973 126.056 0.638607 125.819 0.64132C125.58 0.648167 125.341 0.655014 125.094 0.662068C124.852 0.665755 124.61 0.669441 124.36 0.67324C123.762 0.682867 123.164 0.696305 122.566 0.713139C122.566 0.892911 122.566 1.07268 122.566 1.2579C122.297 1.39273 122.297 1.39273 122.023 1.53028C122.023 1.71006 122.023 1.88983 122.023 2.07505C121.844 2.07505 121.665 2.07505 121.48 2.07505C121.48 2.25482 121.48 2.43459 121.48 2.61981C121.211 2.61981 120.942 2.61981 120.666 2.61981C120.845 1.81084 121.024 1.00186 121.209 0.168376Z" fill="#1E293B" fill-opacity="0.7"/>
<path d="M198.855 14.877C198.855 15.6941 198.855 15.6941 198.498 16.0931C198.193 16.3602 197.888 16.6269 197.582 16.8932C197.111 17.3749 197.111 17.3749 197.226 18.4179C196.954 19.0308 196.954 19.0308 196.683 19.5075C196.235 19.5075 195.787 19.5075 195.325 19.5075C195.677 18.0756 196.346 17.2565 197.395 16.2729C197.535 16.1374 197.675 16.0019 197.82 15.8622C198.162 15.5313 198.508 15.2037 198.855 14.877ZM197.226 17.6008C197.405 17.6008 197.584 17.6008 197.769 17.6008C197.679 17.8704 197.59 18.1401 197.497 18.4179C197.408 18.1483 197.318 17.8786 197.226 17.6008Z" fill="#1E293B" fill-opacity="0.7"/>
<path d="M60.6663 13.5151C60.7559 13.5151 60.8455 13.5151 60.9378 13.5151C61.0856 14.6277 61.2093 15.6594 61.2093 16.7836C60.9405 16.6938 60.6717 16.6039 60.3948 16.5113C60.3052 16.691 60.2156 16.8708 60.1233 17.056C59.3088 16.0346 59.3088 16.0346 59.3088 15.4217C59.6672 15.3319 60.0256 15.242 60.3948 15.1494C60.4844 14.61 60.574 14.0707 60.6663 13.5151Z" fill="#1E293B" fill-opacity="0.7"/>
<path d="M177.407 16.7836C177.586 17.1432 177.765 17.5027 177.95 17.8732C178.129 17.8732 178.308 17.8732 178.493 17.8732C178.493 18.0529 178.493 18.2327 178.493 18.4179C178.851 18.5078 179.21 18.5977 179.579 18.6903C179.579 18.8701 179.579 19.0499 179.579 19.2351C179.758 19.325 179.937 19.4149 180.122 19.5075C179.545 19.6266 179.545 19.6266 178.764 19.5075C178.114 18.9507 177.559 18.3477 177.135 17.6008C177.225 17.3311 177.315 17.0615 177.407 16.7836Z" fill="#1E293B" fill-opacity="0.7"/>
<path d="M129.896 2.61981C130.556 3.61242 130.483 4.17576 130.439 5.34362C130.17 5.16385 129.902 4.98408 129.625 4.79886C129.356 5.06852 129.087 5.33818 128.81 5.61601C128.949 4.4205 129.223 3.61752 129.896 2.61981Z" fill="#1E293B" fill-opacity="0.7"/>
<path d="M22.3862 14.877C22.5654 15.2365 22.7446 15.5961 22.9292 15.9665C22.2124 16.6856 21.4957 17.4047 20.7572 18.1456C20.6677 17.786 20.5781 17.4265 20.4858 17.056C20.8082 16.6645 20.8082 16.6645 21.3002 16.2389C21.666 15.788 22.0287 15.3345 22.3862 14.877Z" fill="#1E293B" fill-opacity="0.7"/>
<path d="M153.516 7.52268C153.874 7.97211 154.233 8.42153 154.602 8.88458C154.333 9.51378 154.064 10.143 153.787 10.7913C153.698 10.6115 153.608 10.4317 153.516 10.2465C153.337 10.2465 153.157 10.2465 152.973 10.2465C153.152 9.34763 153.331 8.44877 153.516 7.52268Z" fill="#1E293B" fill-opacity="0.7"/>
<path d="M172.792 14.0598C173.329 14.1947 173.329 14.1947 173.878 14.3322C173.698 15.321 173.519 16.3097 173.335 17.3284C173.245 17.3284 173.155 17.3284 173.063 17.3284C173.024 17.0307 172.985 16.7329 172.944 16.4261C172.823 15.4405 172.823 15.4405 172.52 14.6046C172.61 14.4248 172.699 14.2451 172.792 14.0598Z" fill="#1E293B" fill-opacity="0.7"/>
<path d="M208.085 7.25029C208.354 7.43007 208.623 7.60986 208.9 7.79508C208.544 8.11367 208.188 8.43124 207.831 8.74839C207.632 8.92536 207.434 9.10232 207.229 9.28464C206.728 9.70173 206.728 9.70173 206.456 9.70173C206.355 9.08887 206.355 9.08887 206.456 8.33982C207.271 7.70994 207.271 7.70994 208.085 7.25029Z" fill="#1E293B" fill-opacity="0.7"/>
<path d="M116.593 1.53028C117.041 1.62017 117.489 1.71006 117.951 1.80267C117.849 2.46659 117.849 2.46659 117.679 3.16457C117.41 3.2994 117.41 3.2994 117.136 3.43695C116.712 3.09648 116.712 3.09648 116.322 2.61981C116.407 2.02398 116.407 2.02398 116.593 1.53028Z" fill="#1E293B" fill-opacity="0.7"/>
<path d="M52.7931 17.3284C53.4202 17.5082 54.0473 17.688 54.6935 17.8732C54.6039 18.1428 54.5143 18.4125 54.422 18.6903C54.1532 18.7802 53.8845 18.8701 53.6075 18.9627C52.7931 17.9413 52.7931 17.9413 52.7931 17.3284Z" fill="#1E293B" fill-opacity="0.7"/>
<path d="M205.913 9.15696C206.093 9.42662 206.272 9.69628 206.456 9.97411C206.008 10.3337 205.56 10.6932 205.099 11.0636C204.827 10.7913 204.827 10.7913 204.81 10.0933C204.816 9.87418 204.822 9.65508 204.827 9.42935C205.186 9.33946 205.544 9.24957 205.913 9.15696Z" fill="#1E293B" fill-opacity="0.7"/>
<path d="M147.272 1.80267C147.54 1.89255 147.809 1.98244 148.086 2.07505C147.996 2.52448 147.907 2.97381 147.815 3.43686C147.456 3.43686 147.098 3.43695 146.729 3.43695C146.729 3.07741 146.729 2.71787 146.729 2.34743C146.908 2.34743 147.087 2.34743 147.272 2.34743C147.272 2.16766 147.272 1.98788 147.272 1.80267Z" fill="#1E293B" fill-opacity="0.7"/>
<path d="M1.20997 16.5113C1.47875 16.6011 1.74752 16.691 2.02444 16.7836C2.02444 17.323 2.02444 17.8623 2.02444 18.4179C1.66608 18.328 1.30771 18.2382 0.938482 18.1456C1.02807 17.6062 1.11767 17.0669 1.20997 16.5113Z" fill="#1E293B" fill-opacity="0.7"/>
<path d="M142.385 8.6122C142.743 8.97175 143.101 9.33129 143.471 9.70173C143.381 9.8815 143.292 10.0613 143.199 10.2465C143.378 10.3364 143.558 10.4263 143.742 10.5189C143.473 10.6088 143.205 10.6986 142.928 10.7913C142.749 10.6115 142.569 10.4317 142.385 10.2465C142.385 9.70173 142.385 9.15696 142.385 8.6122Z" fill="#1E293B" fill-opacity="0.7"/>
<path d="M210.257 9.97411C210.618 11.0586 210.547 12.1124 210.529 13.2427C209.832 12.1942 209.836 11.4899 209.714 10.2465C209.893 10.1566 210.073 10.0667 210.257 9.97411Z" fill="#1E293B" fill-opacity="0.7"/>
<path d="M118.765 10.5189C118.855 10.5189 118.944 10.5189 119.037 10.5189C119.037 10.9683 119.037 11.4177 119.037 11.8808C118.768 11.8808 118.499 11.8808 118.222 11.8808C117.759 12.4092 117.759 12.4092 117.408 12.9703C117.611 11.4041 117.611 11.4041 118.222 10.7913C118.222 10.971 118.222 11.1508 118.222 11.336C118.401 11.336 118.581 11.336 118.765 11.336C118.765 11.0664 118.765 10.7967 118.765 10.5189Z" fill="#1E293B" fill-opacity="0.7"/>
<path d="M80.485 5.07124C80.5746 5.3409 80.6642 5.61056 80.7565 5.88839C80.3663 6.62041 80.3663 6.62041 79.9421 7.25029C79.7629 7.16041 79.5837 7.07052 79.3991 6.97791C79.5625 6.42758 79.7447 5.88264 79.9421 5.34362C80.1212 5.25374 80.3004 5.16385 80.485 5.07124Z" fill="#1E293B" fill-opacity="0.7"/>
<path d="M214.33 0.713139C214.598 0.713139 214.867 0.713139 215.144 0.713139C215.687 1.2579 215.687 1.2579 215.687 2.07505C215.239 2.07505 214.791 2.07505 214.33 2.07505C214.33 1.62108 214.33 1.16711 214.33 0.713139Z" fill="#1E293B" fill-opacity="0.7"/>
<path d="M19.3998 17.6008C19.7582 17.7806 20.1165 17.9603 20.4858 18.1456C20.1274 18.4152 19.769 18.6849 19.3998 18.9627C19.2206 18.8728 19.0414 18.7829 18.8568 18.6903C19.036 18.3308 19.2152 17.9712 19.3998 17.6008Z" fill="#1E293B" fill-opacity="0.7"/>
<path d="M27.273 17.6008C27.721 17.6008 28.1689 17.6008 28.6305 17.6008C28.6305 18.1401 28.6305 18.6794 28.6305 19.2351C28.2721 19.0553 27.9137 18.8755 27.5445 18.6903C27.6341 18.6004 27.7237 18.5105 27.816 18.4179C27.6368 18.328 27.4576 18.2382 27.273 18.1456C27.273 17.9658 27.273 17.786 27.273 17.6008Z" fill="#1E293B" fill-opacity="0.7"/>
<path d="M220.574 17.056C220.843 17.056 221.111 17.056 221.388 17.056C221.478 17.5055 221.568 17.9549 221.66 18.4179C221.212 18.4179 220.764 18.4179 220.302 18.4179C220.392 17.9685 220.482 17.5191 220.574 17.056Z" fill="#1E293B" fill-opacity="0.7"/>
<path d="M72.8833 17.3284C73.2417 17.688 73.6001 18.0475 73.9693 18.4179C73.7005 18.5977 73.4317 18.7775 73.1548 18.9627C72.886 18.5133 72.6173 18.0638 72.3403 17.6008C72.5195 17.5109 72.6987 17.421 72.8833 17.3284Z" fill="#1E293B" fill-opacity="0.7"/>
<path d="M149.443 0.985521C149.986 1.80267 149.986 1.80267 150.258 2.61981C150.168 2.79958 150.079 2.97935 149.986 3.16457C149.718 3.07469 149.449 2.9848 149.172 2.89219C149.262 2.26299 149.351 1.63379 149.443 0.985521Z" fill="#1E293B" fill-opacity="0.7"/>
<path d="M168.719 0.713139C168.898 0.803025 169.078 0.892911 169.262 0.985521C169.083 1.70461 168.904 2.42369 168.719 3.16457C168.45 2.89491 168.182 2.62526 167.905 2.34743C168.176 1.80267 168.448 1.2579 168.719 0.713139Z" fill="#1E293B" fill-opacity="0.7"/>
<path d="M29.9879 0.440758C30.3463 0.800301 30.7046 1.15984 31.0739 1.53028C30.9059 1.60332 30.7379 1.67635 30.5648 1.75159C29.9066 2.06294 29.9066 2.06294 29.4449 2.89219C29.6825 1.05362 29.6825 1.05362 29.9879 0.440758Z" fill="#1E293B" fill-opacity="0.7"/>
</svg>
