<svg width="119" height="56" viewBox="0 0 119 56" fill="none" xmlns="http://www.w3.org/2000/svg">
<path d="M111.686 32.3779C112.813 34.3587 111.991 36.7319 111.448 38.7937C111.291 38.7937 111.135 38.7937 110.973 38.7937C110.922 39.0379 110.871 39.282 110.819 39.5335C110.52 40.5826 109.911 41.1666 109.161 41.9274C108.205 42.9643 107.702 43.663 107.706 45.1352C107.766 45.8013 107.823 46.2763 108.122 46.8729C109.062 47.0139 109.71 46.876 110.513 46.3976C111.943 45.2717 112.22 43.3316 112.636 41.6452C112.401 41.6452 112.166 41.6452 111.924 41.6452C112.002 40.861 112.08 40.0769 112.161 39.269C112.632 39.269 113.102 39.269 113.587 39.269C113.616 39.1112 113.644 38.9535 113.674 38.7909C113.795 38.1561 113.927 37.5247 114.062 36.8928C114.106 36.6624 114.15 36.4321 114.196 36.1947C114.781 35.3555 115.708 35.1961 116.676 34.9918C117.522 34.9472 117.522 34.9472 118.102 34.9918C117.915 36.373 117.53 37.6932 117.151 39.0313C117.7 39.0313 118.249 39.0313 118.815 39.0313C118.462 40.0899 118.462 40.0899 118.102 41.1699C117.474 41.2484 116.847 41.3268 116.201 41.4076C116.171 41.6967 116.142 41.9859 116.112 42.2838C116.038 42.8816 115.956 43.3267 115.725 43.8877C115.378 44.7793 115.329 45.6866 115.25 46.6352C116.503 46.5369 117.193 46.3288 118.102 45.4471C118.18 45.2903 118.259 45.1335 118.339 44.9719C118.496 44.9719 118.653 44.9719 118.815 44.9719C119.01 46.563 119.01 46.563 118.528 47.3277C117.481 48.4404 116.217 49.2252 114.775 49.7243C113.843 49.7419 113.477 49.568 112.696 49.0708C112.132 48.5074 111.954 48.0853 111.686 47.3481C111.554 47.4599 111.421 47.5717 111.285 47.6869C109.935 48.7885 108.724 49.7459 106.904 49.7095C105.782 49.3438 105.017 48.8626 104.349 47.8827C104.261 47.7063 104.173 47.5299 104.082 47.3481C103.944 47.4599 103.806 47.5717 103.664 47.6869C101.075 49.7508 101.075 49.7508 99.8939 49.6946C99.0457 49.3821 98.5345 49.0458 98.0821 48.254C98.0233 48.1119 97.9645 47.9698 97.9039 47.8233C97.676 47.963 97.676 47.963 97.4435 48.1055C97.2033 48.2476 96.9632 48.3898 96.7158 48.5362C96.5491 48.6419 96.3825 48.7476 96.2108 48.8564C94.7797 49.7243 94.7797 49.7243 93.79 49.7243C92.8249 49.3652 92.3452 49.0839 91.9039 48.1352C91.8451 47.9539 91.7863 47.7725 91.7257 47.5857C91.605 47.6804 91.4843 47.775 91.36 47.8725C88.954 49.7243 88.954 49.7243 87.6713 49.7243C86.734 49.4052 86.3531 49.1171 85.7852 48.2986C85.2858 46.2449 86.3073 44.0375 86.9733 42.1204C85.9511 42.3833 85.4413 42.8753 84.8622 43.7495C84.3698 44.6957 84.1562 45.7033 83.9288 46.7392C83.8518 47.0679 83.8518 47.0679 83.7733 47.4033C83.6485 47.9386 83.5282 48.4749 83.409 49.0114C82.2327 49.2467 81.0565 49.4819 79.8446 49.7243C79.9625 48.103 80.2985 46.574 80.6858 44.9998C80.9205 44.0435 81.123 43.0952 81.2704 42.1204C80.0682 42.7387 79.1376 43.5184 78.7096 44.8205C78.5668 45.4531 78.4501 46.0844 78.3446 46.7243C78.3047 46.9446 78.2647 47.1648 78.2235 47.3917C78.1262 47.9311 78.0331 48.4708 77.9437 49.0114C77.6073 49.0919 77.2706 49.1708 76.9338 49.2491C76.7463 49.2932 76.5588 49.3373 76.3657 49.3827C75.8051 49.4867 75.8051 49.4867 74.8546 49.4867C74.7762 48.781 74.6978 48.0752 74.617 47.3481C74.3621 47.4314 74.1073 47.5147 73.8447 47.6006C72.7343 47.8782 72.7343 47.8782 72.0031 47.5857C72.0031 47.4289 72.0031 47.2721 72.0031 47.1105C71.8463 47.1105 71.6895 47.1105 71.5279 47.1105C71.4544 47.309 71.4544 47.309 71.3794 47.5115C70.8192 48.4535 69.9925 49.0428 69.0477 49.5758C67.8925 49.8576 67.0352 49.6266 66.0032 49.0708C65.3523 48.5383 65.0101 48.0947 64.6369 47.3481C64.5018 47.4599 64.3667 47.5717 64.2275 47.6869C61.6759 49.7443 61.6759 49.7443 60.2112 49.7095C59.4659 49.4153 59.0126 49.1209 58.4587 48.5362C58.1025 47.2777 58.283 46.4287 58.6963 45.2095C58.8158 44.7988 58.9346 44.3879 59.0528 43.9768C59.2684 43.2327 59.5196 42.5669 59.8844 41.8828C57.5806 43.7713 57.5806 43.7713 56.7202 46.5053C56.7009 46.803 56.6816 47.1007 56.6617 47.4075C56.6418 47.7077 56.6219 48.0079 56.6014 48.3171C56.5798 48.6608 56.5798 48.6608 56.5577 49.0114C56.3945 49.043 56.2312 49.0745 56.063 49.107C55.7418 49.17 55.7418 49.17 55.4142 49.2342C55.2019 49.2756 54.9896 49.3169 54.7709 49.3595C54.1544 49.4813 54.1544 49.4813 53.4687 49.7243C53.2334 48.5481 53.2334 48.5481 52.9934 47.3481C52.7435 47.4363 52.4935 47.5245 52.236 47.6154C51.2858 47.8335 50.9757 47.8029 50.142 47.3481C50.0213 47.4599 49.9006 47.5717 49.7762 47.6869C47.51 49.7367 47.51 49.7367 45.9836 49.7095C44.8579 49.4079 44.0905 48.9256 43.2955 48.0758C42.6256 46.9123 42.596 45.4915 42.9019 44.2024C43.5287 42.1756 44.6222 40.7477 46.34 39.5066C47.3323 38.9934 48.2161 38.9533 49.3251 38.9422C49.6342 38.9355 49.9433 38.9288 50.2617 38.9218C51.0924 39.0313 51.0924 39.0313 51.6791 39.4463C52.1055 40.074 52.1367 40.2959 52.0281 41.0363C51.984 41.3446 51.984 41.3446 51.939 41.6591C51.7367 42.7166 51.4976 43.7632 51.24 44.8085C51.0746 45.4151 51.0746 45.4151 51.0924 45.9224C51.8428 46.0057 52.1698 46.0094 52.7744 45.5344C53.3243 44.857 53.431 44.3706 53.5875 43.5164C54.2352 40.4764 54.2352 40.4764 54.8944 39.5066C55.8965 38.925 57.0909 38.9748 58.2211 39.0313C58.1427 39.7371 58.0642 40.4428 57.9835 41.1699C58.1495 41.0355 58.3155 40.901 58.4865 40.7625C58.7028 40.5882 58.9191 40.4139 59.1419 40.2343C59.3569 40.0606 59.5719 39.887 59.7935 39.708C60.7357 38.9774 61.5626 38.8943 62.7359 39.0313C63.4488 39.5066 63.4488 39.5066 63.5601 40.0514C63.5803 41.921 63.1831 43.3945 62.5437 45.1269C62.3063 45.794 62.138 46.414 62.023 47.1105C63.3408 46.3025 63.3408 46.3025 64.3992 45.2095C64.4804 44.8356 64.5482 44.4588 64.6072 44.0808C64.9664 41.9896 66.3032 40.8408 67.9283 39.5892C68.9399 38.9546 69.8883 38.993 71.0675 38.9868C71.5054 38.9817 71.5054 38.9817 71.9521 38.9766C72.716 39.0313 72.716 39.0313 73.4289 39.5066C73.6768 41.3411 73.4031 43.1904 72.9536 44.9719C72.9092 45.1505 72.8648 45.329 72.819 45.513C72.785 45.6481 72.751 45.7832 72.716 45.9224C73.599 45.9701 73.8499 45.9585 74.617 45.4471C74.8299 44.9709 74.8299 44.9709 74.965 44.4112C75.0516 44.1016 75.0516 44.1016 75.14 43.7856C75.2266 43.4612 75.2266 43.4612 75.315 43.1303C76.0841 40.2529 76.0841 40.2529 76.9932 39.269C77.7617 39.0778 77.7617 39.0778 78.5971 39.061C79.0143 39.0473 79.0143 39.0473 79.4399 39.0332C79.7579 39.0323 79.7579 39.0323 80.0823 39.0313C80.0038 39.6587 79.9254 40.286 79.8446 40.9323C79.9736 40.815 80.1025 40.6977 80.2354 40.5768C80.4904 40.3485 80.4904 40.3485 80.7506 40.1155C80.9187 39.9639 81.0869 39.8122 81.2602 39.656C82.0912 38.9934 82.8923 38.9495 83.9148 38.9645C84.3594 39.0313 84.3594 39.0313 84.8198 39.4323C85.0871 40.014 85.222 40.537 85.3099 41.1699C85.419 41.0554 85.528 40.9408 85.6404 40.8228C85.8591 40.5976 85.8591 40.5976 86.0822 40.368C86.2255 40.2191 86.3689 40.0702 86.5166 39.9169C87.4098 39.1144 88.1917 38.9057 89.3718 38.9432C89.8247 39.0313 89.8247 39.0313 90.4188 39.5066C91.2767 41.2224 90.591 43.0077 90.0624 44.7343C89.9944 44.9637 89.9264 45.1931 89.8563 45.4295C89.6896 45.9905 89.5207 46.5508 89.3495 47.1105C91.0002 46.06 91.7592 45.4408 92.2158 43.5016C92.5476 42.1439 92.9262 40.8257 93.3891 39.5066C94.6675 39.2236 95.8729 38.962 97.191 39.0313C97.1506 39.1643 97.1101 39.2972 97.0685 39.4342C96.9444 39.8448 96.8213 40.2557 96.699 40.6668C96.5442 41.1861 96.3868 41.7046 96.2275 42.2225C95.7376 43.8567 95.3687 45.4033 95.29 47.1105C96.4151 46.789 97.0338 46.1633 97.6662 45.2095C97.9354 44.6003 98.1152 43.98 98.29 43.3382C98.3911 43.0016 98.4923 42.6649 98.5935 42.3283C98.7455 41.8044 98.8821 41.2863 99.0038 40.7541C99.1365 40.2492 99.1365 40.2492 99.5672 39.5066C100.72 39.0341 101.9 39.0137 103.132 39.0313C103.042 40.1963 102.827 41.1819 102.434 42.2838C101.904 43.7909 101.662 45.2913 101.468 46.8729C102.746 46.2908 102.746 46.2908 103.844 45.4471C103.996 44.8327 104.096 44.2739 104.171 43.6501C104.593 40.8021 105.477 38.0042 106.732 35.4085C106.921 35.0175 107.077 34.611 107.231 34.2047C107.894 33.185 108.897 32.8036 110.042 32.4726C110.597 32.3573 111.12 32.3622 111.686 32.3779ZM110.26 34.2789C109.01 37.2851 109.01 37.2851 108.359 40.4571C109.121 39.7682 109.539 39.1392 109.948 38.1997C110.047 37.9767 110.146 37.7537 110.248 37.5239C110.694 36.3978 110.759 35.4961 110.735 34.2789C110.579 34.2789 110.422 34.2789 110.26 34.2789ZM47.8845 40.561C46.4291 42.0529 46.4997 43.9258 46.5062 45.9131C46.5246 46.6767 46.5246 46.6767 47.0529 47.3481C47.9291 47.2297 48.3847 47.0865 48.9538 46.3976C48.8803 46.2163 48.8068 46.0349 48.7311 45.8481C48.1527 44.3851 47.9938 42.9503 48.4489 41.4224C48.7162 40.9323 48.7162 40.9323 49.1915 40.2194C48.4674 40.1602 48.4674 40.1602 47.8845 40.561ZM69.5081 40.7095C68.2 42.2466 67.858 43.9514 67.9636 45.9224C68.0884 46.6021 68.0884 46.6021 68.4388 47.1105C68.9951 47.4079 68.9951 47.4079 69.6269 47.3481C70.1816 46.9124 70.1816 46.9124 70.5774 46.3976C70.5002 46.1991 70.5002 46.1991 70.4215 45.9966C69.843 44.4112 69.5272 43.056 70.2061 41.4373C70.4091 41.0313 70.612 40.6254 70.815 40.2194C70.0654 40.1438 70.0654 40.1438 69.5081 40.7095Z" fill="#1E293B" fill-opacity="0.7"/>
<path d="M26.068 0.0169464C26.3041 0.0233789 26.5403 0.0298114 26.7836 0.0364388C26.964 0.0447091 27.1444 0.0529795 27.3303 0.0615004C27.4136 0.282043 27.4969 0.502585 27.5828 0.729811C28.2763 1.87082 29.3069 2.08441 30.5368 2.44044C30.824 2.5103 31.1111 2.58016 31.407 2.65213C31.565 2.69106 31.7229 2.72999 31.8857 2.7701C32.3867 2.89332 32.8881 3.01462 33.3897 3.13573C34.0457 3.29574 34.7016 3.45652 35.3575 3.61747C35.5189 3.65699 35.6804 3.69651 35.8467 3.73723C37.9498 4.25448 40.0492 4.79536 42.1223 5.42284C42.3975 5.506 42.3975 5.506 42.6782 5.59084C43.0975 5.71791 43.5164 5.84617 43.935 5.97512C44.2801 6.07666 44.2801 6.07666 44.6321 6.18025C44.8395 6.24274 45.0469 6.30523 45.2605 6.36961C45.936 6.48997 46.3967 6.42748 47.0529 6.23966C47.1313 6.16124 47.2097 6.08283 47.2905 6.00204C48.9449 5.86643 48.9449 5.86643 49.7855 6.32877C50.186 7.02955 50.1595 7.25448 50.1123 8.03667C50.0498 9.61815 50.7534 10.6336 51.5677 11.9426C51.8507 12.4322 52.1329 12.9223 52.4142 13.4129C52.6247 13.7666 52.6247 13.7666 52.8394 14.1276C53.0799 14.5369 53.3132 14.9508 53.5337 15.3714C54.2573 16.6973 54.8889 16.9621 56.3201 17.4079C56.9166 18.3025 56.9415 18.725 56.7954 19.7841C56.2898 20.3636 56.0337 20.6546 55.3696 20.9722C54.8155 20.991 54.2604 20.9931 53.7063 20.9722C53.2751 21.3039 53.2751 21.3039 52.9934 21.6851C52.8366 21.6851 52.6798 21.6851 52.5182 21.6851C52.4398 21.9203 52.3614 22.1555 52.2806 22.3979C51.9353 22.7376 51.9353 22.7376 51.5083 23.0811C50.7658 23.6823 50.1029 24.3342 49.4291 25.0118C49.1311 25.2942 48.8325 25.576 48.5334 25.8574C48.2131 26.1645 47.8929 26.4718 47.5727 26.7791C47.4081 26.9318 47.2434 27.0845 47.0738 27.2418C46.112 28.1367 46.112 28.1367 45.7822 29.366C45.8094 29.5758 45.8367 29.7856 45.8648 30.0018C45.4787 30.5662 45.4787 30.5662 44.9143 30.9523C44.1717 31.0414 44.1717 31.0414 43.4886 30.9523C43.3317 30.7955 43.1749 30.6386 43.0133 30.477C41.3422 30.4131 39.6753 30.8524 38.0641 31.2456C37.0268 31.496 35.9821 31.7017 34.9342 31.9028C34.8558 32.138 34.7774 32.3733 34.6966 32.6156C34.2911 32.7834 33.8853 32.9504 33.4769 33.111C32.7404 33.4721 32.2484 34.0659 31.7263 34.68C31.6152 34.806 31.504 34.932 31.3895 35.0618C31.0635 35.4323 30.7413 35.8059 30.4194 36.18C30.0927 36.5513 29.766 36.9226 29.4392 37.2938C29.3112 37.4418 29.1831 37.5897 29.0512 37.7421C28.8793 37.9394 28.7034 38.1335 28.5184 38.3186C28.4873 38.6596 28.4638 39.0014 28.4442 39.3433C28.3657 40.1263 28.3198 40.4052 27.8353 41.0512C27.3303 41.4076 27.3303 41.4076 26.6175 41.6453C26.4275 42.2258 26.2838 42.7733 26.1571 43.368C26.0776 43.7135 25.9975 44.0588 25.9167 44.4039C25.8761 44.578 25.8356 44.7522 25.7938 44.9316C25.4941 46.1501 25.1009 47.3423 24.7165 48.5363C23.5366 48.4462 22.9622 47.8469 22.1918 47.0214C22.0784 46.9038 21.9651 46.7862 21.8483 46.665C21.4016 46.2009 20.959 45.7361 20.5368 45.2495C20.0098 44.8131 19.441 44.8967 18.7843 44.9005C18.3007 44.7343 18.3007 44.7343 17.8812 44.0586C17.1966 43.0917 16.59 42.9004 15.4938 42.5512C15.1654 42.4393 14.8371 42.3269 14.509 42.2143C14.349 42.1605 14.189 42.1067 14.0242 42.0512C13.0779 41.7165 12.1672 41.3044 11.2612 40.873C10.5699 40.6547 10.2087 40.7657 9.50871 40.9324C8.44906 41.0459 8.01332 41.0514 7.13249 40.4274C6.65725 39.7443 6.65725 39.7443 6.68695 39.0314C6.80931 38.6119 6.93308 38.1928 7.06009 37.7746C7.15592 36.922 6.92412 36.405 6.59785 35.6156C6.44163 35.2306 6.44163 35.2306 6.28225 34.8378C6.05829 34.3099 5.83061 33.7835 5.59909 33.2589C5.14318 32.1982 4.7748 31.108 4.39985 30.0167C3.90341 28.5783 3.39285 27.1482 2.85531 25.7246C2.77689 25.4894 2.69848 25.2541 2.61769 25.0118C2.18212 24.7784 2.18212 24.7784 1.6672 24.6256C0.733233 24.3154 0.733233 24.3154 0.479093 24.0613C0.37711 23.1798 0.361078 22.3274 0.479093 21.4474C1.04344 20.8088 1.04344 20.8088 1.6672 20.4969C1.82403 20.4969 1.98086 20.4969 2.14244 20.4969C2.13969 20.3297 2.13693 20.1625 2.13409 19.9901C2.11888 18.3255 2.21781 16.7152 2.42091 15.0623C2.36956 14.1276 2.03286 13.8215 1.42958 13.1307C1.4118 12.1174 1.51313 11.6486 2.17215 10.8733C3.05455 10.4129 3.56737 10.5306 4.51866 10.7545C4.51866 10.9113 4.51866 11.0681 4.51866 11.2297C4.77534 11.0989 5.03203 10.9681 5.2965 10.8334C6.57606 10.1936 7.87921 9.6075 9.18198 9.01686C11.0324 8.17441 12.8601 7.30674 14.6714 6.38353C15.6978 5.88011 16.7446 5.43152 17.7955 4.98205C19.1621 4.39179 20.4897 3.73486 21.8111 3.04993C22.5313 2.68021 23.2018 2.34184 24.0036 2.20009C23.9889 1.97955 23.9742 1.75901 23.9591 1.53178C24.0036 0.774365 24.0036 0.774365 24.2784 0.373379C24.8899 -0.0619736 25.326 -0.00923998 26.068 0.0169464ZM27.3303 2.91296C27.3303 3.06979 27.3303 3.22662 27.3303 3.3882C27.1076 3.40168 26.8849 3.41516 26.6555 3.42904C25.872 3.54533 25.872 3.54533 25.5472 4.16418C25.4642 4.3982 25.3812 4.63222 25.2957 4.87334C25.1995 5.13309 25.1033 5.39284 25.0042 5.66046C24.8618 6.06478 24.8618 6.06478 24.7165 6.47728C24.5245 6.97274 24.3314 7.46779 24.1373 7.96241C23.9341 8.497 23.7312 9.03165 23.5284 9.56636C23.4007 9.89653 23.2729 10.2267 23.145 10.5568C23.0153 10.8949 22.8857 11.2331 22.7561 11.5713C22.6947 11.7287 22.6333 11.886 22.5701 12.0482C22.2241 12.9581 21.956 13.8224 21.865 14.794C22.1669 15.195 22.1669 15.195 22.5779 15.5069C22.6465 15.6735 22.7151 15.8402 22.7858 16.0118C23.0158 16.512 23.0158 16.512 23.5743 16.5973C24.8256 16.7806 26.083 16.8267 27.3452 16.8881C27.6265 16.9063 27.9079 16.9245 28.1977 16.9433C28.6032 16.9624 28.6032 16.9624 29.0169 16.9818C29.2632 16.9952 29.5095 17.0087 29.7632 17.0225C30.5933 16.9088 30.8219 16.5913 31.3699 15.9821C31.9946 15.9478 31.9946 15.9478 32.6917 16.0267C34.3251 16.0718 35.1218 15.5418 36.4152 14.6077C37.2982 14.0003 38.2304 13.4691 39.152 12.9228C39.5645 12.6759 39.9769 12.429 40.3893 12.1821C41.1402 11.7336 41.892 11.2868 42.6448 10.8417C42.8059 10.7461 42.9669 10.6505 43.1328 10.552C43.4286 10.3765 43.7249 10.2017 44.0216 10.0278C44.8494 9.53593 45.6224 9.02214 46.34 8.37825C46.34 8.22142 46.34 8.06459 46.34 7.90301C44.2652 7.24568 42.1819 6.65702 40.0728 6.12085C39.5096 5.97612 38.9465 5.83132 38.3834 5.68645C38.1165 5.61799 37.8495 5.54953 37.5745 5.47899C33.5088 4.43512 33.5088 4.43512 31.6688 3.79847C30.2497 3.34183 28.8251 2.91296 27.3303 2.91296ZM22.3106 3.98225C22.1183 4.06819 21.9261 4.15413 21.7281 4.24268C20.3387 4.8694 18.9722 5.53353 17.6131 6.22301C15.8372 7.12263 14.0359 7.96738 12.2346 8.81474C11.2314 9.28684 10.2289 9.76065 9.22653 10.2347C9.04464 10.3204 8.86275 10.4062 8.67535 10.4945C7.51932 11.041 6.37341 11.6047 5.23152 12.1802C5.8042 12.7529 6.14422 12.8011 6.92736 12.9803C7.17578 13.0383 7.42419 13.0962 7.68014 13.156C8.07803 13.2464 8.07803 13.2464 8.48397 13.3386C9.02705 13.4651 9.57005 13.592 10.113 13.7192C10.5087 13.8116 10.5087 13.8116 10.9125 13.906C12.1114 14.1918 13.2986 14.5154 14.4876 14.8395C15.4363 15.0913 16.3911 15.2991 17.3502 15.5069C17.5855 15.5853 17.8207 15.6637 18.0631 15.7445C18.0851 15.524 18.0851 15.524 18.1076 15.299C18.3007 14.794 18.3007 14.794 18.8205 14.5119C19.5155 14.3111 20.2008 14.1947 20.9145 14.0812C21.0037 13.8282 21.0928 13.5751 21.1846 13.3145C24.049 5.18829 24.049 5.18829 24.5234 4.26443C24.768 3.83057 24.768 3.83057 24.7165 3.15058C23.8585 3.15058 23.0838 3.63457 22.3106 3.98225ZM44.1533 10.9405C43.4218 11.4359 42.6599 11.8795 41.8995 12.3287C41.5971 12.5096 41.2948 12.6906 40.9926 12.8717C40.5008 13.1658 40.0088 13.4597 39.5168 13.7535C38.3823 14.432 37.2509 15.1156 36.1223 15.8039C35.8626 15.962 35.6028 16.12 35.3352 16.2829C34.692 16.6662 34.692 16.6662 34.2213 17.1702C34.4502 17.1834 34.679 17.1966 34.9148 17.2101C35.77 17.2594 36.6251 17.3097 37.4802 17.3602C37.8492 17.3819 38.2181 17.4033 38.5871 17.4245C39.1198 17.4551 39.6524 17.4866 40.1851 17.5183C40.4295 17.5321 40.4295 17.5321 40.6788 17.5461C41.705 17.6082 42.7098 17.7323 43.7262 17.8831C44.4529 17.9476 45.1806 17.9817 45.9093 18.0168C46.2145 18.0319 46.2145 18.0319 46.5259 18.0473C48.7609 18.1484 50.9944 18.1421 53.2311 18.1207C53.3095 17.8855 53.3879 17.6502 53.4687 17.4079C53.3903 17.251 53.3118 17.0942 53.2311 16.9326C53.0742 16.9326 52.9174 16.9326 52.7558 16.9326C52.7411 16.7758 52.7264 16.619 52.7113 16.4574C52.4902 15.6411 52.1362 15.0794 51.6772 14.3763C51.3052 13.8053 50.9525 13.2253 50.6024 12.6406C50.4811 12.4418 50.3598 12.243 50.2348 12.0382C49.9044 11.4673 49.9044 11.4673 49.6779 10.9633C49.3983 10.352 49.0984 9.8971 48.5287 9.53016C46.7788 8.89064 45.5406 9.9757 44.1533 10.9405ZM3.80579 14.3188C3.4947 15.1571 3.43144 16.047 3.33055 16.9326C3.31175 17.0918 3.29295 17.251 3.27358 17.4149C3.21614 17.927 3.16789 18.4391 3.12263 18.9524C3.10511 19.1174 3.0876 19.2824 3.06955 19.4524C3.02003 19.9813 3.02003 19.9813 3.09293 20.7346C3.48698 21.2314 3.48698 21.2314 4.04341 21.4474C5.12127 21.406 6.0186 21.1133 7.01461 20.7179C7.74846 20.4445 8.49217 20.22 9.24138 19.992C12.0502 19.1327 14.816 18.1408 17.5878 17.1702C17.5878 17.0134 17.5878 16.8566 17.5878 16.695C15.2907 16.0075 12.9756 15.4129 10.6476 14.8403C10.4154 14.7831 10.1833 14.7258 9.94404 14.6669C9.60065 14.5823 9.60065 14.5823 9.25032 14.496C8.33901 14.2627 7.43592 14.0028 6.53351 13.7373C5.4002 13.4845 4.64831 13.4613 3.80579 14.3188ZM22.8155 17.6455C22.7152 17.8361 22.6149 18.0268 22.5115 18.2232C22.1026 18.8336 22.1026 18.8336 21.2635 19.0944C20.4119 19.4494 20.4119 19.4494 20.2119 20.0977C20.0516 20.8186 19.9402 21.5319 19.8452 22.2643C19.8054 22.5137 19.7656 22.7632 19.7246 23.0203C19.4488 24.5095 19.4488 24.5095 19.7264 25.9622C19.9617 26.0407 20.1969 26.1191 20.4393 26.1999C20.503 26.4694 20.5667 26.739 20.6324 27.0167C20.7255 27.296 20.8186 27.5754 20.9145 27.8632C22.0773 28.3686 23.3646 28.5999 24.5977 28.888C24.8125 28.9386 25.0273 28.9892 25.2486 29.0413C25.9423 29.2041 26.6362 29.3656 27.3303 29.5266C27.573 29.5829 27.8157 29.6393 28.0658 29.6974C28.7858 29.8641 29.506 30.0297 30.2263 30.1949C30.4521 30.2469 30.6778 30.2989 30.9104 30.3525C31.1193 30.4 31.3282 30.4476 31.5435 30.4965C31.8206 30.5599 31.8206 30.5599 32.1033 30.6245C32.5584 30.7301 32.5584 30.7301 33.0332 30.7147C32.9548 29.1464 32.8764 27.5781 32.7956 25.9622C32.3251 25.727 31.8546 25.4918 31.3699 25.2494C30.7443 24.4532 30.857 23.6142 30.8946 22.6355C31.1225 22.5253 31.1225 22.5253 31.355 22.4128C31.8299 22.1996 31.8299 22.1996 32.0827 21.9227C32.1031 21.1114 32.0393 20.3349 31.8451 19.5465C31.2813 19.0692 31.2813 19.0692 30.657 18.8336C30.5394 18.4807 30.5394 18.4807 30.4194 18.1207C29.6259 17.8006 28.7663 17.8348 27.9207 17.8079C27.6235 17.798 27.3264 17.788 27.0203 17.7778C26.7109 17.7684 26.4016 17.7591 26.0828 17.7494C25.7698 17.7392 25.4567 17.7289 25.1342 17.7184C24.3613 17.6932 23.5884 17.6689 22.8155 17.6455ZM16.2081 18.6372C15.4253 18.9322 14.6308 19.1868 13.8342 19.4416C13.6643 19.4963 13.4944 19.5511 13.3194 19.6075C12.782 19.7806 12.2443 19.9532 11.7067 20.1257C11.3503 20.2403 10.9938 20.3549 10.6374 20.4696C10.463 20.5257 10.2886 20.5817 10.1089 20.6395C9.76291 20.7511 9.417 20.863 9.07121 20.9752C8.29586 21.2269 7.52025 21.474 6.74021 21.711C6.48555 21.79 6.23089 21.8691 5.96852 21.9505C5.74878 22.0166 5.52904 22.0828 5.30265 22.1509C4.6782 22.4332 4.43421 22.6988 4.07312 23.2741C3.65503 24.4308 3.89017 25.3055 4.28104 26.4375C4.36895 26.6988 4.45686 26.96 4.54743 27.2292C5.05569 28.6907 5.60733 30.1319 6.19036 31.5649C6.61 32.6183 6.98693 33.6872 7.37011 34.7542C7.54814 35.2444 7.72635 35.7345 7.90476 36.2245C8.04338 36.6057 8.18199 36.9869 8.3206 37.3681C8.84377 37.51 8.84377 37.51 9.50871 37.3681C10.1299 36.8747 10.6357 36.2855 11.1572 35.6899C11.2986 35.5338 11.4399 35.3777 11.5856 35.2169C12.0068 34.7497 12.4215 34.2774 12.8354 33.8038C13.0445 33.5699 13.0445 33.5699 13.2579 33.3314C13.3883 33.1837 13.5188 33.036 13.6532 32.8839C13.8289 32.6861 13.8289 32.6861 14.0083 32.4844C14.3081 32.1477 14.3081 32.1477 14.2611 31.6652C14.418 31.6652 14.5748 31.6652 14.7364 31.6652C15.5624 30.8915 16.344 30.051 16.4666 28.8972C16.4422 28.4917 16.4145 28.0863 16.383 27.6813C16.3997 27.1503 16.3997 27.1503 16.9344 26.4375C17.5878 25.9622 17.5878 25.9622 18.0872 25.8063C18.6288 25.4984 18.6288 25.4984 18.7184 24.6925C18.7516 24.3636 18.7805 24.0344 18.8056 23.7048C18.8396 23.3607 18.8743 23.0167 18.9096 22.6727C18.9261 22.5045 18.9427 22.3363 18.9597 22.1631C19.0683 21.1992 19.2752 20.2541 19.4888 19.3088C19.3418 19.2451 19.1948 19.1814 19.0433 19.1158C18.5383 18.8336 18.5383 18.8336 18.0631 18.1207C17.3855 18.1207 16.8327 18.3972 16.2081 18.6372ZM33.9837 18.3584C33.9837 18.5936 33.9837 18.8288 33.9837 19.0712C33.6701 19.1496 33.3564 19.228 33.0332 19.3088C33.0363 20.1223 33.0737 20.8938 33.2709 21.6851C33.9616 22.1984 33.9616 22.1984 34.6966 22.6355C34.821 23.0792 34.821 23.0792 34.8896 23.586C35.0273 24.3069 35.0273 24.3069 35.532 24.8038C35.8798 24.9525 36.2327 25.0896 36.5883 25.2187C37.545 25.5741 38.4542 26.0131 39.3748 26.4523C39.5469 26.5334 39.7191 26.6144 39.8965 26.6978C40.1468 26.8157 40.1468 26.8157 40.4023 26.9359C40.5637 27.0117 40.7252 27.0874 40.8915 27.1655C41.3113 27.3692 41.7221 27.5912 42.1315 27.8149C43.0332 28.2151 43.5345 27.9499 44.4391 27.6256C44.6743 27.6256 44.9096 27.6256 45.1519 27.6256C45.5501 27.3223 45.5501 27.3223 45.9344 26.9044C46.0832 26.752 46.232 26.5997 46.3853 26.4428C46.6202 26.1976 46.6202 26.1976 46.8598 25.9474C47.183 25.6165 47.5067 25.2861 47.8307 24.9561C47.985 24.7988 48.1393 24.6415 48.2983 24.4794C48.7617 24.0158 49.241 23.5792 49.741 23.1553C50.496 22.5137 51.2136 21.8411 51.9241 21.1504C52.1275 20.9531 52.3309 20.7559 52.5405 20.5526C53.0705 20.0476 53.0705 20.0476 52.9934 19.3088C51.7459 19.2342 50.4984 19.16 49.2509 19.0861C48.9746 19.0696 48.9746 19.0696 48.6928 19.0529C46.3253 18.9124 43.958 18.7752 41.5883 18.6773C40.8338 18.6434 40.1013 18.5866 39.3543 18.4716C38.2762 18.3289 37.223 18.3328 36.1372 18.3435C35.9293 18.3446 35.7215 18.3456 35.5074 18.3468C34.9995 18.3495 34.4916 18.3538 33.9837 18.3584ZM33.7461 25.9622C33.7797 26.5366 33.8145 27.1108 33.8501 27.685C33.8641 27.9281 33.8641 27.9281 33.8784 28.176C33.9283 28.9668 33.9883 29.7173 34.2213 30.477C35.1494 30.8233 35.9845 30.6217 36.9243 30.4325C37.09 30.4004 37.2557 30.3683 37.4264 30.3352C39.0793 30.0029 40.6892 29.5473 42.3005 29.0513C41.6328 28.5172 40.9891 28.1453 40.2064 27.8038C39.3983 27.4472 38.5944 27.0854 37.7977 26.7039C37.6382 26.6278 37.4787 26.5518 37.3144 26.4735C36.9989 26.3227 36.6839 26.1709 36.3694 26.0182C35.0393 25.3767 35.0393 25.3767 33.7461 25.9622ZM20.6769 29.0513C20.3511 29.7492 20.3511 29.7492 20.7131 30.3137C20.8531 30.5244 20.9931 30.7352 21.1373 30.9523C21.2914 31.1851 21.4455 31.4179 21.6042 31.6577C22.23 32.5621 22.8768 33.4489 23.5349 34.33C24.1577 35.2094 24.6867 36.1365 25.2075 37.0794C25.8281 37.7903 26.4242 37.8902 27.3303 38.0809C28.7705 36.5401 30.1698 34.9974 31.4516 33.3192C31.8451 32.8533 31.8451 32.8533 32.558 32.378C32.4404 32.0252 32.4404 32.0252 32.3204 31.6652C31.651 31.4702 31.0126 31.3201 30.3303 31.1899C29.9351 31.1087 29.54 31.027 29.145 30.9449C28.9536 30.9057 28.7623 30.8665 28.5652 30.8261C27.9433 30.6933 27.3329 30.5327 26.7214 30.3582C25.5843 30.0372 24.44 29.7553 23.2908 29.482C23.1141 29.4394 22.9375 29.3969 22.7556 29.353C22.0463 29.1859 21.4083 29.0513 20.6769 29.0513ZM17.3502 30.0018C16.0486 31.414 14.7482 32.8253 13.4907 34.2771C12.8089 35.0559 12.1103 35.8195 11.4134 36.5847C11.2553 36.7648 11.0973 36.9449 10.9344 37.1305C10.7862 37.2812 10.6379 37.4319 10.4852 37.5871C10.1466 38.0955 10.1466 38.0955 10.3639 38.7878C10.6312 39.537 10.6312 39.537 11.2592 39.8573C11.4896 39.9364 11.72 40.0155 11.9573 40.097C12.2088 40.1868 12.4603 40.2765 12.7194 40.369C12.9831 40.4569 13.2468 40.5448 13.5186 40.6354C14.0379 40.817 14.557 40.9989 15.0761 41.1812C15.307 41.2592 15.5379 41.3372 15.7759 41.4176C16.3997 41.6453 16.3997 41.6453 16.9169 41.9175C17.5191 42.1996 17.9133 42.0565 18.5383 41.8829C18.579 37.9971 18.4527 34.122 18.3007 30.2394C17.987 30.161 17.6734 30.0826 17.3502 30.0018ZM19.2512 30.2394C19.2796 31.4437 19.3091 32.648 19.3397 33.8522C19.3499 34.2607 19.3598 34.6693 19.3694 35.0779C19.4004 36.3961 19.4401 37.7137 19.4888 39.0314C19.498 39.3124 19.5073 39.5934 19.5168 39.8829C19.5299 40.1175 19.543 40.352 19.5566 40.5936C19.5664 40.7895 19.5762 40.9855 19.5863 41.1874C19.6892 41.6821 19.6892 41.6821 20.1518 41.9708C21.1305 42.2498 21.8859 41.6534 22.7413 41.1997C22.9276 41.1115 23.114 41.0233 23.3061 40.9324C24.3017 40.4197 24.3017 40.4197 24.9217 39.5258C25.0768 38.6695 25.0137 38.1996 24.6199 37.4154C24.4558 37.2185 24.2916 37.0215 24.1224 36.8186C23.4355 35.954 22.801 35.1006 22.2215 34.1602C21.3753 32.8091 20.4799 31.4891 19.4888 30.2394C19.4104 30.2394 19.332 30.2394 19.2512 30.2394ZM22.9195 41.9423C22.7309 42.0363 22.5424 42.1304 22.3482 42.2272C22.1688 42.3207 21.9895 42.4141 21.8047 42.5103C21.6397 42.595 21.4748 42.6796 21.3048 42.7668C20.8175 43.1466 20.763 43.4215 20.6769 44.0215C20.8484 44.1538 21.02 44.2861 21.1967 44.4225C21.8593 44.9672 22.4471 45.554 23.0531 46.1601C23.3673 46.4012 23.6837 46.6396 24.0036 46.8729C24.2427 46.0169 24.4798 45.1603 24.7165 44.3036C24.8185 43.9386 24.8185 43.9386 24.9225 43.5662C24.9869 43.3326 25.0512 43.0991 25.1175 42.8584C25.1772 42.6431 25.2369 42.4279 25.2985 42.2061C25.4563 41.6255 25.4563 41.6255 25.4293 40.9324C24.5218 40.9324 23.7102 41.5305 22.9195 41.9423Z" fill="#1E293B" fill-opacity="0.7"/>
<path d="M41.35 35.9423C41.6939 36.8624 41.4793 37.5637 41.246 38.4968C41.1436 38.914 41.1436 38.914 41.039 39.3396C40.9848 39.5515 40.9306 39.7635 40.8747 39.9819C41.0408 39.9133 41.2068 39.8447 41.3778 39.774C41.5941 39.6858 41.8103 39.5975 42.0331 39.5067C42.2482 39.4184 42.4632 39.3302 42.6847 39.2393C43.251 39.0314 43.251 39.0314 43.7262 39.0314C43.681 41.4529 43.681 41.4529 42.9836 42.1502C42.2021 42.3881 41.4497 42.5161 40.6371 42.5957C40.6273 42.8947 40.6175 43.1937 40.6074 43.5017C40.4039 45.2938 39.4993 46.9468 38.1866 48.1798C36.594 49.3883 34.7563 49.7144 32.7956 49.4868C31.7217 49.2615 30.9232 48.8969 30.1669 48.0907C29.7065 47.3482 29.7065 47.3482 29.6471 46.7541C30.097 45.8544 30.7418 45.2447 31.6075 44.7343C32.3055 44.764 32.3055 44.764 32.7956 44.972C32.8131 45.1911 32.8131 45.1911 32.8309 45.4147C32.8487 45.6068 32.8664 45.7988 32.8847 45.9967C32.9013 46.1869 32.9178 46.3771 32.9348 46.5731C33.0084 47.1752 33.0084 47.1752 33.5085 47.8234C34.201 47.982 34.201 47.982 34.9342 47.8234C36.1155 46.8506 36.4111 45.1982 36.8352 43.7838C36.5754 43.9407 36.3157 44.0975 36.0481 44.2591C35.4244 44.6356 35.2133 44.7343 34.459 44.7343C34.5249 43.9781 34.6383 43.2977 34.9342 42.5957C35.364 42.2894 35.364 42.2894 35.8698 42.0462C36.5743 41.682 36.7915 41.5274 37.0682 40.769C37.1708 40.2714 37.2691 39.7729 37.3633 39.2737C37.6953 37.984 38.5263 37.1027 39.449 36.18C40.08 36.0457 40.7064 36.0046 41.35 35.9423Z" fill="#1E293B" fill-opacity="0.7"/>
<path d="M41.2312 32.1106C41.6603 32.1138 41.6603 32.1138 42.0981 32.1171C42.7993 32.1227 43.5003 32.1305 44.2015 32.1403C44.0475 33.1953 43.8479 34.0733 43.3011 34.9974C42.0645 35.7586 40.7825 35.6246 39.3599 35.6155C36.8087 35.5685 36.8087 35.5685 34.459 36.4175C34.1454 36.6802 34.1454 36.6802 34.1619 37.3383C34.1556 38.0687 34.1556 38.0687 34.5332 38.5116C34.9591 38.84 34.9591 38.84 35.6471 39.0314C35.5663 39.7583 35.4434 40.1729 35.0085 40.769C34.459 41.1699 34.459 41.1699 33.7461 41.2888C33.0332 41.1699 33.0332 41.1699 32.4837 40.8135C31.9321 39.9963 31.7801 39.2854 31.8451 38.3185C32.3502 36.1571 33.727 34.374 35.4095 32.972C37.3032 32.0251 39.1567 32.081 41.2312 32.1106Z" fill="#1E293B" fill-opacity="0.7"/>
<path d="M57.9835 51.1501C58.3756 51.1501 58.7677 51.1501 59.1717 51.1501C59.1717 51.6206 59.1717 52.0911 59.1717 52.5758C59.4853 52.2622 59.799 51.9485 60.1221 51.6254C60.3574 51.7038 60.5926 51.7822 60.835 51.863C60.835 52.0198 60.835 52.1766 60.835 52.3382C61.1815 52.7244 61.1815 52.7244 61.5479 53.0511C61.6508 52.9139 61.7537 52.7766 61.8597 52.6352C61.9921 52.4588 62.1244 52.2824 62.2607 52.1006C62.3784 51.9242 62.496 51.7477 62.6172 51.5659C62.7348 51.4287 62.8524 51.2915 62.9736 51.1501C63.2088 51.1501 63.4441 51.1501 63.6865 51.1501C63.608 51.5422 63.5296 51.9343 63.4488 52.3382C63.7625 52.5735 64.0762 52.8087 64.3993 53.0511C64.4777 52.8943 64.5562 52.7374 64.6369 52.5758C65.6563 52.5758 66.6757 52.5758 67.726 52.5758C67.8436 52.9287 67.8436 52.9287 67.9636 53.2887C68.0813 53.1123 68.0813 53.1123 68.2013 52.9323C68.8472 52.4478 69.3389 52.4586 70.131 52.4951C70.5775 52.5758 70.5775 52.5758 71.0676 52.9323C71.4097 53.8445 71.2524 54.4749 71.0527 55.4273C70.5775 55.9025 70.5775 55.9025 69.6994 55.949C69.3485 55.9458 68.9976 55.9401 68.6468 55.9322C68.4676 55.9301 68.2884 55.928 68.1038 55.9257C67.661 55.9201 67.2183 55.9116 66.7755 55.9025C66.7755 55.1184 66.7755 54.3342 66.7755 53.5263C66.4619 53.5263 66.1482 53.5263 65.8251 53.5263C65.8251 54.3105 65.8251 55.0946 65.8251 55.9025C65.433 55.9025 65.0409 55.9025 64.6369 55.9025C64.5585 55.7457 64.4801 55.5889 64.3993 55.4273C64.2425 55.5841 64.0857 55.741 63.9241 55.9025C63.4099 55.949 63.4099 55.949 62.8251 55.9322C62.6309 55.928 62.4367 55.9237 62.2366 55.9192C62.0877 55.9137 61.9389 55.9082 61.7855 55.9025C61.7071 55.7457 61.6287 55.5889 61.5479 55.4273C61.4695 55.5841 61.391 55.741 61.3102 55.9025C60.2908 55.9025 59.2715 55.9025 58.2212 55.9025C57.9483 55.3568 57.9561 55.0511 57.9603 54.4453C57.9611 54.2538 57.9619 54.0624 57.9627 53.8651C57.9647 53.6651 57.9666 53.4651 57.9687 53.259C57.9698 53.0571 57.9708 52.8553 57.9719 52.6473C57.9747 52.1482 57.979 51.6492 57.9835 51.1501ZM59.1717 53.5263C59.132 54.2194 59.132 54.2194 59.1717 54.9521C59.3285 55.1089 59.4853 55.2657 59.6469 55.4273C59.7253 54.8 59.8037 54.1727 59.8845 53.5263C59.6493 53.5263 59.414 53.5263 59.1717 53.5263ZM60.5974 53.5263C60.5974 53.9968 60.5974 54.4673 60.5974 54.9521C60.8326 54.9521 61.0679 54.9521 61.3102 54.9521C61.3102 54.4816 61.3102 54.0111 61.3102 53.5263C61.075 53.5263 60.8398 53.5263 60.5974 53.5263ZM62.4984 53.5263C62.4199 53.9184 62.3415 54.3105 62.2607 54.7144C62.8488 54.8321 62.8488 54.8321 63.4488 54.9521C63.6891 54.2275 63.6891 54.2275 63.4488 53.5263C63.1352 53.5263 62.8215 53.5263 62.4984 53.5263ZM69.1518 53.5263C69.0733 53.9184 68.9949 54.3105 68.9141 54.7144C69.5022 54.8321 69.5022 54.8321 70.1022 54.9521C70.1022 54.4816 70.1022 54.0111 70.1022 53.5263C69.7886 53.5263 69.4749 53.5263 69.1518 53.5263ZM64.6369 54.0016C64.8746 54.4768 64.8746 54.4768 64.8746 54.4768L64.6369 54.0016Z" fill="#1E293B" fill-opacity="0.7"/>
<path d="M88.8743 51.1501C88.8743 51.4638 88.8743 51.7774 88.8743 52.1006C88.639 52.1006 88.4038 52.1006 88.1614 52.1006C88.1614 52.2574 88.1614 52.4143 88.1614 52.5758C88.7103 52.5758 89.2592 52.5758 89.8248 52.5758C89.8248 53.36 89.8248 54.1441 89.8248 54.9521C90.06 54.9521 90.2953 54.9521 90.5376 54.9521C90.616 54.1679 90.6945 53.3838 90.7752 52.5758C91.0889 52.5758 91.4026 52.5758 91.7257 52.5758C91.7257 53.6737 91.7257 54.7715 91.7257 55.9025C90.7848 55.9025 89.8438 55.9025 88.8743 55.9025C88.7567 54.7263 88.7567 54.7263 88.6367 53.5263C88.4798 53.5263 88.323 53.5263 88.1614 53.5263C88.1614 54.3105 88.1614 55.0946 88.1614 55.9025C86.8284 55.9025 85.4953 55.9025 84.1218 55.9025C83.7399 55.1387 83.8706 54.3732 83.8842 53.5263C83.7274 53.5263 83.5706 53.5263 83.409 53.5263C83.409 53.2127 83.409 52.899 83.409 52.5758C83.5658 52.5758 83.7226 52.5758 83.8842 52.5758C83.8842 52.3406 83.8842 52.1053 83.8842 51.863C84.1979 51.7846 84.5115 51.7061 84.8347 51.6254C84.9131 51.8606 84.9915 52.0958 85.0723 52.3382C85.7781 52.4558 85.7781 52.4558 86.4981 52.5758C86.4981 53.36 86.4981 54.1441 86.4981 54.9521C86.6549 54.9521 86.8117 54.9521 86.9733 54.9521C87.0517 54.4816 87.1301 54.0111 87.2109 53.5263C87.0541 53.5263 86.8973 53.5263 86.7357 53.5263C86.7357 53.2127 86.7357 52.899 86.7357 52.5758C86.8925 52.5758 87.0493 52.5758 87.2109 52.5758C87.2403 52.3847 87.2697 52.1936 87.3 51.9966C87.3735 51.6952 87.3735 51.6952 87.4485 51.3877C87.9238 51.1501 87.9238 51.1501 88.8743 51.1501ZM84.8347 53.5263C84.8347 53.9968 84.8347 54.4673 84.8347 54.9521C85.07 54.9521 85.3052 54.9521 85.5476 54.9521C85.5476 54.4816 85.5476 54.0111 85.5476 53.5263C85.3123 53.5263 85.0771 53.5263 84.8347 53.5263Z" fill="#1E293B" fill-opacity="0.7"/>
<path d="M96.4587 52.483C96.7151 52.494 96.9715 52.5051 97.2356 52.5164C97.4939 52.525 97.7521 52.5336 98.0181 52.5424C98.2157 52.5535 98.4133 52.5645 98.6168 52.5758C98.6168 53.36 98.6168 54.1441 98.6168 54.9521C98.6805 54.6923 98.7442 54.4326 98.8099 54.1649C99.2091 52.9251 99.2091 52.9251 99.8049 52.5758C100.609 52.4897 101.199 52.437 101.929 52.8135C102.329 53.5661 102.311 54.3559 102.181 55.1897C101.946 55.5425 101.946 55.5425 101.706 55.9025C101.092 55.9948 101.092 55.9948 100.325 55.9972C99.9121 55.9986 99.9121 55.9986 99.4912 56C99.0584 55.9959 99.0584 55.9959 98.6168 55.9916C98.3283 55.9944 98.0397 55.9972 97.7424 56C97.4674 55.9991 97.1923 55.9982 96.9089 55.9972C96.6556 55.9964 96.4023 55.9956 96.1413 55.9948C95.9388 55.9643 95.7363 55.9339 95.5277 55.9025C94.94 55.0209 94.961 54.5693 95.0525 53.5263C95.4399 52.7716 95.6038 52.5975 96.4587 52.483ZM96.003 53.7639C95.9933 54.1599 95.9928 54.5561 96.003 54.9521C96.5519 54.9521 97.1008 54.9521 97.6663 54.9521C97.6663 54.4816 97.6663 54.0111 97.6663 53.5263C96.7619 53.4221 96.7619 53.4221 96.003 53.7639ZM100.043 53.5263C100.043 53.9968 100.043 54.4673 100.043 54.9521C100.435 54.9521 100.827 54.9521 101.231 54.9521C101.231 54.56 101.231 54.1679 101.231 53.7639C100.839 53.6855 100.446 53.6071 100.043 53.5263Z" fill="#1E293B" fill-opacity="0.7"/>
<path d="M45.8648 51.3878C45.8648 51.7799 45.8648 52.1719 45.8648 52.5759C45.159 52.5759 44.4533 52.5759 43.7262 52.5759C43.7213 52.8846 43.7164 53.1934 43.7113 53.5115C43.7086 53.6852 43.7058 53.8589 43.703 54.0378C43.6773 54.481 43.6773 54.481 43.9638 54.7145C44.5984 54.748 45.229 54.7246 45.8648 54.7145C45.8893 54.4498 45.9138 54.1852 45.939 53.9125C45.9929 53.6282 46.0468 53.344 46.1024 53.0511C46.9804 52.4658 47.4409 52.4832 48.4786 52.5759C48.939 52.8135 48.939 52.8135 49.1915 53.2887C49.3287 54.3509 49.3207 54.9958 48.7162 55.9026C48.2187 55.9889 48.2187 55.9889 47.6469 55.9768C47.4582 55.9759 47.2695 55.975 47.0751 55.9741C46.5776 55.9026 46.5776 55.9026 46.1024 55.4273C46.024 55.5842 45.9455 55.741 45.8648 55.9026C45.0022 55.9026 44.1396 55.9026 43.2509 55.9026C43.2509 55.7458 43.2509 55.5889 43.2509 55.4273C43.0941 55.4273 42.9373 55.4273 42.7757 55.4273C42.3303 54.5365 42.3816 53.5437 42.5381 52.5759C43.3166 51.2745 44.5041 51.2705 45.8648 51.3878ZM47.0529 53.5264C46.8126 54.2509 46.8126 54.2509 47.0529 54.9521C47.4449 54.8737 47.837 54.7953 48.241 54.7145C48.1626 54.3224 48.0841 53.9303 48.0033 53.5264C47.6897 53.5264 47.376 53.5264 47.0529 53.5264Z" fill="#1E293B" fill-opacity="0.7"/>
<path d="M74.617 51.3877C75.2051 51.5054 75.2051 51.5054 75.8051 51.6254C76.2358 52.3531 76.2358 52.3531 76.518 53.0511C76.5927 52.931 76.6674 52.8109 76.7444 52.6872C76.897 52.4557 76.897 52.4557 77.0526 52.2194C77.1519 52.065 77.2511 51.9106 77.3533 51.7516C77.4697 51.6315 77.5861 51.5114 77.7061 51.3877C78.0197 51.3877 78.3334 51.3877 78.6566 51.3877C78.6566 52.8776 78.6566 54.3675 78.6566 55.9025C78.3429 55.9025 78.0292 55.9025 77.7061 55.9025C77.6277 55.2752 77.5492 54.6479 77.4684 54.0016C77.3116 54.3152 77.1548 54.6289 76.9932 54.9521C76.5328 54.8629 76.5328 54.8629 76.0427 54.7144C75.9643 54.5576 75.8859 54.4008 75.8051 54.2392C75.7267 54.7881 75.6483 55.337 75.5675 55.9025C75.2538 55.9025 74.9402 55.9025 74.617 55.9025C74.617 54.4127 74.617 52.9228 74.617 51.3877Z" fill="#1E293B" fill-opacity="0.7"/>
<path d="M105.983 52.5758C106.815 52.5016 106.815 52.5016 107.646 52.5758C108.122 53.0511 108.122 53.0511 108.168 53.7212C108.16 54.11 108.16 54.11 108.151 54.5065C108.147 54.7669 108.143 55.0272 108.138 55.2955C108.133 55.4958 108.127 55.6961 108.122 55.9025C107.259 55.9025 106.396 55.9025 105.508 55.9025C105.508 53.2887 105.508 53.2887 105.983 52.5758ZM105.983 53.5263C105.983 53.6047 105.983 53.6832 105.983 53.7639C106.375 53.7639 106.767 53.7639 107.171 53.7639C107.171 53.6855 107.171 53.6071 107.171 53.5263C106.779 53.5263 106.387 53.5263 105.983 53.5263ZM106.696 54.4768C106.617 54.6336 106.539 54.7905 106.458 54.9521C106.694 54.9521 106.929 54.9521 107.171 54.9521C107.171 54.7952 107.171 54.6384 107.171 54.4768C107.014 54.4768 106.857 54.4768 106.696 54.4768Z" fill="#1E293B" fill-opacity="0.7"/>
<path d="M102.419 52.5758C102.801 52.566 103.183 52.5562 103.577 52.5461C103.792 52.5406 104.007 52.5351 104.229 52.5294C104.795 52.5758 104.795 52.5758 105.27 53.0511C105.317 53.7212 105.317 53.7212 105.3 54.5065C105.296 54.7669 105.291 55.0272 105.287 55.2955C105.281 55.4958 105.276 55.6961 105.27 55.9025C104.956 55.9025 104.643 55.9025 104.32 55.9025C104.32 55.1184 104.32 54.3342 104.32 53.5263C104.084 53.6047 103.849 53.6832 103.607 53.7639C103.607 54.4697 103.607 55.1754 103.607 55.9025C103.215 55.9025 102.823 55.9025 102.419 55.9025C102.419 54.8047 102.419 53.7069 102.419 52.5758Z" fill="#1E293B" fill-opacity="0.7"/>
<path d="M79.1318 52.5758C79.4455 52.5758 79.7591 52.5758 80.0823 52.5758C80.0823 53.36 80.0823 54.1441 80.0823 54.9521C80.3175 54.8736 80.5528 54.7952 80.7951 54.7144C80.8736 54.0087 80.952 53.303 81.0328 52.5758C81.3464 52.5758 81.6601 52.5758 81.9833 52.5758C81.9833 53.6737 81.9833 54.7715 81.9833 55.9025C79.9644 55.9257 79.9644 55.9257 79.3694 55.9025C79.1318 55.6649 79.1318 55.6649 79.1086 54.966C79.1113 54.682 79.1141 54.3981 79.1169 54.1055C79.1191 53.821 79.1212 53.5364 79.1234 53.2432C79.1262 53.023 79.129 52.8027 79.1318 52.5758Z" fill="#1E293B" fill-opacity="0.7"/>
<path d="M54.8944 52.5758C55.2081 52.5758 55.5218 52.5758 55.8449 52.5758C55.8449 53.36 55.8449 54.1441 55.8449 54.9521C56.1586 54.9521 56.4722 54.9521 56.7954 54.9521C56.7954 54.1679 56.7954 53.3838 56.7954 52.5758C57.1091 52.5758 57.4227 52.5758 57.7459 52.5758C57.7459 53.6737 57.7459 54.7715 57.7459 55.9025C56.8833 55.9025 56.0208 55.9025 55.1321 55.9025C54.8036 55.2456 54.8718 54.7035 54.8796 53.9719C54.8817 53.7115 54.8839 53.4511 54.8861 53.1829C54.8888 52.9826 54.8916 52.7822 54.8944 52.5758Z" fill="#1E293B" fill-opacity="0.7"/>
<path d="M91.9634 52.5758C92.3456 52.5611 92.7279 52.5464 93.1218 52.5313C93.3368 52.523 93.5518 52.5147 93.7734 52.5062C94.0536 52.5407 94.0536 52.5407 94.3396 52.5758C94.8815 53.3887 94.8669 53.6884 94.8445 54.6402C94.8402 54.8763 94.8359 55.1125 94.8315 55.3558C94.8233 55.6264 94.8233 55.6264 94.8148 55.9025C94.5012 55.9025 94.1875 55.9025 93.8643 55.9025C93.8643 55.1184 93.8643 54.3342 93.8643 53.5263C93.6291 53.6047 93.3938 53.6832 93.1515 53.7639C93.073 54.4697 92.9946 55.1754 92.9138 55.9025C92.6002 55.9025 92.2865 55.9025 91.9634 55.9025C91.9634 54.8047 91.9634 53.7069 91.9634 52.5758Z" fill="#1E293B" fill-opacity="0.7"/>
<path d="M49.4291 52.5758C49.8114 52.566 50.1937 52.5562 50.5875 52.5461C50.8025 52.5406 51.0176 52.5351 51.2391 52.5294C51.8053 52.5758 51.8053 52.5758 52.2806 53.0511C52.327 53.7212 52.327 53.7212 52.3103 54.5065C52.306 54.7669 52.3017 55.0272 52.2973 55.2955C52.2918 55.4958 52.2863 55.6961 52.2806 55.9025C51.9669 55.9025 51.6533 55.9025 51.3301 55.9025C51.3301 55.1184 51.3301 54.3342 51.3301 53.5263C51.0164 53.5263 50.7028 53.5263 50.3796 53.5263C50.3796 54.3105 50.3796 55.0946 50.3796 55.9025C50.0659 55.9025 49.7523 55.9025 49.4291 55.9025C49.4291 54.8047 49.4291 53.7069 49.4291 52.5758Z" fill="#1E293B" fill-opacity="0.7"/>
<path d="M54.6568 52.576C54.6568 52.8896 54.6568 53.2033 54.6568 53.5264C54.4215 53.6049 54.1863 53.6833 53.9439 53.7641C54.1792 53.9209 54.4144 54.0777 54.6568 54.2393C54.7013 55.1007 54.7013 55.1007 54.6568 55.9027C53.9511 55.9027 53.2453 55.9027 52.5182 55.9027C52.5182 55.589 52.5182 55.2753 52.5182 54.9522C52.7534 54.8738 52.9887 54.7953 53.2311 54.7145C52.9958 54.5577 52.7606 54.4009 52.5182 54.2393C52.4736 53.4967 52.4736 53.4967 52.5182 52.8136C53.2208 52.4623 53.8827 52.5616 54.6568 52.576Z" fill="#1E293B" fill-opacity="0.7"/>
<path d="M82.2209 51.1501C82.5346 51.1501 82.8483 51.1501 83.1714 51.1501C83.1714 52.4048 83.1714 53.6594 83.1714 54.9521C83.3282 54.9521 83.4851 54.9521 83.6467 54.9521C83.7251 55.2657 83.8035 55.5794 83.8843 55.9025C83.4091 55.9126 82.9337 55.9122 82.4586 55.9025C82.2209 55.6649 82.2209 55.6649 82.194 55.2235C82.1952 55.0356 82.1964 54.8477 82.1977 54.6541C82.1985 54.4512 82.1993 54.2482 82.2 54.0392C82.202 53.8258 82.204 53.6125 82.2061 53.3927C82.2072 53.1784 82.2082 52.9641 82.2093 52.7434C82.2121 52.2123 82.2161 51.6812 82.2209 51.1501Z" fill="#1E293B" fill-opacity="0.7"/>
<path d="M108.597 51.1501C108.911 51.1501 109.224 51.1501 109.547 51.1501C109.547 52.4048 109.547 53.6594 109.547 54.9521C109.704 54.9521 109.861 54.9521 110.023 54.9521C110.023 55.2657 110.023 55.5794 110.023 55.9025C109.552 55.9025 109.082 55.9025 108.597 55.9025C108.597 54.3342 108.597 52.7659 108.597 51.1501Z" fill="#1E293B" fill-opacity="0.7"/>
<path d="M97.6663 51.3877C97.9799 51.3877 98.2936 51.3877 98.6168 51.3877C98.6168 51.7014 98.6168 52.0151 98.6168 52.3382C98.3031 52.3382 97.9894 52.3382 97.6663 52.3382C97.6663 52.0246 97.6663 51.7109 97.6663 51.3877Z" fill="#1E293B" fill-opacity="0.7"/>
<path d="M85.5476 51.3877C85.8612 51.3877 86.1749 51.3877 86.4981 51.3877C86.4981 51.7014 86.4981 52.0151 86.4981 52.3382C86.1844 52.3382 85.8707 52.3382 85.5476 52.3382C85.5476 52.0246 85.5476 51.7109 85.5476 51.3877Z" fill="#1E293B" fill-opacity="0.7"/>
<path d="M66.7755 51.3877C67.0891 51.3877 67.4028 51.3877 67.726 51.3877C67.726 51.7014 67.726 52.0151 67.726 52.3382C67.4123 52.3382 67.0986 52.3382 66.7755 52.3382C66.7755 52.0246 66.7755 51.7109 66.7755 51.3877Z" fill="#1E293B" fill-opacity="0.7"/>
</svg>
