<svg width="114" height="56" viewBox="0 0 114 56" fill="none" xmlns="http://www.w3.org/2000/svg">
<path fill-rule="evenodd" clip-rule="evenodd" d="M65.2288 0.0077711L64.6922 0C64.4045 0.0261391 64.2304 0.0420346 64.0994 0.12575C63.8986 0.253974 63.7994 0.541681 63.5481 1.2704L63.4435 1.57965C63.39 1.73702 63.3361 1.8942 63.2819 2.05139L63.1299 2.49028C62.1465 5.34669 61.1252 8.19021 60.0593 11.0168L59.9312 11.3564C59.8825 11.4864 59.8343 11.6171 59.7864 11.7485C59.729 11.9058 59.672 12.0639 59.6149 12.2225L59.6112 12.2326C59.0198 13.8737 58.4129 15.5577 57.2133 16.8315C57.0012 17.0452 56.7895 17.2594 56.5795 17.4753C55.7154 18.364 54.845 19.2446 53.9108 20.06C53.771 20.1782 53.6316 20.2969 53.4926 20.4161C53.3983 20.497 53.3043 20.5779 53.2105 20.6591C51.4258 22.3592 49.6858 23.397 47.2465 23.9145C45.7826 24.0296 44.5023 24.054 43.2705 23.1911C42.1859 22.0727 41.7378 20.7628 41.7523 19.2278L41.7682 18.7375C41.7796 17.6734 41.8286 16.6452 42.0054 15.5952C42.9982 15.9899 43.88 16.2027 44.95 16.204L45.4053 16.1943C49.2543 16.1446 52.5422 14.9311 55.5599 12.5206C56.6344 11.3734 57.621 10.0768 57.7936 8.48533L57.7964 8.41062C57.8381 7.32761 57.8741 6.3919 57.1151 5.54927L56.825 5.28646C56.6083 5.08459 56.3858 4.88873 56.1586 4.69869C54.7446 3.70204 53.1961 3.47598 51.5183 3.76262C47.4819 4.5687 44.3032 7.077 42.028 10.4634C41.8808 10.7057 41.8129 10.8174 41.7359 10.9225C41.7036 10.9666 41.6696 11.0095 41.6274 11.0606C41.5839 11.1134 41.5316 11.1747 41.4632 11.2547H40.9211C40.199 10.9357 39.5601 10.8145 38.7816 10.7326L38.3344 10.6895L37.4442 10.5977L36.7643 10.5312L36.748 10.4608C36.3269 8.64552 35.8889 6.75785 34.6634 5.29847C33.6631 4.3693 32.4707 3.81066 31.1053 3.7379C29.5822 3.79989 28.0779 4.42546 26.9755 5.48569L26.6437 5.82903C25.0052 7.42899 23.8616 9.086 23.0051 11.2229C22.6395 12.202 22.2116 12.997 21.5911 13.8417L21.2219 14.3292C18.9757 17.3589 16.4913 20.0653 13.2268 22.0282C11.0775 23.1416 8.65185 23.7615 6.25331 23.1487C5.12043 22.7497 4.56988 22.1669 3.97376 21.1225C3.22858 19.5201 3.26651 17.669 3.86716 16.0155L4.06412 15.5387C4.18009 15.2557 4.29656 14.9731 4.41428 14.6909L4.82091 14.8378L5.49864 15.0526C6.21635 15.2886 6.92174 15.4698 7.66736 15.5952C11.4757 15.8981 15.2696 15.1672 18.4107 12.912C19.6832 11.8334 20.8787 10.3573 21.0962 8.65276C21.1352 7.34104 20.7578 6.5475 19.8897 5.58247C18.6928 4.37901 17.3262 3.99823 15.6795 3.96626L15.2466 3.96397C14.8384 3.96096 14.4333 3.96573 14.0254 3.98339C10.3146 4.33292 6.9461 6.98675 4.62748 9.72941L4.41428 9.98868C4.39228 9.37212 4.39212 8.77586 4.45028 8.16177C4.61699 7.23259 4.98797 6.81631 5.72384 6.24443C6.12128 5.95036 6.45832 5.67767 6.76372 5.28646C6.84491 4.71776 6.86499 4.37424 6.5717 3.87354C6.03258 3.54291 5.58405 3.49964 4.95646 3.47792C4.42751 3.73666 4.05198 4.02137 3.62784 4.43094L3.21697 4.89085C2.77756 5.37477 2.43458 5.81402 2.11919 6.38784C1.47603 7.82779 1.23488 9.53937 1.70338 11.0738C1.88704 11.4341 2.06793 11.7956 2.24556 12.1589C2.27345 12.5438 2.28606 12.7179 2.24652 12.8792C2.21387 13.0123 2.14564 13.1369 2.02106 13.3642C1.49057 14.3269 1.0189 15.231 0.842811 16.3221C0.626641 19.0279 0.683826 21.5056 2.42629 23.7336C4.00846 25.3135 5.774 26.1068 8.01752 26.1413C13.096 25.9993 16.7003 23.3832 20.0792 19.8276L20.3182 19.574C20.1956 21.5065 20.1095 23.4242 20.1375 25.3613C20.4772 25.3649 20.8169 25.368 21.1566 25.3702L21.572 25.3726C22.0592 25.3781 22.5418 25.3746 23.0291 25.3613C23.0632 25.3272 23.0908 25.2995 23.1135 25.2748L23.132 25.2538C23.1504 25.232 23.165 25.2117 23.177 25.19C23.2176 25.1165 23.2286 25.0266 23.2549 24.8103L23.2875 24.3214L23.3266 23.7774C23.5173 21.0757 23.8391 18.4809 24.6288 15.8813L24.8364 15.2335C25.3019 13.7439 25.8166 12.3043 26.5242 10.9104L26.734 10.5086C27.5086 9.012 28.5417 7.5226 30.0775 6.7333C30.8331 6.57011 31.4439 6.57417 32.1106 6.98198C33.1476 8.53849 33.5122 9.9334 33.692 11.7972C33.5509 11.7972 33.4575 11.7972 33.3664 11.8117C33.1887 11.8398 33.0196 11.923 32.5219 12.1681L32.5182 12.1697L32.5173 12.1702C29.6733 13.6342 27.4417 15.9309 26.3994 19.0109C25.9641 21.1021 26.2669 22.9904 27.3666 24.8188C27.9965 25.5719 28.6784 26.0355 29.6609 26.2211C31.3888 26.4057 32.7349 26.3502 34.1551 25.2596C35.0095 24.4735 35.5646 23.9627 35.9476 23.3449C36.6578 22.1994 36.7759 20.6863 37.113 16.3668L37.202 15.189C37.2303 14.7813 37.263 14.3739 37.3065 13.9675C37.3875 13.8689 37.4332 13.8135 37.4918 13.784C37.5675 13.7458 37.6648 13.751 37.8875 13.7626L38.3796 13.764L38.4946 13.7635C38.9345 13.7608 39.2393 13.7589 39.656 13.9675C39.6857 14.3688 39.6979 14.5335 39.6582 14.6847C39.6305 14.79 39.5776 14.8887 39.4879 15.0561C38.9608 16.0321 38.9117 17.0996 38.8996 18.1838L38.8992 18.5906C38.8965 20.9246 39.3242 22.9431 40.9564 24.7043C42.6045 26.2811 43.9845 26.7255 46.2201 26.6879C50.1481 26.5517 53.2786 24.7373 55.9432 21.935L56.2828 21.5634L56.4635 21.7442L56.3676 22.0037C55.9778 23.0544 55.6136 24.036 55.7406 25.1805C55.8038 25.2437 55.8449 25.2849 55.8935 25.3129C55.984 25.365 56.1005 25.3719 56.4339 25.3917L57.0735 25.3952L57.3632 25.3986L57.4958 25.3993C57.5847 25.3993 57.6567 25.3984 57.7286 25.3959C57.7589 25.3951 57.7892 25.3938 57.8207 25.3922L57.9228 25.3862L58.0413 25.3783L58.2708 25.3613C58.5295 25.1888 58.6648 25.0985 58.765 24.9788C58.8747 24.8477 58.9424 24.6814 59.0841 24.3327C59.1718 24.0719 59.2627 23.8121 59.3552 23.5528C59.6418 22.8993 59.9152 22.2589 60.1303 21.5782C60.5539 20.2211 61.0165 18.8949 61.5856 17.5911L61.795 17.1211C62.7658 14.9122 64.1598 12.6581 66.0717 11.143L66.4035 10.893C66.7909 10.5779 67.1768 10.2865 67.5959 10.0148C68.3465 9.657 69.0312 9.62803 69.8373 9.80783C70.1381 9.95177 70.2896 10.0242 70.4023 10.1358C70.5166 10.249 70.591 10.4027 70.7409 10.7121C71.0457 12.3718 70.4372 13.8688 69.807 15.3769C68.6639 18.0607 67.5934 20.5821 68.03 23.5528C68.3663 24.456 68.9015 25.0837 69.6792 25.6439C70.6512 26.1227 71.9004 26.0312 72.94 25.8269C74.3151 25.3956 75.8693 24.2091 76.5771 22.9594L76.7049 22.6485H77.0664C77.0664 22.8052 77.0664 22.894 77.0848 22.9788C77.1088 23.0899 77.1645 23.1941 77.293 23.4348C78.2783 24.9325 79.6677 26.1296 81.4038 26.6273C83.5741 26.8928 85.7382 26.7388 87.6128 25.5429C90.1639 23.6084 92.002 20.3744 92.4858 17.2073C92.5484 16.6992 92.6115 16.1914 92.6875 15.6851C92.8604 14.8059 93.1329 14.4269 93.8626 13.9223C94.5798 13.4912 95.1818 13.0706 95.7717 12.4829L96.0427 12.2042C96.3168 11.9226 96.5894 11.64 96.86 11.3552L97.127 11.0738C98.634 9.51659 100.131 7.86417 101.153 5.93641L101.284 5.64817C101.472 5.72553 101.569 5.76545 101.646 5.82956C101.728 5.89809 101.786 5.99416 101.908 6.19286C103.144 8.03496 104.703 9.68155 106.468 11.0286C107.899 12.0971 109.341 13.2033 110.146 14.8357C110.552 16.1863 110.618 17.8601 110.062 19.1755L109.778 19.7548C109.11 21.1411 108.161 22.0833 106.751 22.7276C105.423 23.2063 104.02 23.2365 102.73 22.6485C103.768 22.3195 104.483 21.8686 105.226 21.066C106.29 19.7909 106.835 18.8578 106.763 17.1642C106.626 16.0049 106.254 15.1671 105.375 14.3871L105.079 14.1483C104.403 13.6015 104.037 13.4466 103.169 13.362C101.715 13.3294 100.703 13.3624 99.576 14.3589C98.02 16.0708 97.784 17.3114 97.8309 19.5803L97.8499 20.1165L97.3741 19.9187L96.743 19.6644C95.9281 19.3317 95.2994 19.1404 94.4161 19.2123C94.2527 19.2995 94.1681 19.3447 94.1015 19.4087C94.0304 19.4767 93.9799 19.5666 93.876 19.7511L93.8748 19.7532L93.8739 19.7548C93.862 19.8375 93.8499 19.9147 93.8384 19.9878C93.7681 20.4357 93.7217 20.7315 93.8739 21.2017C94.6053 21.9918 95.256 22.2403 96.2943 22.4715C96.4355 22.5001 96.5761 22.527 96.7157 22.5537C97.5576 22.7146 98.3673 22.8695 99.0924 23.3663C100.469 24.6831 102.288 25.5545 104.18 25.7916C106.382 25.8378 108.609 25.1633 110.233 23.6347L110.501 23.3719L110.502 23.3709C110.724 23.1757 110.84 23.0743 110.948 22.9662C111.064 22.8511 111.173 22.7287 111.395 22.4777L111.403 22.4692L111.404 22.4677C112.914 20.3045 113.383 18.3663 113.212 15.776C112.872 13.1842 111.019 11.3626 109.078 9.81913C106.693 7.9546 104.825 5.90656 103.272 3.29706C103.08 2.88714 102.89 2.49081 102.655 2.10385C102.501 1.9675 102.398 1.87637 102.279 1.81826C102.039 1.70116 101.735 1.71688 100.818 1.76404L100.816 1.76457C100.594 1.80802 100.459 1.83469 100.345 1.89809C100.169 1.99558 100.041 2.17997 99.7165 2.64712C98.6974 4.16531 97.6015 5.61285 96.4705 7.04909L96.3839 7.15842C96.1262 7.4841 95.8686 7.80978 95.6129 8.13704C94.7557 9.23454 93.8792 10.2033 92.7896 11.0738L92.7959 10.5786L92.8009 9.93217C92.8183 8.17201 92.0348 6.53214 90.9555 5.15153C89.3466 3.47651 87.5126 2.69922 85.1934 2.53479C82.8269 2.50547 80.8705 3.08477 79.0784 4.68315C77.7038 6.18703 77.0717 8.04291 76.9986 10.0452C77.0319 11.8439 77.6332 13.3829 78.8736 14.6909C80.8408 16.5655 83.2894 17.2121 85.9406 17.2729L86.3964 17.2794C87.4943 17.3043 88.3861 17.1773 89.421 16.797L89.7172 16.6803C89.2138 18.4436 88.4149 20.1255 87.4299 21.6715C86.513 22.8385 85.1789 23.6044 83.7116 23.8191C82.5058 23.8536 81.6339 23.7359 80.7226 22.8965C79.3806 21.497 78.9859 20.0443 78.9619 18.1317L78.9661 16.8643L78.9584 16.2515L78.9608 15.698C78.9377 15.575 78.9208 15.4846 78.9019 15.412C78.8853 15.3481 78.8672 15.2979 78.8422 15.2515C78.7884 15.1515 78.7025 15.0689 78.5299 14.903C78.3155 14.7831 78.1791 14.7068 78.0328 14.6639C77.7778 14.5888 77.493 14.616 76.7129 14.6904H76.7083L76.7049 14.6909C76.3351 14.9648 76.1859 15.1271 76.0875 15.5796L76.0766 15.9668L76.0597 16.3942L76.056 16.5613C76.0215 18.1686 75.9919 19.5471 74.94 20.8838C73.9112 22.0823 73.1002 22.8792 71.4638 23.0102L71.1024 22.4677C70.719 20.6453 71.2363 19.1955 72.0505 17.5609L72.1546 17.358L72.2753 17.1236C73.1553 15.4152 74.0598 13.6595 74.2285 11.7223C74.2679 10.1835 73.9831 8.95354 72.9097 7.81843C71.7153 6.78646 70.6675 6.62115 69.1151 6.67749C66.8617 6.90921 64.7285 8.76898 63.3509 10.4528L63.1504 10.7121C63.3548 9.94135 63.5925 9.2227 63.911 8.48957C64.4842 7.17272 64.9765 5.83344 65.438 4.4735L65.658 3.81702L65.7349 3.59025C66.1118 2.48004 66.4785 1.3995 66.5842 0.222536C66.4145 0.137584 66.3244 0.0925467 66.2293 0.0655245C66.1219 0.0349699 66.0079 0.0273755 65.7653 0.0113034L65.2288 0.0077711ZM90.1493 9.53937C89.6675 7.90691 88.7379 6.69851 87.2774 5.81773C85.196 4.87831 82.4236 5.31684 80.8277 6.95937L80.5002 7.45672C80.2776 7.78734 80.0879 8.11285 79.9142 8.47191C79.62 9.39914 79.5662 10.5577 79.9382 11.4673C80.6838 12.6943 81.6001 13.4247 82.9216 13.9632C84.7271 14.5438 87.1949 14.6888 88.9534 13.9329L89.4236 13.6849C89.7029 13.5394 89.9818 13.393 90.2594 13.2441C90.3123 12.0025 90.364 10.7677 90.1493 9.53937ZM54.837 6.91416C55.0088 7.086 55.0989 7.17625 55.1547 7.28434C55.2163 7.40356 55.236 7.5445 55.2775 7.84104C55.1299 9.14905 54.3383 10.0199 53.3912 10.893L53.1745 11.1445C50.9614 13.1236 47.628 13.6948 44.7756 13.6665C44.2279 13.6111 43.9105 13.5341 43.4512 13.2441C43.6005 12.4113 44.1015 11.8258 44.6286 11.2098C44.7179 11.1054 44.8079 11.0003 44.897 10.893L45.2599 10.4422C47.2559 8.07629 51.6781 4.8066 54.837 6.91416ZM18.4524 8.66407C18.4702 8.15541 18.3966 7.75079 18.1382 7.30978C14.5539 5.11126 10.3534 7.72836 7.66312 10.1971L7.3059 10.5312C6.67766 11.1063 6.29759 11.5221 6.04082 12.3398C6.54264 12.6943 6.88449 12.8753 7.50009 12.9468L8.11423 12.9417L8.78737 12.9389L9.48592 12.9276C11.0274 12.9212 12.2545 12.903 13.6931 12.3352L14.0493 12.1929C14.7523 11.9194 15.4384 11.6323 16.1022 11.2723C17.0676 10.6634 18.1223 9.79988 18.4524 8.66407ZM34.0534 14.6909C34.1553 17.4957 34.0586 20.6188 32.4156 23.0102C31.9572 23.4837 31.653 23.717 30.9924 23.8015C30.7019 23.7658 30.5638 23.7488 30.4395 23.6983C30.3269 23.6527 30.2255 23.5794 30.0323 23.4397C29.2884 22.4295 29.2148 21.3315 29.3545 20.1165C29.8757 17.9858 31.2311 16.2324 33.0143 14.9735C33.2689 14.8287 33.3931 14.758 33.5266 14.7236C33.6536 14.6909 33.7891 14.6909 34.0534 14.6909ZM103.503 16.3412C103.413 16.2734 103.306 16.2282 103.091 16.1377L102.973 16.125C102.43 16.0659 102.003 16.0196 101.521 16.3412L101.284 16.6803C100.799 17.2985 100.572 17.6686 100.484 18.4585L100.504 19.1784C100.506 19.2797 100.501 19.3884 100.497 19.5C100.48 19.9187 100.462 20.3792 100.742 20.6591H101.205C101.581 20.5496 101.826 20.4783 102.047 20.3613C102.461 20.1427 102.79 19.7649 103.735 18.681C104.102 17.8979 104.033 17.5157 103.814 16.6803C103.667 16.4995 103.594 16.409 103.503 16.3412Z" fill="black"/>
<path d="M43.9934 30.787C59.1083 30.787 59.1083 30.787 63.5126 34.9113C64.5573 36.0611 65.3342 37.4674 65.8613 38.9254C65.9154 39.0739 65.9694 39.2224 66.0251 39.3754C67.0687 42.7938 66.4014 46.2734 64.772 49.3684C63.2826 51.8298 60.7718 53.6551 58.011 54.4111C57.8179 54.4664 57.8179 54.4664 57.621 54.5227C57.236 54.6319 56.8499 54.7364 56.4635 54.8406C56.2341 54.9054 56.0046 54.9702 55.7682 55.037C52.0907 55.8471 47.255 55.3832 43.9934 55.3832C43.9934 47.2664 43.9934 39.1497 43.9934 30.787ZM47.0658 32.0529C47.0481 32.3197 47.0429 32.5872 47.0428 32.8545C47.0423 33.0277 47.0418 33.2009 47.0413 33.3793C47.0416 33.5708 47.042 33.7624 47.0424 33.9597C47.0421 34.1603 47.0417 34.3609 47.0414 34.5675C47.0406 35.2348 47.0411 35.9021 47.0418 36.5694C47.0416 37.0319 47.0415 37.4945 47.0412 37.9571C47.041 38.9291 47.0413 39.9011 47.0422 40.8731C47.0432 41.9944 47.0429 43.1157 47.0419 44.237C47.0409 45.3167 47.041 46.3964 47.0416 47.476C47.0417 47.9347 47.0415 48.3934 47.0411 48.852C47.0407 49.4949 47.0414 50.1378 47.0424 50.7806C47.042 50.9696 47.0416 51.1586 47.0413 51.3533C47.0441 52.3521 47.0986 53.3101 47.2465 54.2981C48.0668 54.3025 48.8871 54.3058 49.7074 54.308C49.9867 54.3089 50.266 54.3101 50.5452 54.3117C50.9458 54.3139 51.3464 54.3149 51.747 54.3157C51.9353 54.3171 51.9354 54.3171 52.1275 54.3186C52.4283 54.3186 52.7291 54.3093 53.0297 54.2981C53.0894 54.2384 53.149 54.1787 53.2105 54.1172C53.5214 54.0606 53.8325 54.0049 54.1444 53.9545C57.0162 53.485 59.4517 52.3565 61.2359 49.9809C62.6408 47.8506 63.0348 45.6502 63.0375 43.1416C63.0441 42.8186 63.0441 42.8186 63.0509 42.4892C63.06 39.7036 62.1393 37.1987 60.2136 35.1614C57.4599 32.5832 53.9548 31.7649 50.2744 31.8212C49.893 31.827 49.5118 31.8287 49.1303 31.8297C48.0126 31.7258 48.0126 31.7258 47.0658 32.0529Z" fill="black"/>
<path fill-rule="evenodd" clip-rule="evenodd" d="M7.43651 33.64C7.03041 33.6436 6.62439 33.6468 6.21828 33.6471H6.01426C4.92295 33.6462 3.86765 33.6453 2.78774 33.8615V54.1172C2.94731 54.1317 3.10688 54.1467 3.26646 54.1617C3.9745 54.2281 4.68281 54.2946 5.39323 54.3216L6.48593 54.3228L7.0687 54.3207C8.30842 54.3251 9.51456 54.3184 10.7397 54.1172C12.8519 53.6333 14.6246 52.5431 15.8911 50.7651C17.4991 48.1141 18.0075 44.1199 17.3425 41.0722L17.2459 40.734C16.783 38.9187 16.165 37.1245 14.7044 35.8622L14.1735 35.4892C12.1558 33.9749 9.89215 33.6302 7.43651 33.64ZM11.3972 36.7349C10.4352 36.2126 9.1902 36.2126 5.49864 36.2126V51.7661C5.8848 51.7661 6.24881 51.7705 6.59505 51.7748C8.85166 51.8022 10.353 51.8203 12.3098 50.5454C13.6716 49.2193 14.4457 47.7483 14.5674 45.8299L14.58 45.4438C14.6665 42.8582 14.7607 40.0394 12.931 38.0063C12.303 37.4014 11.8867 37.0005 11.3972 36.7349Z" fill="black"/>
<path d="M102.167 30.2444C102.765 30.5276 102.894 31.0611 103.125 31.646C103.234 31.9093 103.343 32.1726 103.452 32.4358C103.51 32.5778 103.568 32.7197 103.628 32.8659C103.961 33.6771 104.313 34.4806 104.661 35.2857C105.119 36.3496 105.564 37.4174 105.991 38.494C106.252 39.146 106.523 39.7932 106.796 40.4401C106.856 40.582 106.915 40.7239 106.977 40.87C107.365 41.7909 107.758 42.7097 108.153 43.6276C108.201 43.7376 108.248 43.8475 108.297 43.9608C108.531 44.505 108.765 45.049 109.001 45.5926C109.521 46.8016 110.011 48.0179 110.478 49.2486C110.737 49.9201 111.02 50.5782 111.314 51.2348C111.422 51.4787 111.529 51.7227 111.637 51.9667C111.689 52.0846 111.741 52.2024 111.794 52.3239C112.025 52.8488 112.253 53.3749 112.477 53.9024C112.55 54.0715 112.622 54.2405 112.697 54.4146C112.85 54.8406 112.85 54.8406 112.85 55.3832C111.836 55.3832 110.822 55.3832 109.778 55.3832C109.172 54.2635 108.734 53.1036 108.306 51.9074C107.98 51.0383 107.603 50.1924 107.229 49.3436C106.546 47.7929 105.893 46.23 105.237 44.6676C105.111 44.368 104.985 44.0685 104.859 43.7689C104.343 42.539 103.827 41.3088 103.316 40.0762C102.912 39.1037 102.487 38.1415 102.051 37.1829C101.812 36.6473 101.645 36.2634 101.645 35.67C101.526 35.67 101.407 35.67 101.284 35.67C101.237 35.8214 101.19 35.9727 101.142 36.1287C100.904 36.8074 100.614 37.4501 100.305 38.0982C100.245 38.2258 100.185 38.3535 100.123 38.485C99.9305 38.8921 99.7374 39.2987 99.5442 39.7054C99.4188 39.9706 99.2933 40.2359 99.168 40.5012C98.9162 41.0338 98.6641 41.5663 98.4118 42.0987C98.0288 42.9074 97.648 43.7171 97.2675 44.527C96.7527 45.6226 96.236 46.7172 95.7151 47.8099C95.6413 47.9647 95.5676 48.1196 95.4916 48.2791C95.2537 48.7784 95.0156 49.2775 94.7776 49.7767C94.6909 49.9586 94.6042 50.1406 94.5149 50.328C94.2487 50.8866 93.9823 51.445 93.7158 52.0035C93.6341 52.175 93.5523 52.3465 93.4681 52.5232C93.0105 53.4815 92.5445 54.4347 92.0667 55.3832C91.7088 55.3832 91.351 55.3832 90.9823 55.3832C91.348 54.1806 91.8223 53.0648 92.3717 51.9356C92.4521 51.7684 92.5325 51.6011 92.6153 51.4288C93.0742 50.4775 93.5436 49.5321 94.0208 48.5898C94.6885 47.2707 95.3097 45.9306 95.9297 44.5884C95.9803 44.4789 96.0309 44.3694 96.083 44.2566C96.1335 44.1473 96.184 44.0379 96.2361 43.9252C99.3044 37.2835 99.3044 37.2835 100.602 34.9C100.827 34.3924 100.695 34.0282 100.561 33.4998C100.464 33.2872 100.367 33.0745 100.267 32.8555C100.019 32.2338 100.019 32.2338 100.007 31.7365C100.287 31.1442 100.698 31.0449 101.284 30.787C101.381 30.6825 101.478 30.5781 101.577 30.4705C101.826 30.2444 101.826 30.2444 102.167 30.2444Z" fill="black"/>
<path d="M96.054 30.7757C96.3167 30.7813 96.3167 30.7813 96.5848 30.787C96.3921 31.4137 96.1672 32.0109 95.8958 32.6068C95.5971 33.2651 95.335 33.9302 95.0826 34.6075C94.7691 35.4333 94.4254 36.2303 94.0434 37.0264C93.3864 38.3989 92.8052 39.8026 92.2248 41.2087C92.1339 41.4284 92.0431 41.6482 91.9494 41.8746C91.5155 42.9302 91.0928 43.9881 90.69 45.0561C90.4021 45.812 90.0902 46.5332 89.7165 47.2499C89.3492 47.9774 89.0415 48.7328 88.7232 49.4828C88.655 49.6423 88.5867 49.8017 88.5164 49.966C88.117 50.9028 87.7322 51.8443 87.3565 52.7907C87.1138 53.3955 86.8576 53.9936 86.5997 54.5919C86.5056 54.8106 86.4115 55.0293 86.3145 55.2546C86.2446 55.4164 86.1747 55.5782 86.1027 55.7449C85.8641 55.7449 85.6256 55.7449 85.3798 55.7449C85.2554 55.4372 85.2554 55.4372 85.1285 55.1232C85.0165 54.8481 84.9045 54.5731 84.7924 54.2981C84.7382 54.1635 84.6839 54.029 84.6279 53.8904C84.3012 53.0905 83.9439 52.3181 83.5516 51.5484C83.3421 51.1225 83.1791 50.6869 83.0191 50.2401C82.4986 48.8544 81.8951 47.5074 81.2883 46.1575C80.772 44.9997 80.29 43.833 79.8239 42.6541C79.0186 40.6203 78.1525 38.6143 77.281 36.6082C77.1267 36.2521 76.9724 35.8959 76.8182 35.5397C76.5372 34.8907 76.2559 34.2419 75.9744 33.5932C75.9143 33.454 75.8543 33.3148 75.7924 33.1715C75.6811 32.9157 75.5682 32.6606 75.4534 32.4064C75.2231 31.8913 75.0784 31.5396 75.0784 30.9678C76.0923 30.9678 77.1061 30.9678 78.1507 30.9678C78.8183 32.2573 79.4008 33.5326 79.9065 34.8929C80.2244 35.7091 80.5971 36.4959 80.9689 37.2885C81.413 38.2526 81.7919 39.2392 82.1655 40.2324C82.2805 40.5366 82.2805 40.5366 82.3978 40.847C82.4668 41.0321 82.5357 41.2172 82.6068 41.4079C82.7867 41.8465 82.9742 42.2572 83.1885 42.6782C83.6282 43.5427 84.007 44.4305 84.3858 45.3232C84.4541 45.4826 84.5223 45.6421 84.5926 45.8064C84.9313 46.6006 85.2619 47.3972 85.5803 48.1999C85.8431 48.862 86.1206 49.514 86.419 50.161C86.4963 50.3293 86.5737 50.4977 86.6534 50.6711C86.7102 50.7937 86.767 50.9163 86.8256 51.0427C86.9085 50.8375 86.9915 50.6324 87.0769 50.421C87.1889 50.1459 87.3009 49.8709 87.413 49.5958C87.4672 49.4613 87.5215 49.3268 87.5775 49.1882C87.8417 48.5413 88.1148 47.9096 88.438 47.2899C88.8461 46.4904 89.1517 45.6581 89.468 44.8188C89.9158 43.6534 90.4065 42.5058 90.892 41.3557C91.0437 40.9951 91.1954 40.6346 91.347 40.274C91.4457 40.0395 91.5445 39.805 91.6434 39.5705C92.0262 38.662 92.4037 37.7514 92.7786 36.8396C92.9487 36.4438 93.1317 36.0626 93.3318 35.6813C93.7489 34.8734 94.0534 34.0254 94.3738 33.1755C95.2908 30.7912 95.2908 30.7912 96.054 30.7757Z" fill="black"/>
<path d="M70.018 30.787C71.0319 30.787 72.0458 30.787 73.0904 30.787C73.0904 38.9037 73.0904 47.0205 73.0904 55.3832C72.0765 55.3832 71.0626 55.3832 70.018 55.3832C70.018 47.2664 70.018 39.1497 70.018 30.787Z" fill="black"/>
<path fill-rule="evenodd" clip-rule="evenodd" d="M33.692 32.5955L33.5113 32.4146C28.9734 31.0748 24.6567 31.1593 21.3998 34.9848C20.2375 36.6195 19.9004 38.3945 20.1375 40.3722C20.2595 40.673 20.38 40.9745 20.4989 41.2765C20.571 41.9279 20.5444 42.2716 20.2476 42.8597C19.7693 43.5826 19.3326 44.3028 18.9889 45.0999C18.2217 47.3503 18.2284 49.5413 19.2734 51.6728C20.3963 53.7331 22.1674 54.9807 24.3775 55.711C27.5013 56.4588 30.4776 55.6806 33.2543 54.2366C34.5223 53.4492 36.2153 52.1553 36.5836 50.681L34.7763 49.0533L34.0534 49.7767C31.7029 52.07 29.2482 52.916 25.9949 52.9056C24.7138 52.7926 23.5321 52.2837 22.6338 51.3592L22.3062 50.8618C22.0746 50.5466 21.8908 50.2445 21.7217 49.8911C21.3292 48.5406 21.3686 46.8502 21.8996 45.5492C22.1773 44.978 22.4447 44.7751 23.0291 44.5319C23.3185 44.7744 23.4354 44.8724 23.5569 44.9644C23.6393 45.0268 23.7238 45.0865 23.8657 45.1868C25.6509 46.2256 27.7803 46.4489 29.7838 46.024C31.1499 45.5526 32.2046 44.8795 32.9352 43.5937C33.2809 42.483 33.2743 41.5353 32.9578 40.4175C32.377 39.4425 31.6563 38.8224 30.597 38.4055C27.8979 37.6324 25.6906 38.613 23.3779 39.894L22.8484 40.1914L22.8816 39.7357L22.9275 39.1402L22.9719 38.5489C23.1065 37.3067 23.8572 36.3995 24.7912 35.6135C27.1987 34.3625 29.9691 34.5805 32.5759 35.0483L32.9691 35.1275C33.3695 34.2739 33.6158 33.5489 33.692 32.5955ZM30.4389 42.5425C30.5838 41.9623 30.494 41.7354 30.2017 41.22C29.1495 40.5588 27.5578 40.814 26.4326 41.2461L26.0676 41.4235C25.478 41.6999 25.264 41.9379 25.0171 42.5425C25.8592 43.1043 26.5236 43.318 27.5459 43.3521L27.9313 43.3563C28.9613 43.3835 29.629 43.2188 30.4389 42.5425Z" fill="black"/>
</svg>
