<svg width="222" height="48" viewBox="0 0 222 48" fill="none" xmlns="http://www.w3.org/2000/svg">
<g clip-path="url(#clip0_403_17961)">
<path d="M106.876 14.0088C107.366 14.0122 107.366 14.0122 107.866 14.0158C108.898 14.0248 109.929 14.0453 110.961 14.0662C111.665 14.0744 112.37 14.0819 113.074 14.0886C114.791 14.1065 116.507 14.1337 118.223 14.1684C118.192 14.5601 118.157 14.9516 118.121 15.343C118.102 15.561 118.083 15.7791 118.064 16.0037C117.952 16.6198 117.952 16.6198 117.409 17.4369C116.636 17.5122 115.919 17.5374 115.147 17.5284C114.684 17.5318 114.222 17.5354 113.76 17.5391C113.031 17.5401 112.302 17.5391 111.572 17.5351C110.869 17.5327 110.166 17.5387 109.462 17.5455C109.137 17.54 109.137 17.54 108.805 17.5344C107.643 17.5498 107.221 17.6041 106.285 18.3663C104.143 21.1078 103.08 26.0332 103.217 29.4664C103.241 29.9704 103.241 29.9704 103.563 30.2389C104.294 30.3034 105.019 30.3538 105.752 30.3921C106.06 30.4097 106.06 30.4097 106.376 30.4277C106.886 30.4567 107.396 30.4841 107.906 30.5112C107.944 30.2272 107.982 29.9431 108.021 29.6505C108.467 26.6808 109.443 23.8308 110.35 20.9779C112.5 20.9779 114.65 20.9779 116.866 20.9779C116.255 23.7367 116.255 23.7367 115.942 24.8242C115.874 25.0621 115.806 25.3 115.736 25.5451C115.666 25.7851 115.597 26.025 115.525 26.2723C115.457 26.5112 115.388 26.7502 115.318 26.9964C115.112 27.7145 114.903 28.4319 114.694 29.1493C114.592 29.5054 114.592 29.5054 114.489 29.8687C114.422 30.1008 114.355 30.3328 114.285 30.5719C114.227 30.7766 114.168 30.9813 114.108 31.1923C113.81 32.0796 113.44 32.9226 113.065 33.7798C111.075 33.8114 109.086 33.8356 107.096 33.8504C106.172 33.8575 105.248 33.8671 104.324 33.8826C103.261 33.9003 102.198 33.9068 101.134 33.9128C100.804 33.9198 100.474 33.9269 100.134 33.9341C97.5721 33.935 97.5721 33.935 96.5787 33.121C94.74 31.0282 94.6516 28.8161 94.7541 26.117C95.0098 22.4688 96.7275 18.7304 99.4511 16.2601C101.769 14.4385 103.988 13.9301 106.876 14.0088Z" fill="black"/>
<path d="M136.487 14.0885C136.834 14.0896 137.182 14.0908 137.539 14.092C138.458 14.0958 139.376 14.1031 140.295 14.1122C141.234 14.1206 142.173 14.1243 143.112 14.1284C144.951 14.1374 146.791 14.151 148.63 14.1683C148.487 15.3904 148.278 16.2758 147.816 17.4369C144.232 17.4369 140.648 17.4369 136.956 17.4369C138.005 18.4894 139.062 19.5204 140.146 20.5352C140.313 20.6918 140.479 20.8485 140.651 21.0099C141.572 21.8665 142.503 22.6562 143.523 23.3952C144.57 24.1977 145.064 24.8272 145.372 26.1531C145.36 27.5485 145.194 28.892 144.829 30.2388C144.65 30.2388 144.471 30.2388 144.286 30.2388C144.225 30.4354 144.163 30.632 144.1 30.8346C143.669 31.7591 143.137 32.2806 142.386 32.9626C142.225 33.1089 142.065 33.2551 141.899 33.4058C141.117 33.8935 140.599 33.8783 139.681 33.8725C139.355 33.8725 139.029 33.8724 138.693 33.8723C138.342 33.8681 137.992 33.8639 137.63 33.8595C137.267 33.858 136.903 33.8569 136.539 33.856C135.584 33.8529 134.629 33.8449 133.674 33.8359C132.699 33.8275 131.723 33.8238 130.748 33.8196C128.835 33.8109 126.923 33.797 125.01 33.7797C125.141 32.6538 125.279 31.6128 125.553 30.5112C129.316 30.5112 133.079 30.5112 136.956 30.5112C136.956 30.3314 136.956 30.1516 136.956 29.9664C136.805 29.9022 136.654 29.8379 136.499 29.7717C135.717 29.3364 135.147 28.7938 134.496 28.1789C133.458 27.2106 132.408 26.3119 131.289 25.4381C129.921 24.3193 128.78 23.2721 128.423 21.4822C128.306 19.5062 129.093 17.6938 130.169 16.075C130.348 16.075 130.527 16.075 130.712 16.075C130.796 15.8306 130.796 15.8306 130.881 15.5813C132.079 13.6703 134.524 14.0638 136.487 14.0885Z" fill="black"/>
<path d="M215.145 14.1684C216.094 16.3264 216.894 18.5174 217.661 20.7453C218.218 22.362 218.794 23.9704 219.387 25.5744C219.465 25.7878 219.544 26.0012 219.625 26.2211C219.986 27.2043 220.351 28.1858 220.724 29.1643C220.849 29.4964 220.973 29.8286 221.101 30.1708C221.21 30.4559 221.319 30.741 221.431 31.0348C221.69 31.9806 221.676 32.803 221.661 33.7799C220.438 33.8135 219.216 33.8383 217.994 33.8547C217.578 33.8615 217.162 33.8708 216.746 33.8826C216.148 33.8991 215.551 33.9069 214.953 33.9129C214.767 33.9199 214.581 33.9269 214.39 33.9342C213.863 33.9345 213.863 33.9345 212.973 33.7799C212.475 33.1691 212.475 33.1691 212.159 32.418C212.066 32.2128 211.973 32.0076 211.877 31.7963C211.21 30.099 210.621 28.3859 210.072 26.6469C209.988 26.3893 209.905 26.1318 209.819 25.8664C209.387 24.5064 209.048 23.2157 208.901 21.7951C207.569 22.9053 206.394 24.0557 205.276 25.3807C204.65 26.0807 203.919 26.6411 203.199 27.2427C202.707 27.7982 202.231 28.3634 201.764 28.9398C201.278 29.4432 200.851 29.694 200.213 29.9665C200.213 30.1463 200.213 30.3261 200.213 30.5113C203.17 30.5113 206.126 30.5113 209.172 30.5113C208.629 33.5075 208.629 33.5075 208.358 33.7799C207.933 33.8053 207.507 33.8119 207.081 33.8108C206.809 33.8108 206.537 33.8107 206.257 33.8107C205.962 33.8093 205.666 33.8079 205.362 33.8065C205.061 33.8061 204.76 33.8057 204.45 33.8053C203.484 33.8038 202.519 33.8004 201.554 33.7969C200.901 33.7955 200.248 33.7943 199.595 33.7932C197.991 33.7902 196.387 33.7856 194.783 33.7799C195.191 32.6863 195.601 32.0465 196.441 31.2295C196.663 31.0102 196.886 30.7909 197.115 30.565C197.464 30.2266 197.464 30.2266 197.821 29.8814C199.237 28.4978 200.617 27.1159 201.903 25.6093C203.024 24.3411 204.256 23.1764 205.46 21.9887C207.241 20.2206 208.877 18.3633 210.459 16.4156C210.801 16.0751 210.801 16.0751 211.344 16.0751C211.411 15.9122 211.479 15.7492 211.548 15.5814C212.445 14.0063 213.486 14.0852 215.145 14.1684Z" fill="black"/>
<path d="M188.27 14.0354C188.597 14.0373 188.925 14.0393 189.262 14.0413C190.3 14.0488 191.337 14.0659 192.374 14.0833C193.081 14.0901 193.788 14.0963 194.495 14.1019C196.22 14.1169 197.945 14.1396 199.67 14.1684C199.639 14.5602 199.604 14.9517 199.568 15.3431C199.549 15.5611 199.53 15.7791 199.511 16.0038C199.399 16.6198 199.399 16.6198 198.856 17.437C198.102 17.5123 197.406 17.5375 196.653 17.5285C196.203 17.5319 195.753 17.5355 195.303 17.5391C194.594 17.5402 193.884 17.5391 193.175 17.5351C192.49 17.5328 191.806 17.5387 191.121 17.5455C190.91 17.5419 190.699 17.5382 190.482 17.5345C189.383 17.5495 188.877 17.6559 188.009 18.353C187.419 19.1151 187.146 19.7154 186.876 20.6375C186.789 20.924 186.703 21.2105 186.613 21.5057C186.532 21.781 186.451 22.0562 186.367 22.3399C186.222 22.7717 186.075 23.2031 185.926 23.6337C185.8 24.019 185.675 24.4049 185.553 24.7913C185.496 24.9661 185.44 25.141 185.382 25.3212C184.941 26.8505 184.89 28.3815 185.01 29.9665C185.554 30.5127 186.639 30.3086 187.386 30.3251C187.597 30.3308 187.807 30.3364 188.024 30.3423C188.699 30.3601 189.374 30.3761 190.049 30.3921C190.506 30.4039 190.962 30.4158 191.419 30.4278C192.54 30.457 193.662 30.4846 194.783 30.5113C194.752 30.9541 194.718 31.3967 194.681 31.8392C194.663 32.0856 194.644 32.3321 194.624 32.5861C194.512 33.2351 194.512 33.2351 193.969 33.7799C193.358 33.8546 193.358 33.8546 192.587 33.8633C192.299 33.8677 192.011 33.872 191.714 33.8765C191.401 33.878 191.088 33.8795 190.766 33.881C190.445 33.8834 190.125 33.8859 189.794 33.8884C189.114 33.8924 188.434 33.8948 187.754 33.8958C186.714 33.899 185.676 33.9124 184.636 33.9262C183.976 33.9288 183.316 33.9307 182.655 33.932C182.345 33.9373 182.034 33.9427 181.714 33.9482C179.303 33.9345 179.303 33.9345 178.309 33.1211C176.537 31.1429 176.41 29.0656 176.505 26.4884C176.716 23.079 177.928 20.0315 180.123 17.437C180.265 17.2681 180.408 17.0992 180.554 16.9252C182.757 14.5182 185.098 13.9641 188.27 14.0354Z" fill="black"/>
<path d="M31.0389 14.1375C31.3787 14.1389 31.7184 14.1404 32.0685 14.1418C32.3391 14.1424 32.3391 14.1424 32.6152 14.143C33.1934 14.1445 33.7715 14.148 34.3497 14.1514C34.7408 14.1528 35.132 14.154 35.5231 14.1551C36.4838 14.1582 37.4444 14.1629 38.4051 14.1684C38.2261 15.5128 37.9614 16.726 37.5397 18.0158C37.418 18.3987 37.2968 18.7818 37.1759 19.1649C37.1116 19.3686 37.0472 19.5722 36.9809 19.7821C35.339 24.7686 35.339 24.7686 34.8757 29.9666C35.3948 30.4874 36.3245 30.3055 37.0148 30.3251C37.2012 30.3308 37.3876 30.3365 37.5797 30.3423C38.1772 30.3601 38.7747 30.3762 39.3723 30.3922C39.7765 30.4039 40.1807 30.4158 40.5849 30.4278C41.5777 30.457 42.5705 30.4846 43.5634 30.5113C43.6194 31.4676 43.6005 32.2783 43.3537 33.2062C42.3025 34.2033 40.9766 33.979 39.5886 33.9704C39.2749 33.9723 38.9612 33.9743 38.6379 33.9763C37.9734 33.9784 37.3088 33.977 36.6442 33.9724C35.6298 33.9672 34.6164 33.9779 33.602 33.99C32.9562 33.9901 32.3103 33.9893 31.6645 33.9874C31.2109 33.9936 31.2109 33.9936 30.7482 34C29.0395 33.9744 28.0282 33.7916 26.7856 32.5756C25.7859 31.2572 26.0753 29.3428 26.188 27.7875C26.7898 24.4307 27.9393 21.1563 28.9476 17.9054C29.2476 16.9255 29.5334 15.9415 29.817 14.9567C30.0898 14.1378 30.1354 14.1734 31.0389 14.1375Z" fill="black"/>
<path d="M56.5949 14.1684C59.2827 14.1684 61.9704 14.1684 64.7396 14.1684C64.1501 18.0126 64.1501 18.0126 63.3975 19.7469C62.8607 21.0312 62.4858 22.3676 62.0926 23.7017C61.964 24.1167 61.964 24.1167 61.8328 24.5402C61.2461 26.5276 60.8118 28.4949 61.4817 30.5113C64.3487 30.5113 67.2156 30.5113 70.1694 30.5113C69.864 32.6563 69.864 32.6563 69.3549 33.7798C67.2969 33.8144 65.239 33.8382 63.1808 33.8547C62.4808 33.8615 61.7809 33.8708 61.081 33.8826C60.0741 33.8991 59.0675 33.9068 58.0605 33.9128C57.7483 33.9199 57.436 33.9269 57.1143 33.9341C54.6873 33.935 54.6873 33.935 53.6926 33.1229C52.3608 31.6257 52.4232 30.4659 52.4536 28.4918C52.5477 27.1589 52.8979 26.0433 53.337 24.7913C53.5102 24.1964 53.6796 23.6005 53.8461 23.0037C54.2674 21.5218 54.69 20.0403 55.1187 18.5605C55.1724 18.3728 55.226 18.1851 55.2813 17.9918C55.662 16.6833 56.1148 15.4528 56.5949 14.1684Z" fill="black"/>
<path d="M149.987 14.1684C150.785 14.0701 150.785 14.0701 151.819 14.0756C152.007 14.0755 152.195 14.0753 152.388 14.0752C153.011 14.0758 153.634 14.0822 154.257 14.0886C154.688 14.0901 155.12 14.0912 155.551 14.0921C156.688 14.0952 157.824 14.1032 158.96 14.1122C160.119 14.1206 161.279 14.1243 162.438 14.1285C164.713 14.1372 166.988 14.1512 169.263 14.1684C169.18 14.6623 169.095 15.1559 169.009 15.6494C168.961 15.9243 168.914 16.1993 168.866 16.4825C168.72 17.1645 168.72 17.1645 168.449 17.4369C167.985 17.4607 167.521 17.4661 167.056 17.4635C166.635 17.4622 166.635 17.4622 166.205 17.4609C165.91 17.4586 165.614 17.4563 165.31 17.454C164.865 17.4521 164.865 17.4521 164.411 17.4502C163.675 17.447 162.94 17.4425 162.204 17.4369C162.218 17.6623 162.232 17.8878 162.246 18.12C162.197 19.2334 161.9 20.173 161.543 21.2162C160.965 22.9646 160.434 24.7214 159.942 26.4957C159.888 26.6914 159.834 26.887 159.778 27.0886C159.559 27.8823 159.341 28.6762 159.125 29.4708C158.972 30.0336 158.817 30.5959 158.662 31.1581C158.573 31.4861 158.484 31.814 158.392 32.1519C158.132 32.9627 158.132 32.9627 157.589 33.7798C156.855 33.8726 156.855 33.8726 155.933 33.8596C155.604 33.857 155.275 33.8543 154.936 33.8516C154.418 33.8414 154.418 33.8414 153.89 33.8309C153.543 33.8272 153.196 33.8235 152.838 33.8197C151.978 33.8101 151.119 33.7966 150.259 33.7798C150.427 32.439 150.687 31.172 151.039 29.8643C151.128 29.5308 151.217 29.1972 151.309 28.8535C151.516 28.1102 151.75 27.3804 151.999 26.65C152.635 24.7667 153.129 22.8412 153.648 20.9231C153.728 20.6304 153.808 20.3378 153.891 20.0363C153.963 19.7723 154.034 19.5083 154.108 19.2363C154.331 18.5265 154.331 18.5265 154.874 17.4369C152.993 17.4369 151.111 17.4369 149.173 17.4369C149.444 14.9855 149.444 14.9855 149.987 14.1684Z" fill="black"/>
<path d="M121.21 14.1684C123.628 14.1684 126.047 14.1684 128.54 14.1684C128.238 16.8942 128.238 16.8942 127.691 18.3903C127.026 20.2805 126.477 22.1958 125.944 24.1273C125.862 24.423 125.78 24.7186 125.696 25.0232C125.356 26.2527 125.019 27.4829 124.686 28.7142C124.597 29.0376 124.508 29.3609 124.416 29.6941C124.345 29.9582 124.274 30.2222 124.201 30.4942C123.828 31.6197 123.319 32.6958 122.838 33.7798C120.419 33.7798 118 33.7798 115.508 33.7798C115.685 32.541 115.849 31.515 116.193 30.3432C116.274 30.0654 116.356 29.7877 116.439 29.5015C116.524 29.2168 116.609 28.932 116.696 28.6386C116.779 28.356 116.861 28.0733 116.946 27.7821C117.377 26.3163 117.829 24.8606 118.318 23.413C118.554 22.7074 118.771 21.9967 118.987 21.2843C119.711 18.907 120.462 16.5383 121.21 14.1684Z" fill="black"/>
<path d="M170.621 14.1684C173.129 14.1684 175.638 14.1684 178.222 14.1684C178.021 15.181 177.804 16.1791 177.561 17.1816C177.494 17.46 177.427 17.7385 177.358 18.0253C177.136 18.7989 177.136 18.7989 176.872 19.3085C176.546 19.9874 176.391 20.6744 176.218 21.4052C175.867 22.7936 175.422 24.1561 174.998 25.5233C174.906 25.8216 174.814 26.1198 174.72 26.4271C174.534 27.0291 174.348 27.6309 174.161 28.2326C173.967 28.8632 173.775 29.4947 173.586 30.1268C173.491 30.4408 173.397 30.7548 173.3 31.0784C173.215 31.3617 173.131 31.6449 173.044 31.9368C172.793 32.6903 172.793 32.6903 172.25 33.7798C169.92 33.7798 167.591 33.7798 165.191 33.7798C165.496 31.0219 165.496 31.0219 165.926 29.6047C166.064 29.1428 166.064 29.1428 166.205 28.6716C166.302 28.3574 166.398 28.0431 166.497 27.7194C166.591 27.4093 166.684 27.0993 166.78 26.7799C167.155 25.5379 167.534 24.2976 167.917 23.0582C168.576 20.921 169.197 18.7754 169.799 16.6214C169.867 16.3811 169.935 16.1407 170.005 15.8931C170.064 15.6789 170.124 15.4646 170.186 15.2439C170.349 14.7131 170.349 14.7131 170.621 14.1684Z" fill="black"/>
<path fill-rule="evenodd" clip-rule="evenodd" d="M83.4058 14.0598L82.6219 14.0673L82.3967 14.0684C81.2674 14.0734 80.2215 14.0785 79.1295 14.4309L78.5856 14.7131C77.542 15.2239 76.6576 15.8529 75.7975 16.6358C72.8372 19.7171 71.5523 23.1862 71.4663 27.4135L71.459 28.0428L71.4566 28.208C71.4434 29.1278 71.431 29.9926 71.7718 30.8688L72.0698 31.3284C72.3123 31.7396 72.4353 31.9482 72.5688 32.1495C72.7061 32.3568 72.8546 32.5568 73.1558 32.9627C74.2073 33.8251 75.1006 33.8767 76.4051 33.8862L77.1422 33.8788C77.6624 33.8791 78.1826 33.8788 78.7028 33.8783C79.5189 33.8713 80.3349 33.865 81.1513 33.8658C81.6854 33.8668 82.2196 33.8668 82.7538 33.8652L83.5222 33.8618C85.3849 33.8636 86.8828 33.7865 88.531 32.8127L89.2076 32.3328C89.9419 31.8221 90.5148 31.3473 91.0985 30.6666L91.6171 29.9665C93.6933 27.1844 94.895 24.1398 95.0193 20.6651L95.0277 20.0246C95.0611 18.3621 94.8461 16.8669 93.789 15.5303C92.5848 14.3466 91.5562 14.0117 89.8867 14L89.1376 14.0162C88.6056 14.0176 88.0735 14.0194 87.5416 14.0221C86.7091 14.0356 85.8772 14.0492 85.0447 14.0524C84.4984 14.0535 83.9521 14.0559 83.4058 14.0598ZM85.4762 17.3359L84.8807 17.3348C83.468 17.2861 82.6568 17.2582 82.0686 17.6077C81.2753 18.0793 80.8878 19.238 79.9775 21.9589C79.8661 22.3066 79.7389 22.6766 79.6062 23.0631C78.7991 25.4121 77.7858 28.3617 78.8571 30.5113C79.3495 30.5373 79.842 30.5618 80.3349 30.5778L80.9441 30.5964C81.7178 30.6416 82.4379 30.6623 83.2009 30.5113C85.1894 29.115 85.992 26.4309 86.6141 24.1757L86.8151 23.4123C87.3398 21.5575 87.6881 19.9168 87.5447 17.9817C87.3023 17.7386 87.1548 17.5907 86.9782 17.4992C86.7034 17.3566 86.3583 17.3508 85.4762 17.3359Z" fill="black"/>
<path fill-rule="evenodd" clip-rule="evenodd" d="M12.7035 14.112C10.5015 14.124 8.29971 14.1432 6.09777 14.1684L5.29795 16.8497C4.90901 18.1549 4.5202 19.4597 4.11329 20.7593C3.48136 22.762 2.86295 24.769 2.25595 26.7794L1.95755 27.7705L1.66657 28.7198L1.39336 29.6335C0.976775 31.0109 0.798013 32.3526 0.667969 33.7799C2.71793 33.7857 4.76789 33.7903 6.81785 33.7932C7.86239 33.7948 8.90692 33.7959 9.95152 33.7988C10.9754 33.8017 11.9992 33.8044 13.0231 33.8054L14.1894 33.8065L15.3327 33.8108L16.3867 33.811C18.3682 33.8147 19.4664 33.0668 21.0297 31.8732C23.8436 29.3603 25.9937 25.5013 26.2506 21.6823L26.2389 20.8077C26.2307 19.4418 26.1591 18.1384 25.7097 16.839L25.4584 16.3134C25.2177 15.7836 25.2177 15.7836 24.8306 15.258C24.3695 14.8153 24.0703 14.5283 23.7177 14.3445C23.0667 14.0051 22.2335 14.0176 19.8618 14.0533C19.4859 14.0594 19.1098 14.0631 18.7338 14.0652C18.1189 14.0668 17.5041 14.07 16.8892 14.0751C16.5165 14.078 16.1439 14.0817 15.7712 14.0862C14.7487 14.0987 13.7261 14.1065 12.7035 14.112ZM15.023 17.403C14.2197 17.4117 13.4167 17.4224 12.6135 17.437L11.0228 22.8368C10.8307 23.489 10.6371 24.1404 10.4416 24.7913L9.84348 26.6692C9.4092 28.0046 9.26511 29.0592 9.08416 30.5113H13.6995V29.9666L14.514 29.6942C15.4905 28.5174 16.0727 27.1294 16.5432 25.6872L16.7368 25.0637L16.9004 24.5641C17.4211 22.9785 17.9514 21.3637 18.1154 19.7033L18.1112 19.1053C18.1135 18.775 18.1146 18.6234 18.1036 18.4725C18.0943 18.3446 18.0764 18.2172 18.0433 17.9818C17.7231 17.6604 17.5917 17.5288 17.4331 17.462C17.3228 17.4155 17.1994 17.4006 16.9901 17.3753L16.3783 17.3838L15.7155 17.3891L15.023 17.403Z" fill="black"/>
<path d="M206.186 21.2503C206.365 21.52 206.544 21.7896 206.729 22.0674C207.266 21.7978 207.804 21.5281 208.358 21.2503C208.537 21.4301 208.716 21.6099 208.901 21.7951C208.766 21.9074 208.631 22.0198 208.492 22.1355C207.31 23.1442 206.278 24.1933 205.276 25.3807C204.65 26.0807 203.919 26.6411 203.199 27.2427C202.689 27.8065 202.197 28.3816 201.711 28.9664C201.299 29.4217 201.299 29.4217 200.756 29.6941C200.577 29.6042 200.398 29.5143 200.213 29.4217C200.213 29.242 200.213 29.0622 200.213 28.877C199.855 28.7871 199.496 28.6972 199.127 28.6046C201.438 26.1091 203.762 23.6363 206.186 21.2503Z" fill="black"/>
<path d="M198.856 28.877C198.856 29.6941 198.856 29.6941 198.499 30.0931C198.194 30.3602 197.889 30.6269 197.583 30.8932C197.112 31.3749 197.112 31.3749 197.227 32.4179C197.048 32.7775 196.868 33.137 196.684 33.5075C200.536 33.5075 204.389 33.5075 208.358 33.5075C208.358 33.5973 208.358 33.6873 208.358 33.7799C203.878 33.7799 199.399 33.7799 194.783 33.7799C195.394 32.2477 195.394 32.2477 196.151 31.5104C196.309 31.355 196.466 31.1996 196.629 31.0395C196.792 30.8821 196.956 30.7246 197.125 30.5623C197.291 30.3996 197.457 30.2369 197.628 30.0692C198.035 29.6699 198.445 29.2732 198.856 28.877ZM197.227 31.6008C197.406 31.6008 197.585 31.6008 197.77 31.6008C197.68 31.8704 197.59 32.1401 197.498 32.4179C197.409 32.1483 197.319 31.8786 197.227 31.6008Z" fill="black"/>
<path d="M56.5949 14.1684C59.2827 14.1684 61.9704 14.1684 64.7396 14.1684C64.1966 17.7093 64.1966 17.7093 63.6536 18.2541C63.8328 17.1755 64.012 16.0968 64.1966 14.9855C61.5985 15.0754 59.0003 15.1653 56.3234 15.2579C56.413 14.8984 56.5026 14.5388 56.5949 14.1684Z" fill="black"/>
<path d="M30.2604 14.1684C32.9481 14.1684 35.6359 14.1684 38.4051 14.1684C38.4051 14.528 38.4051 14.8875 38.4051 15.2579C35.6838 15.3131 32.9757 15.1436 30.2604 14.9855C30.2604 14.7159 30.2604 14.4462 30.2604 14.1684Z" fill="black"/>
<path d="M202.114 25.336C202.293 25.6057 202.472 25.8753 202.656 26.1532C202.463 26.3301 202.463 26.3301 202.266 26.5107C201.778 26.9766 201.778 26.9766 201.571 27.7874C201.839 27.7874 202.108 27.7874 202.385 27.7874C202.385 27.4279 202.385 27.0684 202.385 26.6979C202.654 26.6979 202.923 26.6979 203.199 26.6979C202.819 28.1393 201.881 28.8156 200.756 29.6941C200.577 29.6042 200.398 29.5143 200.213 29.4217C200.213 29.242 200.213 29.0622 200.213 28.877C199.855 28.7871 199.496 28.6972 199.127 28.6046C200.113 27.526 201.098 26.4473 202.114 25.336Z" fill="black"/>
<path d="M141.3 32.4179C141.894 32.5031 141.894 32.5031 142.386 32.6903C141.807 33.3862 141.486 33.7459 140.582 33.9109C140.173 33.9072 140.173 33.9072 139.756 33.9035C139.446 33.9034 139.136 33.9034 138.817 33.9033C138.484 33.8977 138.152 33.892 137.809 33.8862C137.467 33.8847 137.125 33.8832 136.772 33.8816C135.865 33.8765 134.959 33.8667 134.052 33.8547C133.125 33.8435 132.199 33.8385 131.273 33.833C129.457 33.821 127.641 33.8028 125.825 33.7798C125.825 33.69 125.825 33.6001 125.825 33.5075C126.007 33.5059 126.189 33.5043 126.376 33.5026C128.265 33.4852 130.154 33.4622 132.044 33.436C132.749 33.4269 133.455 33.4193 134.16 33.4131C135.173 33.404 136.186 33.3897 137.199 33.3745C137.515 33.3727 137.832 33.371 138.158 33.3692C138.598 33.3611 138.598 33.3611 139.047 33.3528C139.306 33.3498 139.564 33.3468 139.831 33.3437C140.599 33.2162 140.793 32.9842 141.3 32.4179Z" fill="black"/>
<path d="M133.547 14.1029C133.964 14.1048 133.964 14.1048 134.391 14.1066C134.864 14.1067 134.864 14.1067 135.346 14.1067C135.688 14.1095 136.029 14.1124 136.381 14.1153C136.73 14.116 137.079 14.1168 137.438 14.1176C138.365 14.1197 139.293 14.125 140.22 14.131C141.167 14.1366 142.113 14.1391 143.059 14.1419C144.916 14.1477 146.773 14.1568 148.63 14.1683C148.54 14.7975 148.451 15.4269 148.359 16.0751C147.816 15.0537 147.816 15.0537 147.816 14.4408C140.155 14.5757 140.155 14.5757 132.341 14.7132C132.884 14.1685 132.884 14.1685 133.547 14.1029Z" fill="black"/>
<path d="M121.21 14.1684C123.628 14.1684 126.047 14.1684 128.54 14.1684C128.54 14.6178 128.54 15.0672 128.54 15.5303C128.43 15.3971 128.321 15.2639 128.208 15.1267C127.599 14.6052 127.308 14.6174 126.517 14.6333C126.287 14.636 126.057 14.6386 125.82 14.6413C125.581 14.6482 125.342 14.655 125.095 14.6621C124.853 14.6658 124.611 14.6694 124.361 14.6732C123.763 14.6829 123.165 14.6963 122.567 14.7131C122.567 14.8929 122.567 15.0727 122.567 15.2579C122.298 15.3927 122.298 15.3927 122.024 15.5303C122.024 15.7101 122.024 15.8898 122.024 16.075C121.845 16.075 121.666 16.075 121.481 16.075C121.481 16.2548 121.481 16.4346 121.481 16.6198C121.212 16.6198 120.943 16.6198 120.667 16.6198C120.846 15.8108 121.025 15.0019 121.21 14.1684Z" fill="black"/>
<path d="M198.856 28.877C198.856 29.6941 198.856 29.6941 198.499 30.0931C198.194 30.3602 197.889 30.6269 197.583 30.8932C197.112 31.3749 197.112 31.3749 197.227 32.4179C196.955 33.0308 196.955 33.0308 196.684 33.5075C196.236 33.5075 195.788 33.5075 195.326 33.5075C195.678 32.0756 196.347 31.2565 197.396 30.2729C197.536 30.1374 197.676 30.0019 197.821 29.8622C198.163 29.5313 198.509 29.2037 198.856 28.877ZM197.227 31.6008C197.406 31.6008 197.585 31.6008 197.77 31.6008C197.68 31.8704 197.59 32.1401 197.498 32.4179C197.409 32.1483 197.319 31.8786 197.227 31.6008Z" fill="black"/>
<path d="M60.6672 27.5151C60.7568 27.5151 60.8464 27.5151 60.9387 27.5151C61.0866 28.6277 61.2102 29.6594 61.2102 30.7836C60.9415 30.6938 60.6727 30.6039 60.3958 30.5113C60.3062 30.691 60.2166 30.8708 60.1243 31.056C59.3098 30.0346 59.3098 30.0346 59.3098 29.4217C59.6682 29.3319 60.0265 29.242 60.3958 29.1494C60.4853 28.61 60.5749 28.0707 60.6672 27.5151Z" fill="black"/>
<path d="M177.408 30.7836C177.587 31.1432 177.766 31.5027 177.951 31.8732C178.13 31.8732 178.309 31.8732 178.494 31.8732C178.494 32.0529 178.494 32.2327 178.494 32.4179C178.852 32.5078 179.211 32.5977 179.58 32.6903C179.58 32.8701 179.58 33.0499 179.58 33.2351C179.759 33.325 179.938 33.4149 180.123 33.5075C179.546 33.6266 179.546 33.6266 178.765 33.5075C178.115 32.9507 177.56 32.3477 177.136 31.6008C177.226 31.3311 177.316 31.0615 177.408 30.7836Z" fill="black"/>
<path d="M129.897 16.6198C130.557 17.6124 130.484 18.1758 130.44 19.3436C130.171 19.1639 129.903 18.9841 129.626 18.7989C129.357 19.0685 129.088 19.3382 128.811 19.616C128.95 18.4205 129.224 17.6175 129.897 16.6198Z" fill="black"/>
<path d="M22.3872 28.877C22.5663 29.2365 22.7455 29.5961 22.9301 29.9665C22.2134 30.6856 21.4967 31.4047 20.7582 32.1456C20.6686 31.786 20.579 31.4265 20.4867 31.056C20.8091 30.6645 20.8091 30.6645 21.3012 30.2389C21.667 29.788 22.0297 29.3345 22.3872 28.877Z" fill="black"/>
<path d="M153.517 21.5227C153.875 21.9721 154.234 22.4215 154.603 22.8846C154.334 23.5138 154.065 24.143 153.788 24.7913C153.699 24.6115 153.609 24.4317 153.517 24.2465C153.338 24.2465 153.158 24.2465 152.974 24.2465C153.153 23.3476 153.332 22.4488 153.517 21.5227Z" fill="black"/>
<path d="M172.793 28.0598C173.33 28.1947 173.33 28.1947 173.879 28.3322C173.699 29.321 173.52 30.3097 173.336 31.3284C173.246 31.3284 173.156 31.3284 173.064 31.3284C173.025 31.0307 172.986 30.7329 172.945 30.4261C172.824 29.4405 172.824 29.4405 172.521 28.6046C172.611 28.4248 172.7 28.2451 172.793 28.0598Z" fill="black"/>
<path d="M208.086 21.2503C208.355 21.4301 208.624 21.6099 208.901 21.7951C208.545 22.1137 208.189 22.4312 207.832 22.7484C207.633 22.9254 207.435 23.1023 207.23 23.2846C206.729 23.7017 206.729 23.7017 206.457 23.7017C206.356 23.0889 206.356 23.0889 206.457 22.3398C207.272 21.7099 207.272 21.7099 208.086 21.2503Z" fill="black"/>
<path d="M116.594 15.5303C117.042 15.6202 117.49 15.7101 117.952 15.8027C117.85 16.4666 117.85 16.4666 117.68 17.1646C117.411 17.2994 117.411 17.2994 117.137 17.437C116.713 17.0965 116.713 17.0965 116.323 16.6198C116.408 16.024 116.408 16.024 116.594 15.5303Z" fill="black"/>
<path d="M52.794 31.3284C53.4212 31.5082 54.0483 31.688 54.6945 31.8732C54.6049 32.1428 54.5153 32.4125 54.423 32.6903C54.1542 32.7802 53.8854 32.8701 53.6085 32.9627C52.794 31.9413 52.794 31.9413 52.794 31.3284Z" fill="black"/>
<path d="M205.914 23.157C206.094 23.4266 206.273 23.6963 206.457 23.9741C206.009 24.3337 205.561 24.6932 205.1 25.0636C204.828 24.7913 204.828 24.7913 204.811 24.0933C204.817 23.8742 204.823 23.6551 204.828 23.4293C205.187 23.3395 205.545 23.2496 205.914 23.157Z" fill="black"/>
<path d="M147.273 15.8027C147.541 15.8926 147.81 15.9824 148.087 16.075C147.997 16.5245 147.908 16.9738 147.816 17.4369C147.457 17.4369 147.099 17.437 146.73 17.437C146.73 17.0774 146.73 16.7179 146.73 16.3474C146.909 16.3474 147.088 16.3474 147.273 16.3474C147.273 16.1677 147.273 15.9879 147.273 15.8027Z" fill="black"/>
<path d="M1.21095 30.5113C1.47972 30.6012 1.7485 30.691 2.02542 30.7836C2.02542 31.323 2.02542 31.8623 2.02542 32.4179C1.66705 32.328 1.30869 32.2382 0.939459 32.1456C1.02905 31.6062 1.11864 31.0669 1.21095 30.5113Z" fill="black"/>
<path d="M142.386 22.6122C142.744 22.9717 143.102 23.3313 143.472 23.7017C143.382 23.8815 143.292 24.0613 143.2 24.2465C143.379 24.3364 143.559 24.4263 143.743 24.5189C143.474 24.6088 143.206 24.6986 142.929 24.7913C142.75 24.6115 142.57 24.4317 142.386 24.2465C142.386 23.7017 142.386 23.157 142.386 22.6122Z" fill="black"/>
<path d="M210.258 23.9741C210.619 25.0586 210.548 26.1124 210.53 27.2427C209.833 26.1942 209.837 25.4899 209.715 24.2465C209.894 24.1566 210.074 24.0667 210.258 23.9741Z" fill="black"/>
<path d="M118.766 24.5189C118.856 24.5189 118.945 24.5189 119.038 24.5189C119.038 24.9683 119.038 25.4177 119.038 25.8808C118.769 25.8808 118.5 25.8808 118.223 25.8808C117.76 26.4092 117.76 26.4092 117.409 26.9703C117.612 25.4041 117.612 25.4041 118.223 24.7913C118.223 24.971 118.223 25.1508 118.223 25.336C118.402 25.336 118.581 25.336 118.766 25.336C118.766 25.0664 118.766 24.7967 118.766 24.5189Z" fill="black"/>
<path d="M80.486 19.0712C80.5756 19.3409 80.6652 19.6106 80.7575 19.8884C80.3672 20.6204 80.3672 20.6204 79.943 21.2503C79.7638 21.1604 79.5847 21.0705 79.4001 20.9779C79.5634 20.4276 79.7457 19.8826 79.943 19.3436C80.1222 19.2537 80.3014 19.1639 80.486 19.0712Z" fill="black"/>
<path d="M214.331 14.7131C214.599 14.7131 214.868 14.7131 215.145 14.7131C215.688 15.2579 215.688 15.2579 215.688 16.075C215.24 16.075 214.792 16.075 214.331 16.075C214.331 15.6211 214.331 15.1671 214.331 14.7131Z" fill="black"/>
<path d="M19.4008 31.6008C19.7591 31.7806 20.1175 31.9603 20.4867 32.1456C20.1284 32.4152 19.77 32.6849 19.4008 32.9627C19.2216 32.8728 19.0424 32.7829 18.8578 32.6903C19.037 32.3308 19.2162 31.9712 19.4008 31.6008Z" fill="black"/>
<path d="M27.274 31.6008C27.7219 31.6008 28.1699 31.6008 28.6314 31.6008C28.6314 32.1401 28.6314 32.6794 28.6314 33.2351C28.2731 33.0553 27.9147 32.8755 27.5455 32.6903C27.6351 32.6004 27.7247 32.5105 27.817 32.4179C27.6378 32.328 27.4586 32.2382 27.274 32.1456C27.274 31.9658 27.274 31.786 27.274 31.6008Z" fill="black"/>
<path d="M220.575 31.056C220.844 31.056 221.112 31.056 221.389 31.056C221.479 31.5055 221.568 31.9549 221.661 32.4179C221.213 32.4179 220.765 32.4179 220.303 32.4179C220.393 31.9685 220.483 31.5191 220.575 31.056Z" fill="black"/>
<path d="M72.8843 31.3284C73.2427 31.688 73.601 32.0475 73.9703 32.4179C73.7015 32.5977 73.4327 32.7775 73.1558 32.9627C72.887 32.5133 72.6182 32.0638 72.3413 31.6008C72.5205 31.5109 72.6997 31.421 72.8843 31.3284Z" fill="black"/>
<path d="M149.444 14.9855C149.987 15.8027 149.987 15.8027 150.259 16.6198C150.169 16.7996 150.08 16.9794 149.987 17.1646C149.719 17.0747 149.45 16.9848 149.173 16.8922C149.263 16.263 149.352 15.6338 149.444 14.9855Z" fill="black"/>
<path d="M168.72 14.7131C168.899 14.803 169.079 14.8929 169.263 14.9855C169.084 15.7046 168.905 16.4237 168.72 17.1646C168.451 16.8949 168.183 16.6253 167.906 16.3474C168.177 15.8027 168.449 15.2579 168.72 14.7131Z" fill="black"/>
<path d="M29.9889 14.4408C30.3472 14.8003 30.7056 15.1598 31.0748 15.5303C30.9069 15.6033 30.7389 15.6763 30.5658 15.7516C29.9076 16.0629 29.9076 16.0629 29.4459 16.8922C29.6835 15.0536 29.6835 15.0536 29.9889 14.4408Z" fill="black"/>
</g>
<defs>
<clipPath id="clip0_403_17961">
<rect width="221" height="48" fill="white" transform="translate(0.833984)"/>
</clipPath>
</defs>
</svg>
